SplineFontDB: 3.2
FontName: JAWI-Dubai-Regular
FullName: JAWI Dubai Regular
FamilyName: JAWI Dubai
Weight: Regular
Copyright: Copyright (c) 2016 Dubai Executive Council. All rights reserved.\n\nModified by Niskala5570 for Malay Jawi, Javanese Pegon.etc support and removed some unimportant Latin glyph.\nhttps://github.com/niskala5570/pasuanjawi\n(23/5/2022)
Version: v2.872 Jawi 2023
ItalicAngle: 0
UnderlinePosition: -100
UnderlineWidth: 50
Ascent: 800
Descent: 200
InvalidEm: 0
LayerCount: 2
Layer: 0 1 "Back" 1
Layer: 1 1 "Fore" 0
XUID: [1021 382 1457897002 9725]
StyleMap: 0x0040
FSType: 8
OS2Version: 4
OS2_WeightWidthSlopeOnly: 1
OS2_UseTypoMetrics: 0
CreationTime: 1475835404
ModificationTime: 1693505826
PfmFamily: 17
TTFWeight: 400
TTFWidth: 5
LineGap: 0
VLineGap: 0
Panose: 2 11 5 3 3 4 3 3 2 4
OS2TypoAscent: 758
OS2TypoAOffset: 0
OS2TypoDescent: -246
OS2TypoDOffset: 0
OS2TypoLinegap: 200
OS2WinAscent: 1129
OS2WinAOffset: 0
OS2WinDescent: 559
OS2WinDOffset: 0
HheadAscent: 1129
HheadAOffset: 0
HheadDescent: -559
HheadDOffset: 0
OS2SubXSize: 650
OS2SubYSize: 600
OS2SubXOff: 0
OS2SubYOff: 75
OS2SupXSize: 650
OS2SupYSize: 600
OS2SupXOff: 0
OS2SupYOff: 350
OS2StrikeYSize: 50
OS2StrikeYPos: 337
OS2CapHeight: 648
OS2XHeight: 438
OS2Vendor: 'MONO'
OS2CodePages: 20000041.00000000
OS2UnicodeRanges: 80002067.80000000.00000008.00000000
Lookup: 1 0 0 "'aalt' Access All Alternates in Arabic lookup 0" { "'aalt' Access All Alternates in Arabic lookup 0 subtable"  } ['aalt' ('DFLT' <'dflt' > 'arab' <'URD ' 'dflt' > ) ]
Lookup: 3 0 0 "'aalt' Access All Alternates in Arabic lookup 1" { "'aalt' Access All Alternates in Arabic lookup 1 subtable"  } ['aalt' ('DFLT' <'dflt' > 'arab' <'URD ' 'dflt' > ) ]

StartChar: .notdef
Encoding: 414 -1 0
Width: 540
GlyphClass: 1
Flags: W
LayerCount: 2
Fore
SplineSet
80 0 m 1,0,-1
 80 688 l 1,1,-1
 460 688 l 1,2,-1
 460 0 l 1,3,-1
 80 0 l 1,0,-1
156 72 m 1,4,-1
 383 72 l 1,5,-1
 383 616 l 1,6,-1
 156 616 l 1,7,-1
 156 72 l 1,4,-1
EndSplineSet
PairPos2: "'kern' Horizontal Kerning in Arabic lookup 2 per glyph data 2" uni0671 dx=60 dy=0 dh=60 dv=0 dx=0 dy=0 dh=0 dv=0
PairPos2: "'kern' Horizontal Kerning in Arabic lookup 2 per glyph data 2" afii57410 dx=60 dy=0 dh=60 dv=0 dx=0 dy=0 dh=0 dv=0
PairPos2: "'kern' Horizontal Kerning in Arabic lookup 2 per glyph data 2" afii57411 dx=60 dy=0 dh=60 dv=0 dx=0 dy=0 dh=0 dv=0
PairPos2: "'kern' Horizontal Kerning in Arabic lookup 2 per glyph data 2" uniFE8E.short dx=60 dy=0 dh=60 dv=0 dx=0 dy=0 dh=0 dv=0
PairPos2: "'kern' Horizontal Kerning in Arabic lookup 2 per glyph data 2" afii57415.short dx=60 dy=0 dh=60 dv=0 dx=0 dy=0 dh=0 dv=0
PairPos2: "'kern' Horizontal Kerning in Arabic lookup 2 per glyph data 2" afii57415 dx=60 dy=0 dh=60 dv=0 dx=0 dy=0 dh=0 dv=0
PairPos2: "'kern' Horizontal Kerning in Arabic lookup 2 per glyph data 1" uniFEF3 dx=40 dy=0 dh=40 dv=0 dx=0 dy=0 dh=0 dv=0
PairPos2: "'kern' Horizontal Kerning in Arabic lookup 2 per glyph data 1" uniFB58 dx=40 dy=0 dh=40 dv=0 dx=0 dy=0 dh=0 dv=0
PairPos2: "'kern' Horizontal Kerning in Arabic lookup 2 per glyph data 1" afii57413 dx=40 dy=0 dh=40 dv=0 dx=0 dy=0 dh=0 dv=0
PairPos2: "'kern' Horizontal Kerning in Arabic lookup 2 per glyph data 1" uniFB94 dx=110 dy=0 dh=110 dv=0 dx=0 dy=0 dh=0 dv=0
PairPos2: "'kern' Horizontal Kerning in Arabic lookup 2 per glyph data 1" afii57509 dx=110 dy=0 dh=110 dv=0 dx=0 dy=0 dh=0 dv=0
PairPos2: "'kern' Horizontal Kerning in Arabic lookup 2 per glyph data 1" uniFB90 dx=110 dy=0 dh=110 dv=0 dx=0 dy=0 dh=0 dv=0
PairPos2: "'kern' Horizontal Kerning in Arabic lookup 2 per glyph data 1" uni06A9 dx=110 dy=0 dh=110 dv=0 dx=0 dy=0 dh=0 dv=0
PairPos2: "'kern' Horizontal Kerning in Arabic lookup 2 per glyph data 1" uniFEDB dx=110 dy=0 dh=110 dv=0 dx=0 dy=0 dh=0 dv=0
EndChar

StartChar: A
Encoding: 35 65 4
Width: 633
GlyphClass: 2
Flags: W
AnchorPoint: "Anchor-8" 0 0 basechar 0
AnchorPoint: "Anchor-7" 0 0 basechar 0
AnchorPoint: "Anchor-6" 317 648 basechar 0
AnchorPoint: "Anchor-5" 627 10 basechar 0
AnchorPoint: "Anchor-4" 317 0 basechar 0
LayerCount: 2
Fore
SplineSet
372 648 m 1,0,-1
 616 6 l 1,1,-1
 616 0 l 1,2,-1
 520 0 l 1,3,-1
 452 185 l 1,4,-1
 176 185 l 1,5,-1
 109 0 l 1,6,-1
 17 0 l 1,7,-1
 17 6 l 1,8,-1
 260 648 l 1,9,-1
 372 648 l 1,0,-1
204 261 m 1,10,-1
 424 261 l 1,11,-1
 314 561 l 1,12,-1
 204 261 l 1,10,-1
EndSplineSet
Substitution2: "Single Substitution lookup 23 subtable" ordfeminine
Substitution2: "'aalt' Access All Alternates in Arabic lookup 0 subtable" ordfeminine
PairPos2: "'kern' Horizontal Kerning in Arabic lookup 2 per glyph data 2" uni0671 dx=60 dy=0 dh=60 dv=0 dx=0 dy=0 dh=0 dv=0
PairPos2: "'kern' Horizontal Kerning in Arabic lookup 2 per glyph data 2" afii57410 dx=60 dy=0 dh=60 dv=0 dx=0 dy=0 dh=0 dv=0
PairPos2: "'kern' Horizontal Kerning in Arabic lookup 2 per glyph data 2" afii57411 dx=60 dy=0 dh=60 dv=0 dx=0 dy=0 dh=0 dv=0
PairPos2: "'kern' Horizontal Kerning in Arabic lookup 2 per glyph data 2" uniFE8E.short dx=60 dy=0 dh=60 dv=0 dx=0 dy=0 dh=0 dv=0
PairPos2: "'kern' Horizontal Kerning in Arabic lookup 2 per glyph data 2" afii57415.short dx=60 dy=0 dh=60 dv=0 dx=0 dy=0 dh=0 dv=0
PairPos2: "'kern' Horizontal Kerning in Arabic lookup 2 per glyph data 2" afii57415 dx=60 dy=0 dh=60 dv=0 dx=0 dy=0 dh=0 dv=0
PairPos2: "'kern' Horizontal Kerning in Arabic lookup 2 per glyph data 1" uniFEF3 dx=40 dy=0 dh=40 dv=0 dx=0 dy=0 dh=0 dv=0
PairPos2: "'kern' Horizontal Kerning in Arabic lookup 2 per glyph data 1" uniFB58 dx=40 dy=0 dh=40 dv=0 dx=0 dy=0 dh=0 dv=0
PairPos2: "'kern' Horizontal Kerning in Arabic lookup 2 per glyph data 1" afii57413 dx=40 dy=0 dh=40 dv=0 dx=0 dy=0 dh=0 dv=0
PairPos2: "'kern' Horizontal Kerning in Arabic lookup 2 per glyph data 1" uniFB94 dx=110 dy=0 dh=110 dv=0 dx=0 dy=0 dh=0 dv=0
PairPos2: "'kern' Horizontal Kerning in Arabic lookup 2 per glyph data 1" afii57509 dx=110 dy=0 dh=110 dv=0 dx=0 dy=0 dh=0 dv=0
PairPos2: "'kern' Horizontal Kerning in Arabic lookup 2 per glyph data 1" uniFB90 dx=110 dy=0 dh=110 dv=0 dx=0 dy=0 dh=0 dv=0
PairPos2: "'kern' Horizontal Kerning in Arabic lookup 2 per glyph data 1" uni06A9 dx=110 dy=0 dh=110 dv=0 dx=0 dy=0 dh=0 dv=0
PairPos2: "'kern' Horizontal Kerning in Arabic lookup 2 per glyph data 1" uniFEDB dx=110 dy=0 dh=110 dv=0 dx=0 dy=0 dh=0 dv=0
EndChar

StartChar: B
Encoding: 36 66 5
Width: 596
GlyphClass: 2
Flags: W
AnchorPoint: "Anchor-8" 0 0 basechar 0
AnchorPoint: "Anchor-7" 0 0 basechar 0
AnchorPoint: "Anchor-6" 285 648 basechar 0
AnchorPoint: "Anchor-5" 195 10 basechar 0
AnchorPoint: "Anchor-4" 285 0 basechar 0
LayerCount: 2
Fore
SplineSet
518 280 m 128,-1,1
 551 236 551 236 551 181 c 0,2,3
 551 129 551 129 524.5 88 c 128,-1,4
 498 47 498 47 445 23.5 c 128,-1,5
 392 0 392 0 316 0 c 2,6,-1
 82 0 l 1,7,-1
 82 648 l 1,8,-1
 308 648 l 2,9,10
 376 648 376 648 425 626.5 c 128,-1,11
 474 605 474 605 500 567.5 c 128,-1,12
 526 530 526 530 526 481 c 0,13,14
 526 434 526 434 499.5 397 c 128,-1,15
 473 360 473 360 416 341 c 1,16,0
 485 324 485 324 518 280 c 128,-1,1
174 572 m 1,17,-1
 174 368 l 1,18,-1
 295 368 l 2,19,20
 356 368 356 368 394 393.5 c 128,-1,21
 432 419 432 419 432 475 c 0,22,23
 432 503 432 503 418 525 c 128,-1,24
 404 547 404 547 376.5 559.5 c 128,-1,25
 349 572 349 572 310 572 c 2,26,-1
 174 572 l 1,17,-1
422 106 m 128,-1,28
 454 136 454 136 454 183 c 0,29,30
 454 234 454 234 420 264 c 128,-1,31
 386 294 386 294 319 294 c 2,32,-1
 174 294 l 1,33,-1
 174 76 l 1,34,-1
 318 76 l 2,35,27
 390 76 390 76 422 106 c 128,-1,28
EndSplineSet
PairPos2: "'kern' Horizontal Kerning in Arabic lookup 2 per glyph data 2" uni0671 dx=60 dy=0 dh=60 dv=0 dx=0 dy=0 dh=0 dv=0
PairPos2: "'kern' Horizontal Kerning in Arabic lookup 2 per glyph data 2" afii57410 dx=60 dy=0 dh=60 dv=0 dx=0 dy=0 dh=0 dv=0
PairPos2: "'kern' Horizontal Kerning in Arabic lookup 2 per glyph data 2" afii57411 dx=60 dy=0 dh=60 dv=0 dx=0 dy=0 dh=0 dv=0
PairPos2: "'kern' Horizontal Kerning in Arabic lookup 2 per glyph data 2" uniFE8E.short dx=60 dy=0 dh=60 dv=0 dx=0 dy=0 dh=0 dv=0
PairPos2: "'kern' Horizontal Kerning in Arabic lookup 2 per glyph data 2" afii57415.short dx=60 dy=0 dh=60 dv=0 dx=0 dy=0 dh=0 dv=0
PairPos2: "'kern' Horizontal Kerning in Arabic lookup 2 per glyph data 2" afii57415 dx=60 dy=0 dh=60 dv=0 dx=0 dy=0 dh=0 dv=0
PairPos2: "'kern' Horizontal Kerning in Arabic lookup 2 per glyph data 1" uniFEF3 dx=40 dy=0 dh=40 dv=0 dx=0 dy=0 dh=0 dv=0
PairPos2: "'kern' Horizontal Kerning in Arabic lookup 2 per glyph data 1" uniFB58 dx=40 dy=0 dh=40 dv=0 dx=0 dy=0 dh=0 dv=0
PairPos2: "'kern' Horizontal Kerning in Arabic lookup 2 per glyph data 1" afii57413 dx=40 dy=0 dh=40 dv=0 dx=0 dy=0 dh=0 dv=0
PairPos2: "'kern' Horizontal Kerning in Arabic lookup 2 per glyph data 1" uniFB94 dx=110 dy=0 dh=110 dv=0 dx=0 dy=0 dh=0 dv=0
PairPos2: "'kern' Horizontal Kerning in Arabic lookup 2 per glyph data 1" afii57509 dx=110 dy=0 dh=110 dv=0 dx=0 dy=0 dh=0 dv=0
PairPos2: "'kern' Horizontal Kerning in Arabic lookup 2 per glyph data 1" uniFB90 dx=110 dy=0 dh=110 dv=0 dx=0 dy=0 dh=0 dv=0
PairPos2: "'kern' Horizontal Kerning in Arabic lookup 2 per glyph data 1" uni06A9 dx=110 dy=0 dh=110 dv=0 dx=0 dy=0 dh=0 dv=0
PairPos2: "'kern' Horizontal Kerning in Arabic lookup 2 per glyph data 1" uniFEDB dx=110 dy=0 dh=110 dv=0 dx=0 dy=0 dh=0 dv=0
EndChar

StartChar: C
Encoding: 37 67 6
Width: 573
GlyphClass: 2
Flags: W
AnchorPoint: "Anchor-8" 0 0 basechar 0
AnchorPoint: "Anchor-7" 0 0 basechar 0
AnchorPoint: "Anchor-6" 342 648 basechar 0
AnchorPoint: "Anchor-5" 0 0 basechar 0
AnchorPoint: "Anchor-4" 332 0 basechar 0
LayerCount: 2
Fore
SplineSet
177 29 m 128,-1,1
 110 70 110 70 77.5 145 c 128,-1,2
 45 220 45 220 45 322 c 0,3,4
 45 440 45 440 86.5 515.5 c 128,-1,5
 128 591 128 591 195 625.5 c 128,-1,6
 262 660 262 660 342 660 c 0,7,8
 403 660 403 660 454.5 645 c 128,-1,9
 506 630 506 630 553 601 c 1,10,-1
 513 531 l 1,11,12
 435 580 435 580 346 580 c 0,13,14
 242 580 242 580 192.5 512 c 128,-1,15
 143 444 143 444 143 327 c 0,16,17
 143 206 143 206 195 137 c 128,-1,18
 247 68 247 68 348 68 c 0,19,20
 399 68 399 68 440 81 c 128,-1,21
 481 94 481 94 522 118 c 1,22,-1
 559 51 l 1,23,24
 506 20 506 20 455.5 4 c 128,-1,25
 405 -12 405 -12 344 -12 c 0,26,0
 244 -12 244 -12 177 29 c 128,-1,1
EndSplineSet
PairPos2: "'kern' Horizontal Kerning in Arabic lookup 2 per glyph data 2" uni0671 dx=60 dy=0 dh=60 dv=0 dx=0 dy=0 dh=0 dv=0
PairPos2: "'kern' Horizontal Kerning in Arabic lookup 2 per glyph data 2" afii57410 dx=60 dy=0 dh=60 dv=0 dx=0 dy=0 dh=0 dv=0
PairPos2: "'kern' Horizontal Kerning in Arabic lookup 2 per glyph data 2" afii57411 dx=60 dy=0 dh=60 dv=0 dx=0 dy=0 dh=0 dv=0
PairPos2: "'kern' Horizontal Kerning in Arabic lookup 2 per glyph data 2" uniFE8E.short dx=60 dy=0 dh=60 dv=0 dx=0 dy=0 dh=0 dv=0
PairPos2: "'kern' Horizontal Kerning in Arabic lookup 2 per glyph data 2" afii57415.short dx=60 dy=0 dh=60 dv=0 dx=0 dy=0 dh=0 dv=0
PairPos2: "'kern' Horizontal Kerning in Arabic lookup 2 per glyph data 2" afii57415 dx=60 dy=0 dh=60 dv=0 dx=0 dy=0 dh=0 dv=0
PairPos2: "'kern' Horizontal Kerning in Arabic lookup 2 per glyph data 1" uniFEF3 dx=40 dy=0 dh=40 dv=0 dx=0 dy=0 dh=0 dv=0
PairPos2: "'kern' Horizontal Kerning in Arabic lookup 2 per glyph data 1" uniFB58 dx=40 dy=0 dh=40 dv=0 dx=0 dy=0 dh=0 dv=0
PairPos2: "'kern' Horizontal Kerning in Arabic lookup 2 per glyph data 1" afii57413 dx=40 dy=0 dh=40 dv=0 dx=0 dy=0 dh=0 dv=0
PairPos2: "'kern' Horizontal Kerning in Arabic lookup 2 per glyph data 1" uniFB94 dx=110 dy=0 dh=110 dv=0 dx=0 dy=0 dh=0 dv=0
PairPos2: "'kern' Horizontal Kerning in Arabic lookup 2 per glyph data 1" afii57509 dx=110 dy=0 dh=110 dv=0 dx=0 dy=0 dh=0 dv=0
PairPos2: "'kern' Horizontal Kerning in Arabic lookup 2 per glyph data 1" uniFB90 dx=110 dy=0 dh=110 dv=0 dx=0 dy=0 dh=0 dv=0
PairPos2: "'kern' Horizontal Kerning in Arabic lookup 2 per glyph data 1" uni06A9 dx=110 dy=0 dh=110 dv=0 dx=0 dy=0 dh=0 dv=0
PairPos2: "'kern' Horizontal Kerning in Arabic lookup 2 per glyph data 1" uniFEDB dx=110 dy=0 dh=110 dv=0 dx=0 dy=0 dh=0 dv=0
EndChar

StartChar: D
Encoding: 38 68 7
Width: 662
GlyphClass: 2
Flags: W
AnchorPoint: "Anchor-8" 0 0 basechar 0
AnchorPoint: "Anchor-7" 179 324 basechar 0
AnchorPoint: "Anchor-6" 279 648 basechar 0
AnchorPoint: "Anchor-5" 195 10 basechar 0
AnchorPoint: "Anchor-4" 279 0 basechar 0
LayerCount: 2
Fore
SplineSet
529.5 571 m 128,-1,1
 617 494 617 494 617 324 c 0,2,3
 617 215 617 215 572.5 142.5 c 128,-1,4
 528 70 528 70 448 35 c 128,-1,5
 368 0 368 0 260 0 c 2,6,-1
 82 0 l 1,7,-1
 82 648 l 1,8,-1
 277 648 l 2,9,0
 442 648 442 648 529.5 571 c 128,-1,1
396 99 m 128,-1,11
 455 120 455 120 488 174 c 128,-1,12
 521 228 521 228 521 324 c 0,13,14
 521 451 521 451 462 510.5 c 128,-1,15
 403 570 403 570 279 570 c 2,16,-1
 174 570 l 1,17,-1
 174 78 l 1,18,-1
 249 78 l 2,19,10
 337 78 337 78 396 99 c 128,-1,11
EndSplineSet
PairPos2: "'kern' Horizontal Kerning in Arabic lookup 2 per glyph data 2" uni0671 dx=60 dy=0 dh=60 dv=0 dx=0 dy=0 dh=0 dv=0
PairPos2: "'kern' Horizontal Kerning in Arabic lookup 2 per glyph data 2" afii57410 dx=60 dy=0 dh=60 dv=0 dx=0 dy=0 dh=0 dv=0
PairPos2: "'kern' Horizontal Kerning in Arabic lookup 2 per glyph data 2" afii57411 dx=60 dy=0 dh=60 dv=0 dx=0 dy=0 dh=0 dv=0
PairPos2: "'kern' Horizontal Kerning in Arabic lookup 2 per glyph data 2" uniFE8E.short dx=60 dy=0 dh=60 dv=0 dx=0 dy=0 dh=0 dv=0
PairPos2: "'kern' Horizontal Kerning in Arabic lookup 2 per glyph data 2" afii57415.short dx=60 dy=0 dh=60 dv=0 dx=0 dy=0 dh=0 dv=0
PairPos2: "'kern' Horizontal Kerning in Arabic lookup 2 per glyph data 2" afii57415 dx=60 dy=0 dh=60 dv=0 dx=0 dy=0 dh=0 dv=0
PairPos2: "'kern' Horizontal Kerning in Arabic lookup 2 per glyph data 1" uniFEF3 dx=40 dy=0 dh=40 dv=0 dx=0 dy=0 dh=0 dv=0
PairPos2: "'kern' Horizontal Kerning in Arabic lookup 2 per glyph data 1" uniFB58 dx=40 dy=0 dh=40 dv=0 dx=0 dy=0 dh=0 dv=0
PairPos2: "'kern' Horizontal Kerning in Arabic lookup 2 per glyph data 1" afii57413 dx=40 dy=0 dh=40 dv=0 dx=0 dy=0 dh=0 dv=0
PairPos2: "'kern' Horizontal Kerning in Arabic lookup 2 per glyph data 1" uniFB94 dx=110 dy=0 dh=110 dv=0 dx=0 dy=0 dh=0 dv=0
PairPos2: "'kern' Horizontal Kerning in Arabic lookup 2 per glyph data 1" afii57509 dx=110 dy=0 dh=110 dv=0 dx=0 dy=0 dh=0 dv=0
PairPos2: "'kern' Horizontal Kerning in Arabic lookup 2 per glyph data 1" uniFB90 dx=110 dy=0 dh=110 dv=0 dx=0 dy=0 dh=0 dv=0
PairPos2: "'kern' Horizontal Kerning in Arabic lookup 2 per glyph data 1" uni06A9 dx=110 dy=0 dh=110 dv=0 dx=0 dy=0 dh=0 dv=0
PairPos2: "'kern' Horizontal Kerning in Arabic lookup 2 per glyph data 1" uniFEDB dx=110 dy=0 dh=110 dv=0 dx=0 dy=0 dh=0 dv=0
EndChar

StartChar: E
Encoding: 39 69 8
Width: 541
GlyphClass: 2
Flags: W
AnchorPoint: "Anchor-8" 0 0 basechar 0
AnchorPoint: "Anchor-7" 0 0 basechar 0
AnchorPoint: "Anchor-6" 291 648 basechar 0
AnchorPoint: "Anchor-5" 492 10 basechar 0
AnchorPoint: "Anchor-4" 271 0 basechar 0
LayerCount: 2
Fore
SplineSet
174 78 m 1,0,-1
 492 78 l 1,1,-1
 492 0 l 1,2,-1
 82 0 l 1,3,-1
 82 648 l 1,4,-1
 487 648 l 1,5,-1
 487 570 l 1,6,-1
 174 570 l 1,7,-1
 174 368 l 1,8,-1
 448 368 l 1,9,-1
 438 292 l 1,10,-1
 174 292 l 1,11,-1
 174 78 l 1,0,-1
EndSplineSet
PairPos2: "'kern' Horizontal Kerning in Arabic lookup 2 per glyph data 2" uni0671 dx=60 dy=0 dh=60 dv=0 dx=0 dy=0 dh=0 dv=0
PairPos2: "'kern' Horizontal Kerning in Arabic lookup 2 per glyph data 2" afii57410 dx=60 dy=0 dh=60 dv=0 dx=0 dy=0 dh=0 dv=0
PairPos2: "'kern' Horizontal Kerning in Arabic lookup 2 per glyph data 2" afii57411 dx=60 dy=0 dh=60 dv=0 dx=0 dy=0 dh=0 dv=0
PairPos2: "'kern' Horizontal Kerning in Arabic lookup 2 per glyph data 2" uniFE8E.short dx=60 dy=0 dh=60 dv=0 dx=0 dy=0 dh=0 dv=0
PairPos2: "'kern' Horizontal Kerning in Arabic lookup 2 per glyph data 2" afii57415.short dx=60 dy=0 dh=60 dv=0 dx=0 dy=0 dh=0 dv=0
PairPos2: "'kern' Horizontal Kerning in Arabic lookup 2 per glyph data 2" afii57415 dx=60 dy=0 dh=60 dv=0 dx=0 dy=0 dh=0 dv=0
PairPos2: "'kern' Horizontal Kerning in Arabic lookup 2 per glyph data 1" uniFEF3 dx=40 dy=0 dh=40 dv=0 dx=0 dy=0 dh=0 dv=0
PairPos2: "'kern' Horizontal Kerning in Arabic lookup 2 per glyph data 1" uniFB58 dx=40 dy=0 dh=40 dv=0 dx=0 dy=0 dh=0 dv=0
PairPos2: "'kern' Horizontal Kerning in Arabic lookup 2 per glyph data 1" afii57413 dx=40 dy=0 dh=40 dv=0 dx=0 dy=0 dh=0 dv=0
PairPos2: "'kern' Horizontal Kerning in Arabic lookup 2 per glyph data 1" uniFB94 dx=110 dy=0 dh=110 dv=0 dx=0 dy=0 dh=0 dv=0
PairPos2: "'kern' Horizontal Kerning in Arabic lookup 2 per glyph data 1" afii57509 dx=110 dy=0 dh=110 dv=0 dx=0 dy=0 dh=0 dv=0
PairPos2: "'kern' Horizontal Kerning in Arabic lookup 2 per glyph data 1" uniFB90 dx=110 dy=0 dh=110 dv=0 dx=0 dy=0 dh=0 dv=0
PairPos2: "'kern' Horizontal Kerning in Arabic lookup 2 per glyph data 1" uni06A9 dx=110 dy=0 dh=110 dv=0 dx=0 dy=0 dh=0 dv=0
PairPos2: "'kern' Horizontal Kerning in Arabic lookup 2 per glyph data 1" uniFEDB dx=110 dy=0 dh=110 dv=0 dx=0 dy=0 dh=0 dv=0
EndChar

StartChar: F
Encoding: 40 70 9
Width: 516
GlyphClass: 2
Flags: W
AnchorPoint: "Anchor-8" 0 0 basechar 0
AnchorPoint: "Anchor-7" 0 0 basechar 0
AnchorPoint: "Anchor-6" 295 648 basechar 0
AnchorPoint: "Anchor-5" 195 10 basechar 0
AnchorPoint: "Anchor-4" 129 0 basechar 0
LayerCount: 2
Fore
SplineSet
487 570 m 1,0,-1
 174 570 l 1,1,-1
 174 352 l 1,2,-1
 447 352 l 1,3,-1
 437 274 l 1,4,-1
 174 274 l 1,5,-1
 174 0 l 1,6,-1
 82 0 l 1,7,-1
 82 648 l 1,8,-1
 487 648 l 1,9,-1
 487 570 l 1,0,-1
EndSplineSet
PairPos2: "'kern' Horizontal Kerning in Arabic lookup 2 per glyph data 2" uni0671 dx=60 dy=0 dh=60 dv=0 dx=0 dy=0 dh=0 dv=0
PairPos2: "'kern' Horizontal Kerning in Arabic lookup 2 per glyph data 2" afii57410 dx=60 dy=0 dh=60 dv=0 dx=0 dy=0 dh=0 dv=0
PairPos2: "'kern' Horizontal Kerning in Arabic lookup 2 per glyph data 2" afii57411 dx=60 dy=0 dh=60 dv=0 dx=0 dy=0 dh=0 dv=0
PairPos2: "'kern' Horizontal Kerning in Arabic lookup 2 per glyph data 2" uniFE8E.short dx=60 dy=0 dh=60 dv=0 dx=0 dy=0 dh=0 dv=0
PairPos2: "'kern' Horizontal Kerning in Arabic lookup 2 per glyph data 2" afii57415.short dx=60 dy=0 dh=60 dv=0 dx=0 dy=0 dh=0 dv=0
PairPos2: "'kern' Horizontal Kerning in Arabic lookup 2 per glyph data 2" afii57415 dx=60 dy=0 dh=60 dv=0 dx=0 dy=0 dh=0 dv=0
PairPos2: "'kern' Horizontal Kerning in Arabic lookup 2 per glyph data 1" uniFEF3 dx=40 dy=0 dh=40 dv=0 dx=0 dy=0 dh=0 dv=0
PairPos2: "'kern' Horizontal Kerning in Arabic lookup 2 per glyph data 1" uniFB58 dx=40 dy=0 dh=40 dv=0 dx=0 dy=0 dh=0 dv=0
PairPos2: "'kern' Horizontal Kerning in Arabic lookup 2 per glyph data 1" afii57413 dx=40 dy=0 dh=40 dv=0 dx=0 dy=0 dh=0 dv=0
PairPos2: "'kern' Horizontal Kerning in Arabic lookup 2 per glyph data 1" uniFB94 dx=110 dy=0 dh=110 dv=0 dx=0 dy=0 dh=0 dv=0
PairPos2: "'kern' Horizontal Kerning in Arabic lookup 2 per glyph data 1" afii57509 dx=110 dy=0 dh=110 dv=0 dx=0 dy=0 dh=0 dv=0
PairPos2: "'kern' Horizontal Kerning in Arabic lookup 2 per glyph data 1" uniFB90 dx=110 dy=0 dh=110 dv=0 dx=0 dy=0 dh=0 dv=0
PairPos2: "'kern' Horizontal Kerning in Arabic lookup 2 per glyph data 1" uni06A9 dx=110 dy=0 dh=110 dv=0 dx=0 dy=0 dh=0 dv=0
PairPos2: "'kern' Horizontal Kerning in Arabic lookup 2 per glyph data 1" uniFEDB dx=110 dy=0 dh=110 dv=0 dx=0 dy=0 dh=0 dv=0
EndChar

StartChar: G
Encoding: 41 71 10
Width: 643
GlyphClass: 2
Flags: W
AnchorPoint: "Anchor-8" 0 0 basechar 0
AnchorPoint: "Anchor-7" 0 0 basechar 0
AnchorPoint: "Anchor-6" 355 648 basechar 0
AnchorPoint: "Anchor-5" 0 0 basechar 0
AnchorPoint: "Anchor-4" 352 0 basechar 0
LayerCount: 2
Fore
SplineSet
586 359 m 1,0,-1
 586 43 l 1,1,2
 527 15 527 15 475 1.5 c 128,-1,3
 423 -12 423 -12 354 -12 c 0,4,5
 247 -12 247 -12 178 31 c 128,-1,6
 109 74 109 74 77 149 c 128,-1,7
 45 224 45 224 45 323 c 0,8,9
 45 439 45 439 87 514.5 c 128,-1,10
 129 590 129 590 199 625 c 128,-1,11
 269 660 269 660 354 660 c 0,12,13
 417 660 417 660 470 645 c 128,-1,14
 523 630 523 630 570 601 c 1,15,-1
 530 531 l 1,16,17
 495 553 495 553 453.5 566.5 c 128,-1,18
 412 580 412 580 361 580 c 0,19,20
 248 580 248 580 195.5 512.5 c 128,-1,21
 143 445 143 445 143 327 c 0,22,23
 143 203 143 203 193 135.5 c 128,-1,24
 243 68 243 68 356 68 c 0,25,26
 426 68 426 68 494 93 c 1,27,-1
 494 281 l 1,28,-1
 328 281 l 1,29,-1
 338 359 l 1,30,-1
 586 359 l 1,0,-1
EndSplineSet
PairPos2: "'kern' Horizontal Kerning in Arabic lookup 2 per glyph data 2" uni0671 dx=60 dy=0 dh=60 dv=0 dx=0 dy=0 dh=0 dv=0
PairPos2: "'kern' Horizontal Kerning in Arabic lookup 2 per glyph data 2" afii57410 dx=60 dy=0 dh=60 dv=0 dx=0 dy=0 dh=0 dv=0
PairPos2: "'kern' Horizontal Kerning in Arabic lookup 2 per glyph data 2" afii57411 dx=60 dy=0 dh=60 dv=0 dx=0 dy=0 dh=0 dv=0
PairPos2: "'kern' Horizontal Kerning in Arabic lookup 2 per glyph data 2" uniFE8E.short dx=60 dy=0 dh=60 dv=0 dx=0 dy=0 dh=0 dv=0
PairPos2: "'kern' Horizontal Kerning in Arabic lookup 2 per glyph data 2" afii57415.short dx=60 dy=0 dh=60 dv=0 dx=0 dy=0 dh=0 dv=0
PairPos2: "'kern' Horizontal Kerning in Arabic lookup 2 per glyph data 2" afii57415 dx=60 dy=0 dh=60 dv=0 dx=0 dy=0 dh=0 dv=0
PairPos2: "'kern' Horizontal Kerning in Arabic lookup 2 per glyph data 1" uniFEF3 dx=40 dy=0 dh=40 dv=0 dx=0 dy=0 dh=0 dv=0
PairPos2: "'kern' Horizontal Kerning in Arabic lookup 2 per glyph data 1" uniFB58 dx=40 dy=0 dh=40 dv=0 dx=0 dy=0 dh=0 dv=0
PairPos2: "'kern' Horizontal Kerning in Arabic lookup 2 per glyph data 1" afii57413 dx=40 dy=0 dh=40 dv=0 dx=0 dy=0 dh=0 dv=0
PairPos2: "'kern' Horizontal Kerning in Arabic lookup 2 per glyph data 1" uniFB94 dx=110 dy=0 dh=110 dv=0 dx=0 dy=0 dh=0 dv=0
PairPos2: "'kern' Horizontal Kerning in Arabic lookup 2 per glyph data 1" afii57509 dx=110 dy=0 dh=110 dv=0 dx=0 dy=0 dh=0 dv=0
PairPos2: "'kern' Horizontal Kerning in Arabic lookup 2 per glyph data 1" uniFB90 dx=110 dy=0 dh=110 dv=0 dx=0 dy=0 dh=0 dv=0
PairPos2: "'kern' Horizontal Kerning in Arabic lookup 2 per glyph data 1" uni06A9 dx=110 dy=0 dh=110 dv=0 dx=0 dy=0 dh=0 dv=0
PairPos2: "'kern' Horizontal Kerning in Arabic lookup 2 per glyph data 1" uniFEDB dx=110 dy=0 dh=110 dv=0 dx=0 dy=0 dh=0 dv=0
EndChar

StartChar: H
Encoding: 42 72 11
Width: 706
GlyphClass: 2
Flags: W
AnchorPoint: "Anchor-8" 0 0 basechar 0
AnchorPoint: "Anchor-7" 353 324 basechar 0
AnchorPoint: "Anchor-6" 353 648 basechar 0
AnchorPoint: "Anchor-5" 0 0 basechar 0
AnchorPoint: "Anchor-4" 353 0 basechar 0
LayerCount: 2
Fore
SplineSet
532 648 m 1,0,-1
 624 648 l 1,1,-1
 624 0 l 1,2,-1
 532 0 l 1,3,-1
 532 291 l 1,4,-1
 174 291 l 1,5,-1
 174 0 l 1,6,-1
 82 0 l 1,7,-1
 82 648 l 1,8,-1
 174 648 l 1,9,-1
 174 369 l 1,10,-1
 532 369 l 1,11,-1
 532 648 l 1,0,-1
EndSplineSet
PairPos2: "'kern' Horizontal Kerning in Arabic lookup 2 per glyph data 2" uni0671 dx=60 dy=0 dh=60 dv=0 dx=0 dy=0 dh=0 dv=0
PairPos2: "'kern' Horizontal Kerning in Arabic lookup 2 per glyph data 2" afii57410 dx=60 dy=0 dh=60 dv=0 dx=0 dy=0 dh=0 dv=0
PairPos2: "'kern' Horizontal Kerning in Arabic lookup 2 per glyph data 2" afii57411 dx=60 dy=0 dh=60 dv=0 dx=0 dy=0 dh=0 dv=0
PairPos2: "'kern' Horizontal Kerning in Arabic lookup 2 per glyph data 2" uniFE8E.short dx=60 dy=0 dh=60 dv=0 dx=0 dy=0 dh=0 dv=0
PairPos2: "'kern' Horizontal Kerning in Arabic lookup 2 per glyph data 2" afii57415.short dx=60 dy=0 dh=60 dv=0 dx=0 dy=0 dh=0 dv=0
PairPos2: "'kern' Horizontal Kerning in Arabic lookup 2 per glyph data 2" afii57415 dx=60 dy=0 dh=60 dv=0 dx=0 dy=0 dh=0 dv=0
PairPos2: "'kern' Horizontal Kerning in Arabic lookup 2 per glyph data 1" uniFEF3 dx=40 dy=0 dh=40 dv=0 dx=0 dy=0 dh=0 dv=0
PairPos2: "'kern' Horizontal Kerning in Arabic lookup 2 per glyph data 1" uniFB58 dx=40 dy=0 dh=40 dv=0 dx=0 dy=0 dh=0 dv=0
PairPos2: "'kern' Horizontal Kerning in Arabic lookup 2 per glyph data 1" afii57413 dx=40 dy=0 dh=40 dv=0 dx=0 dy=0 dh=0 dv=0
PairPos2: "'kern' Horizontal Kerning in Arabic lookup 2 per glyph data 1" uniFB94 dx=110 dy=0 dh=110 dv=0 dx=0 dy=0 dh=0 dv=0
PairPos2: "'kern' Horizontal Kerning in Arabic lookup 2 per glyph data 1" afii57509 dx=110 dy=0 dh=110 dv=0 dx=0 dy=0 dh=0 dv=0
PairPos2: "'kern' Horizontal Kerning in Arabic lookup 2 per glyph data 1" uniFB90 dx=110 dy=0 dh=110 dv=0 dx=0 dy=0 dh=0 dv=0
PairPos2: "'kern' Horizontal Kerning in Arabic lookup 2 per glyph data 1" uni06A9 dx=110 dy=0 dh=110 dv=0 dx=0 dy=0 dh=0 dv=0
PairPos2: "'kern' Horizontal Kerning in Arabic lookup 2 per glyph data 1" uniFEDB dx=110 dy=0 dh=110 dv=0 dx=0 dy=0 dh=0 dv=0
EndChar

StartChar: I
Encoding: 43 73 12
Width: 256
GlyphClass: 2
Flags: W
AnchorPoint: "Anchor-8" 0 0 basechar 0
AnchorPoint: "Anchor-7" 0 0 basechar 0
AnchorPoint: "Anchor-6" 128 648 basechar 0
AnchorPoint: "Anchor-5" 195 10 basechar 0
AnchorPoint: "Anchor-4" 128 0 basechar 0
LayerCount: 2
Fore
SplineSet
82 0 m 1,0,-1
 82 648 l 1,1,-1
 174 648 l 1,2,-1
 174 0 l 1,3,-1
 82 0 l 1,0,-1
EndSplineSet
PairPos2: "'kern' Horizontal Kerning in Arabic lookup 2 per glyph data 2" uni0671 dx=60 dy=0 dh=60 dv=0 dx=0 dy=0 dh=0 dv=0
PairPos2: "'kern' Horizontal Kerning in Arabic lookup 2 per glyph data 2" afii57410 dx=60 dy=0 dh=60 dv=0 dx=0 dy=0 dh=0 dv=0
PairPos2: "'kern' Horizontal Kerning in Arabic lookup 2 per glyph data 2" afii57411 dx=60 dy=0 dh=60 dv=0 dx=0 dy=0 dh=0 dv=0
PairPos2: "'kern' Horizontal Kerning in Arabic lookup 2 per glyph data 2" uniFE8E.short dx=60 dy=0 dh=60 dv=0 dx=0 dy=0 dh=0 dv=0
PairPos2: "'kern' Horizontal Kerning in Arabic lookup 2 per glyph data 2" afii57415.short dx=60 dy=0 dh=60 dv=0 dx=0 dy=0 dh=0 dv=0
PairPos2: "'kern' Horizontal Kerning in Arabic lookup 2 per glyph data 2" afii57415 dx=60 dy=0 dh=60 dv=0 dx=0 dy=0 dh=0 dv=0
PairPos2: "'kern' Horizontal Kerning in Arabic lookup 2 per glyph data 1" uniFEF3 dx=40 dy=0 dh=40 dv=0 dx=0 dy=0 dh=0 dv=0
PairPos2: "'kern' Horizontal Kerning in Arabic lookup 2 per glyph data 1" uniFB58 dx=40 dy=0 dh=40 dv=0 dx=0 dy=0 dh=0 dv=0
PairPos2: "'kern' Horizontal Kerning in Arabic lookup 2 per glyph data 1" afii57413 dx=40 dy=0 dh=40 dv=0 dx=0 dy=0 dh=0 dv=0
PairPos2: "'kern' Horizontal Kerning in Arabic lookup 2 per glyph data 1" uniFB94 dx=110 dy=0 dh=110 dv=0 dx=0 dy=0 dh=0 dv=0
PairPos2: "'kern' Horizontal Kerning in Arabic lookup 2 per glyph data 1" afii57509 dx=110 dy=0 dh=110 dv=0 dx=0 dy=0 dh=0 dv=0
PairPos2: "'kern' Horizontal Kerning in Arabic lookup 2 per glyph data 1" uniFB90 dx=110 dy=0 dh=110 dv=0 dx=0 dy=0 dh=0 dv=0
PairPos2: "'kern' Horizontal Kerning in Arabic lookup 2 per glyph data 1" uni06A9 dx=110 dy=0 dh=110 dv=0 dx=0 dy=0 dh=0 dv=0
PairPos2: "'kern' Horizontal Kerning in Arabic lookup 2 per glyph data 1" uniFEDB dx=110 dy=0 dh=110 dv=0 dx=0 dy=0 dh=0 dv=0
EndChar

StartChar: J
Encoding: 44 74 13
Width: 449
GlyphClass: 2
Flags: W
AnchorPoint: "Anchor-8" 0 0 basechar 0
AnchorPoint: "Anchor-7" 0 0 basechar 0
AnchorPoint: "Anchor-6" 216 648 basechar 0
AnchorPoint: "Anchor-5" 0 0 basechar 0
AnchorPoint: "Anchor-4" 216 0 basechar 0
LayerCount: 2
Fore
SplineSet
0 46 m 1,1,-1
 48 115 l 1,2,3
 77 93 77 93 106.5 81.5 c 128,-1,4
 136 70 136 70 173 70 c 0,5,6
 227 70 227 70 255 103 c 128,-1,7
 283 136 283 136 283 195 c 2,8,-1
 283 648 l 1,9,-1
 375 648 l 1,10,-1
 375 192 l 2,11,12
 375 119 375 119 348.5 73.5 c 128,-1,13
 322 28 322 28 277.5 8 c 128,-1,14
 233 -12 233 -12 178 -12 c 0,15,0
 75 -12 75 -12 0 46 c 1,1,-1
EndSplineSet
PairPos2: "'kern' Horizontal Kerning in Arabic lookup 2 per glyph data 2" uni0671 dx=60 dy=0 dh=60 dv=0 dx=0 dy=0 dh=0 dv=0
PairPos2: "'kern' Horizontal Kerning in Arabic lookup 2 per glyph data 2" afii57410 dx=60 dy=0 dh=60 dv=0 dx=0 dy=0 dh=0 dv=0
PairPos2: "'kern' Horizontal Kerning in Arabic lookup 2 per glyph data 2" afii57411 dx=60 dy=0 dh=60 dv=0 dx=0 dy=0 dh=0 dv=0
PairPos2: "'kern' Horizontal Kerning in Arabic lookup 2 per glyph data 2" uniFE8E.short dx=60 dy=0 dh=60 dv=0 dx=0 dy=0 dh=0 dv=0
PairPos2: "'kern' Horizontal Kerning in Arabic lookup 2 per glyph data 2" afii57415.short dx=60 dy=0 dh=60 dv=0 dx=0 dy=0 dh=0 dv=0
PairPos2: "'kern' Horizontal Kerning in Arabic lookup 2 per glyph data 2" afii57415 dx=60 dy=0 dh=60 dv=0 dx=0 dy=0 dh=0 dv=0
PairPos2: "'kern' Horizontal Kerning in Arabic lookup 2 per glyph data 1" uniFEF3 dx=40 dy=0 dh=40 dv=0 dx=0 dy=0 dh=0 dv=0
PairPos2: "'kern' Horizontal Kerning in Arabic lookup 2 per glyph data 1" uniFB58 dx=40 dy=0 dh=40 dv=0 dx=0 dy=0 dh=0 dv=0
PairPos2: "'kern' Horizontal Kerning in Arabic lookup 2 per glyph data 1" afii57413 dx=40 dy=0 dh=40 dv=0 dx=0 dy=0 dh=0 dv=0
PairPos2: "'kern' Horizontal Kerning in Arabic lookup 2 per glyph data 1" uniFB94 dx=110 dy=0 dh=110 dv=0 dx=0 dy=0 dh=0 dv=0
PairPos2: "'kern' Horizontal Kerning in Arabic lookup 2 per glyph data 1" afii57509 dx=110 dy=0 dh=110 dv=0 dx=0 dy=0 dh=0 dv=0
PairPos2: "'kern' Horizontal Kerning in Arabic lookup 2 per glyph data 1" uniFB90 dx=110 dy=0 dh=110 dv=0 dx=0 dy=0 dh=0 dv=0
PairPos2: "'kern' Horizontal Kerning in Arabic lookup 2 per glyph data 1" uni06A9 dx=110 dy=0 dh=110 dv=0 dx=0 dy=0 dh=0 dv=0
PairPos2: "'kern' Horizontal Kerning in Arabic lookup 2 per glyph data 1" uniFEDB dx=110 dy=0 dh=110 dv=0 dx=0 dy=0 dh=0 dv=0
EndChar

StartChar: K
Encoding: 45 75 14
Width: 592
GlyphClass: 2
Flags: W
AnchorPoint: "Anchor-8" 0 0 basechar 0
AnchorPoint: "Anchor-7" 0 0 basechar 0
AnchorPoint: "Anchor-6" 296 648 basechar 0
AnchorPoint: "Anchor-5" 195 10 basechar 0
AnchorPoint: "Anchor-4" 296 0 basechar 0
LayerCount: 2
Fore
SplineSet
282 337 m 1,0,-1
 582 6 l 1,1,-1
 582 0 l 1,2,-1
 471 0 l 1,3,-1
 174 331 l 1,4,-1
 174 0 l 1,5,-1
 82 0 l 1,6,-1
 82 648 l 1,7,-1
 174 648 l 1,8,-1
 174 339 l 1,9,-1
 465 648 l 1,10,-1
 570 648 l 1,11,-1
 570 642 l 1,12,-1
 282 337 l 1,0,-1
EndSplineSet
PairPos2: "'kern' Horizontal Kerning in Arabic lookup 2 per glyph data 2" uni0671 dx=60 dy=0 dh=60 dv=0 dx=0 dy=0 dh=0 dv=0
PairPos2: "'kern' Horizontal Kerning in Arabic lookup 2 per glyph data 2" afii57410 dx=60 dy=0 dh=60 dv=0 dx=0 dy=0 dh=0 dv=0
PairPos2: "'kern' Horizontal Kerning in Arabic lookup 2 per glyph data 2" afii57411 dx=60 dy=0 dh=60 dv=0 dx=0 dy=0 dh=0 dv=0
PairPos2: "'kern' Horizontal Kerning in Arabic lookup 2 per glyph data 2" uniFE8E.short dx=60 dy=0 dh=60 dv=0 dx=0 dy=0 dh=0 dv=0
PairPos2: "'kern' Horizontal Kerning in Arabic lookup 2 per glyph data 2" afii57415.short dx=60 dy=0 dh=60 dv=0 dx=0 dy=0 dh=0 dv=0
PairPos2: "'kern' Horizontal Kerning in Arabic lookup 2 per glyph data 2" afii57415 dx=60 dy=0 dh=60 dv=0 dx=0 dy=0 dh=0 dv=0
PairPos2: "'kern' Horizontal Kerning in Arabic lookup 2 per glyph data 1" uniFEF3 dx=40 dy=0 dh=40 dv=0 dx=0 dy=0 dh=0 dv=0
PairPos2: "'kern' Horizontal Kerning in Arabic lookup 2 per glyph data 1" uniFB58 dx=40 dy=0 dh=40 dv=0 dx=0 dy=0 dh=0 dv=0
PairPos2: "'kern' Horizontal Kerning in Arabic lookup 2 per glyph data 1" afii57413 dx=40 dy=0 dh=40 dv=0 dx=0 dy=0 dh=0 dv=0
PairPos2: "'kern' Horizontal Kerning in Arabic lookup 2 per glyph data 1" uniFB94 dx=110 dy=0 dh=110 dv=0 dx=0 dy=0 dh=0 dv=0
PairPos2: "'kern' Horizontal Kerning in Arabic lookup 2 per glyph data 1" afii57509 dx=110 dy=0 dh=110 dv=0 dx=0 dy=0 dh=0 dv=0
PairPos2: "'kern' Horizontal Kerning in Arabic lookup 2 per glyph data 1" uniFB90 dx=110 dy=0 dh=110 dv=0 dx=0 dy=0 dh=0 dv=0
PairPos2: "'kern' Horizontal Kerning in Arabic lookup 2 per glyph data 1" uni06A9 dx=110 dy=0 dh=110 dv=0 dx=0 dy=0 dh=0 dv=0
PairPos2: "'kern' Horizontal Kerning in Arabic lookup 2 per glyph data 1" uniFEDB dx=110 dy=0 dh=110 dv=0 dx=0 dy=0 dh=0 dv=0
EndChar

StartChar: L
Encoding: 46 76 15
Width: 510
GlyphClass: 2
Flags: W
AnchorPoint: "Anchor-8" 194 648 basechar 0
AnchorPoint: "Anchor-7" 271 324 basechar 0
AnchorPoint: "Anchor-6" 129 648 basechar 0
AnchorPoint: "Anchor-5" 195 10 basechar 0
AnchorPoint: "Anchor-4" 271 0 basechar 0
LayerCount: 2
Fore
SplineSet
174 80 m 1,0,-1
 492 80 l 1,1,-1
 492 0 l 1,2,-1
 82 0 l 1,3,-1
 82 648 l 1,4,-1
 174 648 l 1,5,-1
 174 80 l 1,0,-1
EndSplineSet
PairPos2: "'kern' Horizontal Kerning in Arabic lookup 2 per glyph data 2" uni0671 dx=60 dy=0 dh=60 dv=0 dx=0 dy=0 dh=0 dv=0
PairPos2: "'kern' Horizontal Kerning in Arabic lookup 2 per glyph data 2" afii57410 dx=60 dy=0 dh=60 dv=0 dx=0 dy=0 dh=0 dv=0
PairPos2: "'kern' Horizontal Kerning in Arabic lookup 2 per glyph data 2" afii57411 dx=60 dy=0 dh=60 dv=0 dx=0 dy=0 dh=0 dv=0
PairPos2: "'kern' Horizontal Kerning in Arabic lookup 2 per glyph data 2" uniFE8E.short dx=60 dy=0 dh=60 dv=0 dx=0 dy=0 dh=0 dv=0
PairPos2: "'kern' Horizontal Kerning in Arabic lookup 2 per glyph data 2" afii57415.short dx=60 dy=0 dh=60 dv=0 dx=0 dy=0 dh=0 dv=0
PairPos2: "'kern' Horizontal Kerning in Arabic lookup 2 per glyph data 2" afii57415 dx=60 dy=0 dh=60 dv=0 dx=0 dy=0 dh=0 dv=0
PairPos2: "'kern' Horizontal Kerning in Arabic lookup 2 per glyph data 1" uniFEF3 dx=40 dy=0 dh=40 dv=0 dx=0 dy=0 dh=0 dv=0
PairPos2: "'kern' Horizontal Kerning in Arabic lookup 2 per glyph data 1" uniFB58 dx=40 dy=0 dh=40 dv=0 dx=0 dy=0 dh=0 dv=0
PairPos2: "'kern' Horizontal Kerning in Arabic lookup 2 per glyph data 1" afii57413 dx=40 dy=0 dh=40 dv=0 dx=0 dy=0 dh=0 dv=0
PairPos2: "'kern' Horizontal Kerning in Arabic lookup 2 per glyph data 1" uniFB94 dx=110 dy=0 dh=110 dv=0 dx=0 dy=0 dh=0 dv=0
PairPos2: "'kern' Horizontal Kerning in Arabic lookup 2 per glyph data 1" afii57509 dx=110 dy=0 dh=110 dv=0 dx=0 dy=0 dh=0 dv=0
PairPos2: "'kern' Horizontal Kerning in Arabic lookup 2 per glyph data 1" uniFB90 dx=110 dy=0 dh=110 dv=0 dx=0 dy=0 dh=0 dv=0
PairPos2: "'kern' Horizontal Kerning in Arabic lookup 2 per glyph data 1" uni06A9 dx=110 dy=0 dh=110 dv=0 dx=0 dy=0 dh=0 dv=0
PairPos2: "'kern' Horizontal Kerning in Arabic lookup 2 per glyph data 1" uniFEDB dx=110 dy=0 dh=110 dv=0 dx=0 dy=0 dh=0 dv=0
EndChar

StartChar: M
Encoding: 47 77 16
Width: 822
GlyphClass: 2
Flags: W
AnchorPoint: "Anchor-8" 0 0 basechar 0
AnchorPoint: "Anchor-7" 0 0 basechar 0
AnchorPoint: "Anchor-6" 411 648 basechar 0
AnchorPoint: "Anchor-5" 0 0 basechar 0
AnchorPoint: "Anchor-4" 411 0 basechar 0
LayerCount: 2
Fore
SplineSet
740 648 m 1,0,-1
 740 0 l 1,1,-1
 650 0 l 1,2,-1
 650 498 l 1,3,4
 635 455 635 455 611 408 c 2,5,-1
 455 105 l 1,6,-1
 366 105 l 1,7,-1
 213 408 l 2,8,9
 200 433 200 433 188.5 456.5 c 128,-1,10
 177 480 177 480 170 497 c 1,11,-1
 170 0 l 1,12,-1
 82 0 l 1,13,-1
 82 648 l 1,14,-1
 187 648 l 1,15,-1
 333 362 l 2,16,17
 392 246 392 246 412 187 c 1,18,19
 423 221 423 221 442.5 264 c 128,-1,20
 462 307 462 307 491 362 c 2,21,-1
 638 648 l 1,22,-1
 740 648 l 1,0,-1
EndSplineSet
PairPos2: "'kern' Horizontal Kerning in Arabic lookup 2 per glyph data 2" uni0671 dx=60 dy=0 dh=60 dv=0 dx=0 dy=0 dh=0 dv=0
PairPos2: "'kern' Horizontal Kerning in Arabic lookup 2 per glyph data 2" afii57410 dx=60 dy=0 dh=60 dv=0 dx=0 dy=0 dh=0 dv=0
PairPos2: "'kern' Horizontal Kerning in Arabic lookup 2 per glyph data 2" afii57411 dx=60 dy=0 dh=60 dv=0 dx=0 dy=0 dh=0 dv=0
PairPos2: "'kern' Horizontal Kerning in Arabic lookup 2 per glyph data 2" uniFE8E.short dx=60 dy=0 dh=60 dv=0 dx=0 dy=0 dh=0 dv=0
PairPos2: "'kern' Horizontal Kerning in Arabic lookup 2 per glyph data 2" afii57415.short dx=60 dy=0 dh=60 dv=0 dx=0 dy=0 dh=0 dv=0
PairPos2: "'kern' Horizontal Kerning in Arabic lookup 2 per glyph data 2" afii57415 dx=60 dy=0 dh=60 dv=0 dx=0 dy=0 dh=0 dv=0
PairPos2: "'kern' Horizontal Kerning in Arabic lookup 2 per glyph data 1" uniFEF3 dx=40 dy=0 dh=40 dv=0 dx=0 dy=0 dh=0 dv=0
PairPos2: "'kern' Horizontal Kerning in Arabic lookup 2 per glyph data 1" uniFB58 dx=40 dy=0 dh=40 dv=0 dx=0 dy=0 dh=0 dv=0
PairPos2: "'kern' Horizontal Kerning in Arabic lookup 2 per glyph data 1" afii57413 dx=40 dy=0 dh=40 dv=0 dx=0 dy=0 dh=0 dv=0
PairPos2: "'kern' Horizontal Kerning in Arabic lookup 2 per glyph data 1" uniFB94 dx=110 dy=0 dh=110 dv=0 dx=0 dy=0 dh=0 dv=0
PairPos2: "'kern' Horizontal Kerning in Arabic lookup 2 per glyph data 1" afii57509 dx=110 dy=0 dh=110 dv=0 dx=0 dy=0 dh=0 dv=0
PairPos2: "'kern' Horizontal Kerning in Arabic lookup 2 per glyph data 1" uniFB90 dx=110 dy=0 dh=110 dv=0 dx=0 dy=0 dh=0 dv=0
PairPos2: "'kern' Horizontal Kerning in Arabic lookup 2 per glyph data 1" uni06A9 dx=110 dy=0 dh=110 dv=0 dx=0 dy=0 dh=0 dv=0
PairPos2: "'kern' Horizontal Kerning in Arabic lookup 2 per glyph data 1" uniFEDB dx=110 dy=0 dh=110 dv=0 dx=0 dy=0 dh=0 dv=0
EndChar

StartChar: N
Encoding: 48 78 17
Width: 696
GlyphClass: 2
Flags: W
AnchorPoint: "Anchor-8" 0 0 basechar 0
AnchorPoint: "Anchor-7" 0 0 basechar 0
AnchorPoint: "Anchor-6" 348 648 basechar 0
AnchorPoint: "Anchor-5" 0 0 basechar 0
AnchorPoint: "Anchor-4" 348 0 basechar 0
LayerCount: 2
Fore
SplineSet
614 648 m 1,0,-1
 614 0 l 1,1,-1
 512 0 l 1,2,-1
 227 420 l 1,3,-1
 214 439 l 2,4,5
 212 443 212 443 201.5 458 c 128,-1,6
 191 473 191 473 183.5 486 c 128,-1,7
 176 499 176 499 170 512 c 1,8,-1
 170 0 l 1,9,-1
 82 0 l 1,10,-1
 82 648 l 1,11,-1
 179 648 l 1,12,-1
 472 219 l 2,13,14
 476 213 476 213 489 194.5 c 128,-1,15
 502 176 502 176 511 160.5 c 128,-1,16
 520 145 520 145 526 131 c 1,17,-1
 526 648 l 1,18,-1
 614 648 l 1,0,-1
EndSplineSet
PairPos2: "'kern' Horizontal Kerning in Arabic lookup 2 per glyph data 2" uni0671 dx=60 dy=0 dh=60 dv=0 dx=0 dy=0 dh=0 dv=0
PairPos2: "'kern' Horizontal Kerning in Arabic lookup 2 per glyph data 2" afii57410 dx=60 dy=0 dh=60 dv=0 dx=0 dy=0 dh=0 dv=0
PairPos2: "'kern' Horizontal Kerning in Arabic lookup 2 per glyph data 2" afii57411 dx=60 dy=0 dh=60 dv=0 dx=0 dy=0 dh=0 dv=0
PairPos2: "'kern' Horizontal Kerning in Arabic lookup 2 per glyph data 2" uniFE8E.short dx=60 dy=0 dh=60 dv=0 dx=0 dy=0 dh=0 dv=0
PairPos2: "'kern' Horizontal Kerning in Arabic lookup 2 per glyph data 2" afii57415.short dx=60 dy=0 dh=60 dv=0 dx=0 dy=0 dh=0 dv=0
PairPos2: "'kern' Horizontal Kerning in Arabic lookup 2 per glyph data 2" afii57415 dx=60 dy=0 dh=60 dv=0 dx=0 dy=0 dh=0 dv=0
PairPos2: "'kern' Horizontal Kerning in Arabic lookup 2 per glyph data 1" uniFEF3 dx=40 dy=0 dh=40 dv=0 dx=0 dy=0 dh=0 dv=0
PairPos2: "'kern' Horizontal Kerning in Arabic lookup 2 per glyph data 1" uniFB58 dx=40 dy=0 dh=40 dv=0 dx=0 dy=0 dh=0 dv=0
PairPos2: "'kern' Horizontal Kerning in Arabic lookup 2 per glyph data 1" afii57413 dx=40 dy=0 dh=40 dv=0 dx=0 dy=0 dh=0 dv=0
PairPos2: "'kern' Horizontal Kerning in Arabic lookup 2 per glyph data 1" uniFB94 dx=110 dy=0 dh=110 dv=0 dx=0 dy=0 dh=0 dv=0
PairPos2: "'kern' Horizontal Kerning in Arabic lookup 2 per glyph data 1" afii57509 dx=110 dy=0 dh=110 dv=0 dx=0 dy=0 dh=0 dv=0
PairPos2: "'kern' Horizontal Kerning in Arabic lookup 2 per glyph data 1" uniFB90 dx=110 dy=0 dh=110 dv=0 dx=0 dy=0 dh=0 dv=0
PairPos2: "'kern' Horizontal Kerning in Arabic lookup 2 per glyph data 1" uni06A9 dx=110 dy=0 dh=110 dv=0 dx=0 dy=0 dh=0 dv=0
PairPos2: "'kern' Horizontal Kerning in Arabic lookup 2 per glyph data 1" uniFEDB dx=110 dy=0 dh=110 dv=0 dx=0 dy=0 dh=0 dv=0
EndChar

StartChar: O
Encoding: 49 79 18
Width: 701
GlyphClass: 2
Flags: W
AnchorPoint: "Anchor-8" 676 648 basechar 0
AnchorPoint: "Anchor-7" 351 324 basechar 0
AnchorPoint: "Anchor-6" 351 648 basechar 0
AnchorPoint: "Anchor-5" 627 10 basechar 0
AnchorPoint: "Anchor-4" 351 0 basechar 0
LayerCount: 2
Fore
SplineSet
182 30.5 m 128,-1,1
 114 73 114 73 79.5 149 c 128,-1,2
 45 225 45 225 45 326 c 0,3,4
 45 438 45 438 87 513 c 128,-1,5
 129 588 129 588 199 624 c 128,-1,6
 269 660 269 660 354 660 c 0,7,8
 451 660 451 660 519 617.5 c 128,-1,9
 587 575 587 575 621.5 499 c 128,-1,10
 656 423 656 423 656 322 c 0,11,12
 656 210 656 210 614 135 c 128,-1,13
 572 60 572 60 502 24 c 128,-1,14
 432 -12 432 -12 347 -12 c 0,15,0
 250 -12 250 -12 182 30.5 c 128,-1,1
465.5 98.5 m 128,-1,17
 513 131 513 131 536.5 188 c 128,-1,18
 560 245 560 245 560 321 c 0,19,20
 560 399 560 399 537.5 457.5 c 128,-1,21
 515 516 515 516 469 549 c 128,-1,22
 423 582 423 582 354 582 c 0,23,24
 283 582 283 582 235.5 549.5 c 128,-1,25
 188 517 188 517 164.5 460 c 128,-1,26
 141 403 141 403 141 327 c 0,27,28
 141 249 141 249 163.5 190.5 c 128,-1,29
 186 132 186 132 232 99 c 128,-1,30
 278 66 278 66 347 66 c 0,31,16
 418 66 418 66 465.5 98.5 c 128,-1,17
EndSplineSet
Substitution2: "Single Substitution lookup 23 subtable" ordmasculine
Substitution2: "'aalt' Access All Alternates in Arabic lookup 0 subtable" ordmasculine
PairPos2: "'kern' Horizontal Kerning in Arabic lookup 2 per glyph data 2" uni0671 dx=60 dy=0 dh=60 dv=0 dx=0 dy=0 dh=0 dv=0
PairPos2: "'kern' Horizontal Kerning in Arabic lookup 2 per glyph data 2" afii57410 dx=60 dy=0 dh=60 dv=0 dx=0 dy=0 dh=0 dv=0
PairPos2: "'kern' Horizontal Kerning in Arabic lookup 2 per glyph data 2" afii57411 dx=60 dy=0 dh=60 dv=0 dx=0 dy=0 dh=0 dv=0
PairPos2: "'kern' Horizontal Kerning in Arabic lookup 2 per glyph data 2" uniFE8E.short dx=60 dy=0 dh=60 dv=0 dx=0 dy=0 dh=0 dv=0
PairPos2: "'kern' Horizontal Kerning in Arabic lookup 2 per glyph data 2" afii57415.short dx=60 dy=0 dh=60 dv=0 dx=0 dy=0 dh=0 dv=0
PairPos2: "'kern' Horizontal Kerning in Arabic lookup 2 per glyph data 2" afii57415 dx=60 dy=0 dh=60 dv=0 dx=0 dy=0 dh=0 dv=0
PairPos2: "'kern' Horizontal Kerning in Arabic lookup 2 per glyph data 1" uniFEF3 dx=40 dy=0 dh=40 dv=0 dx=0 dy=0 dh=0 dv=0
PairPos2: "'kern' Horizontal Kerning in Arabic lookup 2 per glyph data 1" uniFB58 dx=40 dy=0 dh=40 dv=0 dx=0 dy=0 dh=0 dv=0
PairPos2: "'kern' Horizontal Kerning in Arabic lookup 2 per glyph data 1" afii57413 dx=40 dy=0 dh=40 dv=0 dx=0 dy=0 dh=0 dv=0
PairPos2: "'kern' Horizontal Kerning in Arabic lookup 2 per glyph data 1" uniFB94 dx=110 dy=0 dh=110 dv=0 dx=0 dy=0 dh=0 dv=0
PairPos2: "'kern' Horizontal Kerning in Arabic lookup 2 per glyph data 1" afii57509 dx=110 dy=0 dh=110 dv=0 dx=0 dy=0 dh=0 dv=0
PairPos2: "'kern' Horizontal Kerning in Arabic lookup 2 per glyph data 1" uniFB90 dx=110 dy=0 dh=110 dv=0 dx=0 dy=0 dh=0 dv=0
PairPos2: "'kern' Horizontal Kerning in Arabic lookup 2 per glyph data 1" uni06A9 dx=110 dy=0 dh=110 dv=0 dx=0 dy=0 dh=0 dv=0
PairPos2: "'kern' Horizontal Kerning in Arabic lookup 2 per glyph data 1" uniFEDB dx=110 dy=0 dh=110 dv=0 dx=0 dy=0 dh=0 dv=0
EndChar

StartChar: P
Encoding: 50 80 19
Width: 564
GlyphClass: 2
Flags: W
AnchorPoint: "Anchor-8" 0 0 basechar 0
AnchorPoint: "Anchor-7" 0 0 basechar 0
AnchorPoint: "Anchor-6" 276 648 basechar 0
AnchorPoint: "Anchor-5" 195 10 basechar 0
AnchorPoint: "Anchor-4" 276 0 basechar 0
LayerCount: 2
Fore
SplineSet
429 623.5 m 128,-1,1
 483 599 483 599 510 554.5 c 128,-1,2
 537 510 537 510 537 451 c 256,3,4
 537 392 537 392 509.5 344 c 128,-1,5
 482 296 482 296 426.5 267.5 c 128,-1,6
 371 239 371 239 290 239 c 2,7,-1
 174 239 l 1,8,-1
 174 0 l 1,9,-1
 82 0 l 1,10,-1
 82 648 l 1,11,-1
 298 648 l 2,12,0
 375 648 375 648 429 623.5 c 128,-1,1
401.5 351 m 128,-1,14
 441 385 441 385 441 447 c 0,15,16
 441 507 441 507 404.5 538.5 c 128,-1,17
 368 570 368 570 296 570 c 2,18,-1
 174 570 l 1,19,-1
 174 317 l 1,20,-1
 283 317 l 2,21,13
 362 317 362 317 401.5 351 c 128,-1,14
EndSplineSet
PairPos2: "'kern' Horizontal Kerning in Arabic lookup 2 per glyph data 2" uni0671 dx=60 dy=0 dh=60 dv=0 dx=0 dy=0 dh=0 dv=0
PairPos2: "'kern' Horizontal Kerning in Arabic lookup 2 per glyph data 2" afii57410 dx=60 dy=0 dh=60 dv=0 dx=0 dy=0 dh=0 dv=0
PairPos2: "'kern' Horizontal Kerning in Arabic lookup 2 per glyph data 2" afii57411 dx=60 dy=0 dh=60 dv=0 dx=0 dy=0 dh=0 dv=0
PairPos2: "'kern' Horizontal Kerning in Arabic lookup 2 per glyph data 2" uniFE8E.short dx=60 dy=0 dh=60 dv=0 dx=0 dy=0 dh=0 dv=0
PairPos2: "'kern' Horizontal Kerning in Arabic lookup 2 per glyph data 2" afii57415.short dx=60 dy=0 dh=60 dv=0 dx=0 dy=0 dh=0 dv=0
PairPos2: "'kern' Horizontal Kerning in Arabic lookup 2 per glyph data 2" afii57415 dx=60 dy=0 dh=60 dv=0 dx=0 dy=0 dh=0 dv=0
PairPos2: "'kern' Horizontal Kerning in Arabic lookup 2 per glyph data 1" uniFEF3 dx=40 dy=0 dh=40 dv=0 dx=0 dy=0 dh=0 dv=0
PairPos2: "'kern' Horizontal Kerning in Arabic lookup 2 per glyph data 1" uniFB58 dx=40 dy=0 dh=40 dv=0 dx=0 dy=0 dh=0 dv=0
PairPos2: "'kern' Horizontal Kerning in Arabic lookup 2 per glyph data 1" afii57413 dx=40 dy=0 dh=40 dv=0 dx=0 dy=0 dh=0 dv=0
PairPos2: "'kern' Horizontal Kerning in Arabic lookup 2 per glyph data 1" uniFB94 dx=110 dy=0 dh=110 dv=0 dx=0 dy=0 dh=0 dv=0
PairPos2: "'kern' Horizontal Kerning in Arabic lookup 2 per glyph data 1" afii57509 dx=110 dy=0 dh=110 dv=0 dx=0 dy=0 dh=0 dv=0
PairPos2: "'kern' Horizontal Kerning in Arabic lookup 2 per glyph data 1" uniFB90 dx=110 dy=0 dh=110 dv=0 dx=0 dy=0 dh=0 dv=0
PairPos2: "'kern' Horizontal Kerning in Arabic lookup 2 per glyph data 1" uni06A9 dx=110 dy=0 dh=110 dv=0 dx=0 dy=0 dh=0 dv=0
PairPos2: "'kern' Horizontal Kerning in Arabic lookup 2 per glyph data 1" uniFEDB dx=110 dy=0 dh=110 dv=0 dx=0 dy=0 dh=0 dv=0
EndChar

StartChar: Q
Encoding: 51 81 20
Width: 701
GlyphClass: 2
Flags: W
AnchorPoint: "Anchor-8" 676 648 basechar 0
AnchorPoint: "Anchor-7" 351 324 basechar 0
AnchorPoint: "Anchor-6" 361 648 basechar 0
AnchorPoint: "Anchor-5" 489 10 basechar 0
AnchorPoint: "Anchor-4" 361 0 basechar 0
LayerCount: 2
Fore
SplineSet
629 -143 m 1,0,-1
 402 -8 l 1,1,2
 378 -12 378 -12 347 -12 c 0,3,4
 250 -12 250 -12 182 30.5 c 128,-1,5
 114 73 114 73 79.5 149 c 128,-1,6
 45 225 45 225 45 326 c 0,7,8
 45 438 45 438 87 513 c 128,-1,9
 129 588 129 588 199 624 c 128,-1,10
 269 660 269 660 354 660 c 0,11,12
 451 660 451 660 519 617.5 c 128,-1,13
 587 575 587 575 621.5 499 c 128,-1,14
 656 423 656 423 656 322 c 0,15,16
 656 212 656 212 612 136 c 128,-1,17
 568 60 568 60 494 22 c 1,18,-1
 678 -69 l 1,19,-1
 629 -143 l 1,0,-1
163.5 190.5 m 128,-1,21
 186 132 186 132 232 99 c 128,-1,22
 278 66 278 66 347 66 c 0,23,24
 418 66 418 66 465.5 98.5 c 128,-1,25
 513 131 513 131 536.5 188 c 128,-1,26
 560 245 560 245 560 321 c 0,27,28
 560 399 560 399 537.5 457.5 c 128,-1,29
 515 516 515 516 469 549 c 128,-1,30
 423 582 423 582 354 582 c 0,31,32
 283 582 283 582 235.5 549.5 c 128,-1,33
 188 517 188 517 164.5 460 c 128,-1,34
 141 403 141 403 141 327 c 0,35,20
 141 249 141 249 163.5 190.5 c 128,-1,21
EndSplineSet
PairPos2: "'kern' Horizontal Kerning in Arabic lookup 2 per glyph data 2" uni0671 dx=60 dy=0 dh=60 dv=0 dx=0 dy=0 dh=0 dv=0
PairPos2: "'kern' Horizontal Kerning in Arabic lookup 2 per glyph data 2" afii57410 dx=60 dy=0 dh=60 dv=0 dx=0 dy=0 dh=0 dv=0
PairPos2: "'kern' Horizontal Kerning in Arabic lookup 2 per glyph data 2" afii57411 dx=60 dy=0 dh=60 dv=0 dx=0 dy=0 dh=0 dv=0
PairPos2: "'kern' Horizontal Kerning in Arabic lookup 2 per glyph data 2" uniFE8E.short dx=60 dy=0 dh=60 dv=0 dx=0 dy=0 dh=0 dv=0
PairPos2: "'kern' Horizontal Kerning in Arabic lookup 2 per glyph data 2" afii57415.short dx=60 dy=0 dh=60 dv=0 dx=0 dy=0 dh=0 dv=0
PairPos2: "'kern' Horizontal Kerning in Arabic lookup 2 per glyph data 2" afii57415 dx=60 dy=0 dh=60 dv=0 dx=0 dy=0 dh=0 dv=0
PairPos2: "'kern' Horizontal Kerning in Arabic lookup 2 per glyph data 1" uniFEF3 dx=40 dy=0 dh=40 dv=0 dx=0 dy=0 dh=0 dv=0
PairPos2: "'kern' Horizontal Kerning in Arabic lookup 2 per glyph data 1" uniFB58 dx=40 dy=0 dh=40 dv=0 dx=0 dy=0 dh=0 dv=0
PairPos2: "'kern' Horizontal Kerning in Arabic lookup 2 per glyph data 1" afii57413 dx=40 dy=0 dh=40 dv=0 dx=0 dy=0 dh=0 dv=0
PairPos2: "'kern' Horizontal Kerning in Arabic lookup 2 per glyph data 1" uniFB94 dx=110 dy=0 dh=110 dv=0 dx=0 dy=0 dh=0 dv=0
PairPos2: "'kern' Horizontal Kerning in Arabic lookup 2 per glyph data 1" afii57509 dx=110 dy=0 dh=110 dv=0 dx=0 dy=0 dh=0 dv=0
PairPos2: "'kern' Horizontal Kerning in Arabic lookup 2 per glyph data 1" uniFB90 dx=110 dy=0 dh=110 dv=0 dx=0 dy=0 dh=0 dv=0
PairPos2: "'kern' Horizontal Kerning in Arabic lookup 2 per glyph data 1" uni06A9 dx=110 dy=0 dh=110 dv=0 dx=0 dy=0 dh=0 dv=0
PairPos2: "'kern' Horizontal Kerning in Arabic lookup 2 per glyph data 1" uniFEDB dx=110 dy=0 dh=110 dv=0 dx=0 dy=0 dh=0 dv=0
EndChar

StartChar: R
Encoding: 52 82 21
Width: 581
GlyphClass: 2
Flags: W
AnchorPoint: "Anchor-8" 0 0 basechar 0
AnchorPoint: "Anchor-7" 0 0 basechar 0
AnchorPoint: "Anchor-6" 286 648 basechar 0
AnchorPoint: "Anchor-5" 195 10 basechar 0
AnchorPoint: "Anchor-4" 298 0 basechar 0
LayerCount: 2
Fore
SplineSet
563 6 m 1,0,-1
 563 0 l 1,1,-1
 457 0 l 1,2,-1
 270 253 l 1,3,-1
 174 253 l 1,4,-1
 174 0 l 1,5,-1
 82 0 l 1,6,-1
 82 648 l 1,7,-1
 293 648 l 2,8,9
 369 648 369 648 421.5 624 c 128,-1,10
 474 600 474 600 500.5 557 c 128,-1,11
 527 514 527 514 527 457 c 0,12,13
 527 411 527 411 509.5 372 c 128,-1,14
 492 333 492 333 457 304.5 c 128,-1,15
 422 276 422 276 370 263 c 1,16,-1
 563 6 l 1,0,-1
174 329 m 1,17,-1
 279 329 l 2,18,19
 354 329 354 329 392.5 361.5 c 128,-1,20
 431 394 431 394 431 453 c 0,21,22
 431 510 431 510 395.5 540 c 128,-1,23
 360 570 360 570 291 570 c 2,24,-1
 174 570 l 1,25,-1
 174 329 l 1,17,-1
EndSplineSet
PairPos2: "'kern' Horizontal Kerning in Arabic lookup 2 per glyph data 2" uni0671 dx=60 dy=0 dh=60 dv=0 dx=0 dy=0 dh=0 dv=0
PairPos2: "'kern' Horizontal Kerning in Arabic lookup 2 per glyph data 2" afii57410 dx=60 dy=0 dh=60 dv=0 dx=0 dy=0 dh=0 dv=0
PairPos2: "'kern' Horizontal Kerning in Arabic lookup 2 per glyph data 2" afii57411 dx=60 dy=0 dh=60 dv=0 dx=0 dy=0 dh=0 dv=0
PairPos2: "'kern' Horizontal Kerning in Arabic lookup 2 per glyph data 2" uniFE8E.short dx=60 dy=0 dh=60 dv=0 dx=0 dy=0 dh=0 dv=0
PairPos2: "'kern' Horizontal Kerning in Arabic lookup 2 per glyph data 2" afii57415.short dx=60 dy=0 dh=60 dv=0 dx=0 dy=0 dh=0 dv=0
PairPos2: "'kern' Horizontal Kerning in Arabic lookup 2 per glyph data 2" afii57415 dx=60 dy=0 dh=60 dv=0 dx=0 dy=0 dh=0 dv=0
PairPos2: "'kern' Horizontal Kerning in Arabic lookup 2 per glyph data 1" uniFEF3 dx=40 dy=0 dh=40 dv=0 dx=0 dy=0 dh=0 dv=0
PairPos2: "'kern' Horizontal Kerning in Arabic lookup 2 per glyph data 1" uniFB58 dx=40 dy=0 dh=40 dv=0 dx=0 dy=0 dh=0 dv=0
PairPos2: "'kern' Horizontal Kerning in Arabic lookup 2 per glyph data 1" afii57413 dx=40 dy=0 dh=40 dv=0 dx=0 dy=0 dh=0 dv=0
PairPos2: "'kern' Horizontal Kerning in Arabic lookup 2 per glyph data 1" uniFB94 dx=110 dy=0 dh=110 dv=0 dx=0 dy=0 dh=0 dv=0
PairPos2: "'kern' Horizontal Kerning in Arabic lookup 2 per glyph data 1" afii57509 dx=110 dy=0 dh=110 dv=0 dx=0 dy=0 dh=0 dv=0
PairPos2: "'kern' Horizontal Kerning in Arabic lookup 2 per glyph data 1" uniFB90 dx=110 dy=0 dh=110 dv=0 dx=0 dy=0 dh=0 dv=0
PairPos2: "'kern' Horizontal Kerning in Arabic lookup 2 per glyph data 1" uni06A9 dx=110 dy=0 dh=110 dv=0 dx=0 dy=0 dh=0 dv=0
PairPos2: "'kern' Horizontal Kerning in Arabic lookup 2 per glyph data 1" uniFEDB dx=110 dy=0 dh=110 dv=0 dx=0 dy=0 dh=0 dv=0
EndChar

StartChar: S
Encoding: 53 83 22
Width: 548
GlyphClass: 2
Flags: W
AnchorPoint: "Anchor-8" 0 0 basechar 0
AnchorPoint: "Anchor-7" 0 0 basechar 0
AnchorPoint: "Anchor-6" 276 648 basechar 0
AnchorPoint: "Anchor-5" 0 0 basechar 0
AnchorPoint: "Anchor-4" 267 0 basechar 0
LayerCount: 2
Fore
SplineSet
134 7.5 m 128,-1,1
 75 27 75 27 30 62 c 1,2,-1
 74 128 l 1,3,4
 114 97 114 97 164.5 81.5 c 128,-1,5
 215 66 215 66 260 66 c 0,6,7
 332 66 332 66 369.5 92 c 128,-1,8
 407 118 407 118 407 171 c 0,9,10
 407 202 407 202 393.5 222 c 128,-1,11
 380 242 380 242 349.5 258.5 c 128,-1,12
 319 275 319 275 262 295 c 2,13,-1
 245 301 l 2,14,15
 182 323 182 323 143 344.5 c 128,-1,16
 104 366 104 366 80 401 c 128,-1,17
 56 436 56 436 56 489 c 0,18,19
 56 545 56 545 86.5 583.5 c 128,-1,20
 117 622 117 622 167 641 c 128,-1,21
 217 660 217 660 274 660 c 0,22,23
 334 660 334 660 387.5 645 c 128,-1,24
 441 630 441 630 492 596 c 1,25,-1
 450 530 l 1,26,27
 406 558 406 558 365 570.5 c 128,-1,28
 324 583 324 583 273 583 c 0,29,30
 220 583 220 583 185 561 c 128,-1,31
 150 539 150 539 150 493 c 0,32,33
 150 469 150 469 161.5 451 c 128,-1,34
 173 433 173 433 201.5 417 c 128,-1,35
 230 401 230 401 281 383 c 2,36,-1
 298 377 l 2,37,38
 365 354 365 354 405 333.5 c 128,-1,39
 445 313 445 313 474 274.5 c 128,-1,40
 503 236 503 236 503 175 c 256,41,42
 503 114 503 114 474 72.5 c 128,-1,43
 445 31 445 31 391 9.5 c 128,-1,44
 337 -12 337 -12 263 -12 c 0,45,0
 193 -12 193 -12 134 7.5 c 128,-1,1
EndSplineSet
PairPos2: "'kern' Horizontal Kerning in Arabic lookup 2 per glyph data 2" uni0671 dx=60 dy=0 dh=60 dv=0 dx=0 dy=0 dh=0 dv=0
PairPos2: "'kern' Horizontal Kerning in Arabic lookup 2 per glyph data 2" afii57410 dx=60 dy=0 dh=60 dv=0 dx=0 dy=0 dh=0 dv=0
PairPos2: "'kern' Horizontal Kerning in Arabic lookup 2 per glyph data 2" afii57411 dx=60 dy=0 dh=60 dv=0 dx=0 dy=0 dh=0 dv=0
PairPos2: "'kern' Horizontal Kerning in Arabic lookup 2 per glyph data 2" uniFE8E.short dx=60 dy=0 dh=60 dv=0 dx=0 dy=0 dh=0 dv=0
PairPos2: "'kern' Horizontal Kerning in Arabic lookup 2 per glyph data 2" afii57415.short dx=60 dy=0 dh=60 dv=0 dx=0 dy=0 dh=0 dv=0
PairPos2: "'kern' Horizontal Kerning in Arabic lookup 2 per glyph data 2" afii57415 dx=60 dy=0 dh=60 dv=0 dx=0 dy=0 dh=0 dv=0
PairPos2: "'kern' Horizontal Kerning in Arabic lookup 2 per glyph data 1" uniFEF3 dx=40 dy=0 dh=40 dv=0 dx=0 dy=0 dh=0 dv=0
PairPos2: "'kern' Horizontal Kerning in Arabic lookup 2 per glyph data 1" uniFB58 dx=40 dy=0 dh=40 dv=0 dx=0 dy=0 dh=0 dv=0
PairPos2: "'kern' Horizontal Kerning in Arabic lookup 2 per glyph data 1" afii57413 dx=40 dy=0 dh=40 dv=0 dx=0 dy=0 dh=0 dv=0
PairPos2: "'kern' Horizontal Kerning in Arabic lookup 2 per glyph data 1" uniFB94 dx=110 dy=0 dh=110 dv=0 dx=0 dy=0 dh=0 dv=0
PairPos2: "'kern' Horizontal Kerning in Arabic lookup 2 per glyph data 1" afii57509 dx=110 dy=0 dh=110 dv=0 dx=0 dy=0 dh=0 dv=0
PairPos2: "'kern' Horizontal Kerning in Arabic lookup 2 per glyph data 1" uniFB90 dx=110 dy=0 dh=110 dv=0 dx=0 dy=0 dh=0 dv=0
PairPos2: "'kern' Horizontal Kerning in Arabic lookup 2 per glyph data 1" uni06A9 dx=110 dy=0 dh=110 dv=0 dx=0 dy=0 dh=0 dv=0
PairPos2: "'kern' Horizontal Kerning in Arabic lookup 2 per glyph data 1" uniFEDB dx=110 dy=0 dh=110 dv=0 dx=0 dy=0 dh=0 dv=0
EndChar

StartChar: T
Encoding: 54 84 23
Width: 577
GlyphClass: 2
Flags: W
AnchorPoint: "Anchor-8" 0 0 basechar 0
AnchorPoint: "Anchor-7" 289 364 basechar 0
AnchorPoint: "Anchor-6" 289 648 basechar 0
AnchorPoint: "Anchor-5" 356 10 basechar 0
AnchorPoint: "Anchor-4" 289 0 basechar 0
LayerCount: 2
Fore
SplineSet
559 648 m 1,0,-1
 559 568 l 1,1,-1
 335 568 l 1,2,-1
 335 0 l 1,3,-1
 243 0 l 1,4,-1
 243 568 l 1,5,-1
 18 568 l 1,6,-1
 18 648 l 1,7,-1
 559 648 l 1,0,-1
EndSplineSet
PairPos2: "'kern' Horizontal Kerning in Arabic lookup 2 per glyph data 2" uni0671 dx=60 dy=0 dh=60 dv=0 dx=0 dy=0 dh=0 dv=0
PairPos2: "'kern' Horizontal Kerning in Arabic lookup 2 per glyph data 2" afii57410 dx=60 dy=0 dh=60 dv=0 dx=0 dy=0 dh=0 dv=0
PairPos2: "'kern' Horizontal Kerning in Arabic lookup 2 per glyph data 2" afii57411 dx=60 dy=0 dh=60 dv=0 dx=0 dy=0 dh=0 dv=0
PairPos2: "'kern' Horizontal Kerning in Arabic lookup 2 per glyph data 2" uniFE8E.short dx=60 dy=0 dh=60 dv=0 dx=0 dy=0 dh=0 dv=0
PairPos2: "'kern' Horizontal Kerning in Arabic lookup 2 per glyph data 2" afii57415.short dx=60 dy=0 dh=60 dv=0 dx=0 dy=0 dh=0 dv=0
PairPos2: "'kern' Horizontal Kerning in Arabic lookup 2 per glyph data 2" afii57415 dx=60 dy=0 dh=60 dv=0 dx=0 dy=0 dh=0 dv=0
PairPos2: "'kern' Horizontal Kerning in Arabic lookup 2 per glyph data 1" uniFEF3 dx=40 dy=0 dh=40 dv=0 dx=0 dy=0 dh=0 dv=0
PairPos2: "'kern' Horizontal Kerning in Arabic lookup 2 per glyph data 1" uniFB58 dx=40 dy=0 dh=40 dv=0 dx=0 dy=0 dh=0 dv=0
PairPos2: "'kern' Horizontal Kerning in Arabic lookup 2 per glyph data 1" afii57413 dx=40 dy=0 dh=40 dv=0 dx=0 dy=0 dh=0 dv=0
PairPos2: "'kern' Horizontal Kerning in Arabic lookup 2 per glyph data 1" uniFB94 dx=110 dy=0 dh=110 dv=0 dx=0 dy=0 dh=0 dv=0
PairPos2: "'kern' Horizontal Kerning in Arabic lookup 2 per glyph data 1" afii57509 dx=110 dy=0 dh=110 dv=0 dx=0 dy=0 dh=0 dv=0
PairPos2: "'kern' Horizontal Kerning in Arabic lookup 2 per glyph data 1" uniFB90 dx=110 dy=0 dh=110 dv=0 dx=0 dy=0 dh=0 dv=0
PairPos2: "'kern' Horizontal Kerning in Arabic lookup 2 per glyph data 1" uni06A9 dx=110 dy=0 dh=110 dv=0 dx=0 dy=0 dh=0 dv=0
PairPos2: "'kern' Horizontal Kerning in Arabic lookup 2 per glyph data 1" uniFEDB dx=110 dy=0 dh=110 dv=0 dx=0 dy=0 dh=0 dv=0
EndChar

StartChar: U
Encoding: 55 85 24
Width: 674
GlyphClass: 2
Flags: W
AnchorPoint: "Anchor-8" 662 648 basechar 0
AnchorPoint: "Anchor-7" 0 0 basechar 0
AnchorPoint: "Anchor-6" 337 648 basechar 0
AnchorPoint: "Anchor-5" 473 10 basechar 0
AnchorPoint: "Anchor-4" 337 0 basechar 0
LayerCount: 2
Fore
SplineSet
184 23 m 128,-1,1
 124 58 124 58 95 119.5 c 128,-1,2
 66 181 66 181 66 259 c 2,3,-1
 66 648 l 1,4,-1
 158 648 l 1,5,-1
 158 279 l 2,6,7
 158 68 158 68 340 68 c 0,8,9
 433 68 433 68 474.5 121.5 c 128,-1,10
 516 175 516 175 516 273 c 2,11,-1
 516 648 l 1,12,-1
 608 648 l 1,13,-1
 608 262 l 2,14,15
 608 167 608 167 572 105.5 c 128,-1,16
 536 44 536 44 474.5 16 c 128,-1,17
 413 -12 413 -12 334 -12 c 0,18,0
 244 -12 244 -12 184 23 c 128,-1,1
EndSplineSet
PairPos2: "'kern' Horizontal Kerning in Arabic lookup 2 per glyph data 2" uni0671 dx=60 dy=0 dh=60 dv=0 dx=0 dy=0 dh=0 dv=0
PairPos2: "'kern' Horizontal Kerning in Arabic lookup 2 per glyph data 2" afii57410 dx=60 dy=0 dh=60 dv=0 dx=0 dy=0 dh=0 dv=0
PairPos2: "'kern' Horizontal Kerning in Arabic lookup 2 per glyph data 2" afii57411 dx=60 dy=0 dh=60 dv=0 dx=0 dy=0 dh=0 dv=0
PairPos2: "'kern' Horizontal Kerning in Arabic lookup 2 per glyph data 2" uniFE8E.short dx=60 dy=0 dh=60 dv=0 dx=0 dy=0 dh=0 dv=0
PairPos2: "'kern' Horizontal Kerning in Arabic lookup 2 per glyph data 2" afii57415.short dx=60 dy=0 dh=60 dv=0 dx=0 dy=0 dh=0 dv=0
PairPos2: "'kern' Horizontal Kerning in Arabic lookup 2 per glyph data 2" afii57415 dx=60 dy=0 dh=60 dv=0 dx=0 dy=0 dh=0 dv=0
PairPos2: "'kern' Horizontal Kerning in Arabic lookup 2 per glyph data 1" uniFEF3 dx=40 dy=0 dh=40 dv=0 dx=0 dy=0 dh=0 dv=0
PairPos2: "'kern' Horizontal Kerning in Arabic lookup 2 per glyph data 1" uniFB58 dx=40 dy=0 dh=40 dv=0 dx=0 dy=0 dh=0 dv=0
PairPos2: "'kern' Horizontal Kerning in Arabic lookup 2 per glyph data 1" afii57413 dx=40 dy=0 dh=40 dv=0 dx=0 dy=0 dh=0 dv=0
PairPos2: "'kern' Horizontal Kerning in Arabic lookup 2 per glyph data 1" uniFB94 dx=110 dy=0 dh=110 dv=0 dx=0 dy=0 dh=0 dv=0
PairPos2: "'kern' Horizontal Kerning in Arabic lookup 2 per glyph data 1" afii57509 dx=110 dy=0 dh=110 dv=0 dx=0 dy=0 dh=0 dv=0
PairPos2: "'kern' Horizontal Kerning in Arabic lookup 2 per glyph data 1" uniFB90 dx=110 dy=0 dh=110 dv=0 dx=0 dy=0 dh=0 dv=0
PairPos2: "'kern' Horizontal Kerning in Arabic lookup 2 per glyph data 1" uni06A9 dx=110 dy=0 dh=110 dv=0 dx=0 dy=0 dh=0 dv=0
PairPos2: "'kern' Horizontal Kerning in Arabic lookup 2 per glyph data 1" uniFEDB dx=110 dy=0 dh=110 dv=0 dx=0 dy=0 dh=0 dv=0
EndChar

StartChar: V
Encoding: 56 86 25
Width: 623
GlyphClass: 2
Flags: W
AnchorPoint: "Anchor-8" 0 0 basechar 0
AnchorPoint: "Anchor-7" 0 0 basechar 0
AnchorPoint: "Anchor-6" 312 648 basechar 0
AnchorPoint: "Anchor-5" 0 0 basechar 0
AnchorPoint: "Anchor-4" 312 0 basechar 0
LayerCount: 2
Fore
SplineSet
514 648 m 1,0,-1
 606 648 l 1,1,-1
 606 642 l 1,2,-1
 367 0 l 1,3,-1
 255 0 l 1,4,-1
 17 642 l 1,5,-1
 17 648 l 1,6,-1
 113 648 l 1,7,-1
 314 88 l 1,8,-1
 514 648 l 1,0,-1
EndSplineSet
PairPos2: "'kern' Horizontal Kerning in Arabic lookup 2 per glyph data 2" uni0671 dx=60 dy=0 dh=60 dv=0 dx=0 dy=0 dh=0 dv=0
PairPos2: "'kern' Horizontal Kerning in Arabic lookup 2 per glyph data 2" afii57410 dx=60 dy=0 dh=60 dv=0 dx=0 dy=0 dh=0 dv=0
PairPos2: "'kern' Horizontal Kerning in Arabic lookup 2 per glyph data 2" afii57411 dx=60 dy=0 dh=60 dv=0 dx=0 dy=0 dh=0 dv=0
PairPos2: "'kern' Horizontal Kerning in Arabic lookup 2 per glyph data 2" uniFE8E.short dx=60 dy=0 dh=60 dv=0 dx=0 dy=0 dh=0 dv=0
PairPos2: "'kern' Horizontal Kerning in Arabic lookup 2 per glyph data 2" afii57415.short dx=60 dy=0 dh=60 dv=0 dx=0 dy=0 dh=0 dv=0
PairPos2: "'kern' Horizontal Kerning in Arabic lookup 2 per glyph data 2" afii57415 dx=60 dy=0 dh=60 dv=0 dx=0 dy=0 dh=0 dv=0
PairPos2: "'kern' Horizontal Kerning in Arabic lookup 2 per glyph data 1" uniFEF3 dx=40 dy=0 dh=40 dv=0 dx=0 dy=0 dh=0 dv=0
PairPos2: "'kern' Horizontal Kerning in Arabic lookup 2 per glyph data 1" uniFB58 dx=40 dy=0 dh=40 dv=0 dx=0 dy=0 dh=0 dv=0
PairPos2: "'kern' Horizontal Kerning in Arabic lookup 2 per glyph data 1" afii57413 dx=40 dy=0 dh=40 dv=0 dx=0 dy=0 dh=0 dv=0
PairPos2: "'kern' Horizontal Kerning in Arabic lookup 2 per glyph data 1" uniFB94 dx=110 dy=0 dh=110 dv=0 dx=0 dy=0 dh=0 dv=0
PairPos2: "'kern' Horizontal Kerning in Arabic lookup 2 per glyph data 1" afii57509 dx=110 dy=0 dh=110 dv=0 dx=0 dy=0 dh=0 dv=0
PairPos2: "'kern' Horizontal Kerning in Arabic lookup 2 per glyph data 1" uniFB90 dx=110 dy=0 dh=110 dv=0 dx=0 dy=0 dh=0 dv=0
PairPos2: "'kern' Horizontal Kerning in Arabic lookup 2 per glyph data 1" uni06A9 dx=110 dy=0 dh=110 dv=0 dx=0 dy=0 dh=0 dv=0
PairPos2: "'kern' Horizontal Kerning in Arabic lookup 2 per glyph data 1" uniFEDB dx=110 dy=0 dh=110 dv=0 dx=0 dy=0 dh=0 dv=0
EndChar

StartChar: W
Encoding: 57 87 26
Width: 917
GlyphClass: 2
Flags: W
AnchorPoint: "Anchor-8" 0 0 basechar 0
AnchorPoint: "Anchor-7" 0 0 basechar 0
AnchorPoint: "Anchor-6" 467 648 basechar 0
AnchorPoint: "Anchor-5" 0 0 basechar 0
AnchorPoint: "Anchor-4" 468 0 basechar 0
LayerCount: 2
Fore
SplineSet
895 648 m 1,0,-1
 895 642 l 1,1,-1
 714 0 l 1,2,-1
 604 0 l 1,3,-1
 495 398 l 2,4,5
 473 478 473 478 458 565 c 1,6,7
 451 528 451 528 442 484 c 128,-1,8
 433 440 433 440 422 398 c 2,9,-1
 317 0 l 1,10,-1
 207 0 l 1,11,-1
 22 642 l 1,12,-1
 22 648 l 1,13,-1
 115 648 l 1,14,-1
 227 240 l 2,15,16
 244 179 244 179 264 87 c 1,17,18
 279 183 279 183 295 240 c 2,19,-1
 408 648 l 1,20,-1
 516 648 l 1,21,-1
 631 240 l 2,22,23
 643 197 643 197 665 86 c 1,24,25
 671 122 671 122 681 164 c 128,-1,26
 691 206 691 206 700 240 c 2,27,-1
 805 648 l 1,28,-1
 895 648 l 1,0,-1
EndSplineSet
PairPos2: "'kern' Horizontal Kerning in Arabic lookup 2 per glyph data 2" uni0671 dx=60 dy=0 dh=60 dv=0 dx=0 dy=0 dh=0 dv=0
PairPos2: "'kern' Horizontal Kerning in Arabic lookup 2 per glyph data 2" afii57410 dx=60 dy=0 dh=60 dv=0 dx=0 dy=0 dh=0 dv=0
PairPos2: "'kern' Horizontal Kerning in Arabic lookup 2 per glyph data 2" afii57411 dx=60 dy=0 dh=60 dv=0 dx=0 dy=0 dh=0 dv=0
PairPos2: "'kern' Horizontal Kerning in Arabic lookup 2 per glyph data 2" uniFE8E.short dx=60 dy=0 dh=60 dv=0 dx=0 dy=0 dh=0 dv=0
PairPos2: "'kern' Horizontal Kerning in Arabic lookup 2 per glyph data 2" afii57415.short dx=60 dy=0 dh=60 dv=0 dx=0 dy=0 dh=0 dv=0
PairPos2: "'kern' Horizontal Kerning in Arabic lookup 2 per glyph data 2" afii57415 dx=60 dy=0 dh=60 dv=0 dx=0 dy=0 dh=0 dv=0
PairPos2: "'kern' Horizontal Kerning in Arabic lookup 2 per glyph data 1" uniFEF3 dx=40 dy=0 dh=40 dv=0 dx=0 dy=0 dh=0 dv=0
PairPos2: "'kern' Horizontal Kerning in Arabic lookup 2 per glyph data 1" uniFB58 dx=40 dy=0 dh=40 dv=0 dx=0 dy=0 dh=0 dv=0
PairPos2: "'kern' Horizontal Kerning in Arabic lookup 2 per glyph data 1" afii57413 dx=40 dy=0 dh=40 dv=0 dx=0 dy=0 dh=0 dv=0
PairPos2: "'kern' Horizontal Kerning in Arabic lookup 2 per glyph data 1" uniFB94 dx=110 dy=0 dh=110 dv=0 dx=0 dy=0 dh=0 dv=0
PairPos2: "'kern' Horizontal Kerning in Arabic lookup 2 per glyph data 1" afii57509 dx=110 dy=0 dh=110 dv=0 dx=0 dy=0 dh=0 dv=0
PairPos2: "'kern' Horizontal Kerning in Arabic lookup 2 per glyph data 1" uniFB90 dx=110 dy=0 dh=110 dv=0 dx=0 dy=0 dh=0 dv=0
PairPos2: "'kern' Horizontal Kerning in Arabic lookup 2 per glyph data 1" uni06A9 dx=110 dy=0 dh=110 dv=0 dx=0 dy=0 dh=0 dv=0
PairPos2: "'kern' Horizontal Kerning in Arabic lookup 2 per glyph data 1" uniFEDB dx=110 dy=0 dh=110 dv=0 dx=0 dy=0 dh=0 dv=0
EndChar

StartChar: X
Encoding: 58 88 27
Width: 585
GlyphClass: 2
Flags: W
AnchorPoint: "Anchor-8" 0 0 basechar 0
AnchorPoint: "Anchor-7" 0 0 basechar 0
AnchorPoint: "Anchor-6" 292 648 basechar 0
AnchorPoint: "Anchor-5" 0 0 basechar 0
AnchorPoint: "Anchor-4" 292 0 basechar 0
LayerCount: 2
Fore
SplineSet
347 337 m 1,0,-1
 568 0 l 1,1,-1
 460 0 l 1,2,-1
 290 273 l 1,3,-1
 114 0 l 1,4,-1
 17 0 l 1,5,-1
 235 333 l 1,6,-1
 26 648 l 1,7,-1
 133 648 l 1,8,-1
 294 396 l 1,9,-1
 456 648 l 1,10,-1
 553 648 l 1,11,-1
 347 337 l 1,0,-1
EndSplineSet
PairPos2: "'kern' Horizontal Kerning in Arabic lookup 2 per glyph data 2" uni0671 dx=60 dy=0 dh=60 dv=0 dx=0 dy=0 dh=0 dv=0
PairPos2: "'kern' Horizontal Kerning in Arabic lookup 2 per glyph data 2" afii57410 dx=60 dy=0 dh=60 dv=0 dx=0 dy=0 dh=0 dv=0
PairPos2: "'kern' Horizontal Kerning in Arabic lookup 2 per glyph data 2" afii57411 dx=60 dy=0 dh=60 dv=0 dx=0 dy=0 dh=0 dv=0
PairPos2: "'kern' Horizontal Kerning in Arabic lookup 2 per glyph data 2" uniFE8E.short dx=60 dy=0 dh=60 dv=0 dx=0 dy=0 dh=0 dv=0
PairPos2: "'kern' Horizontal Kerning in Arabic lookup 2 per glyph data 2" afii57415.short dx=60 dy=0 dh=60 dv=0 dx=0 dy=0 dh=0 dv=0
PairPos2: "'kern' Horizontal Kerning in Arabic lookup 2 per glyph data 2" afii57415 dx=60 dy=0 dh=60 dv=0 dx=0 dy=0 dh=0 dv=0
PairPos2: "'kern' Horizontal Kerning in Arabic lookup 2 per glyph data 1" uniFEF3 dx=40 dy=0 dh=40 dv=0 dx=0 dy=0 dh=0 dv=0
PairPos2: "'kern' Horizontal Kerning in Arabic lookup 2 per glyph data 1" uniFB58 dx=40 dy=0 dh=40 dv=0 dx=0 dy=0 dh=0 dv=0
PairPos2: "'kern' Horizontal Kerning in Arabic lookup 2 per glyph data 1" afii57413 dx=40 dy=0 dh=40 dv=0 dx=0 dy=0 dh=0 dv=0
PairPos2: "'kern' Horizontal Kerning in Arabic lookup 2 per glyph data 1" uniFB94 dx=110 dy=0 dh=110 dv=0 dx=0 dy=0 dh=0 dv=0
PairPos2: "'kern' Horizontal Kerning in Arabic lookup 2 per glyph data 1" afii57509 dx=110 dy=0 dh=110 dv=0 dx=0 dy=0 dh=0 dv=0
PairPos2: "'kern' Horizontal Kerning in Arabic lookup 2 per glyph data 1" uniFB90 dx=110 dy=0 dh=110 dv=0 dx=0 dy=0 dh=0 dv=0
PairPos2: "'kern' Horizontal Kerning in Arabic lookup 2 per glyph data 1" uni06A9 dx=110 dy=0 dh=110 dv=0 dx=0 dy=0 dh=0 dv=0
PairPos2: "'kern' Horizontal Kerning in Arabic lookup 2 per glyph data 1" uniFEDB dx=110 dy=0 dh=110 dv=0 dx=0 dy=0 dh=0 dv=0
EndChar

StartChar: Y
Encoding: 59 89 28
Width: 599
GlyphClass: 2
Flags: W
AnchorPoint: "Anchor-8" 0 0 basechar 0
AnchorPoint: "Anchor-7" 0 0 basechar 0
AnchorPoint: "Anchor-6" 300 648 basechar 0
AnchorPoint: "Anchor-5" 0 0 basechar 0
AnchorPoint: "Anchor-4" 300 0 basechar 0
LayerCount: 2
Fore
SplineSet
582 648 m 1,0,-1
 582 642 l 1,1,-1
 342 253 l 1,2,-1
 342 0 l 1,3,-1
 250 0 l 1,4,-1
 250 256 l 1,5,-1
 17 642 l 1,6,-1
 17 648 l 1,7,-1
 118 648 l 1,8,-1
 299 337 l 1,9,-1
 487 648 l 1,10,-1
 582 648 l 1,0,-1
EndSplineSet
PairPos2: "'kern' Horizontal Kerning in Arabic lookup 2 per glyph data 2" uni0671 dx=60 dy=0 dh=60 dv=0 dx=0 dy=0 dh=0 dv=0
PairPos2: "'kern' Horizontal Kerning in Arabic lookup 2 per glyph data 2" afii57410 dx=60 dy=0 dh=60 dv=0 dx=0 dy=0 dh=0 dv=0
PairPos2: "'kern' Horizontal Kerning in Arabic lookup 2 per glyph data 2" afii57411 dx=60 dy=0 dh=60 dv=0 dx=0 dy=0 dh=0 dv=0
PairPos2: "'kern' Horizontal Kerning in Arabic lookup 2 per glyph data 2" uniFE8E.short dx=60 dy=0 dh=60 dv=0 dx=0 dy=0 dh=0 dv=0
PairPos2: "'kern' Horizontal Kerning in Arabic lookup 2 per glyph data 2" afii57415.short dx=60 dy=0 dh=60 dv=0 dx=0 dy=0 dh=0 dv=0
PairPos2: "'kern' Horizontal Kerning in Arabic lookup 2 per glyph data 2" afii57415 dx=60 dy=0 dh=60 dv=0 dx=0 dy=0 dh=0 dv=0
PairPos2: "'kern' Horizontal Kerning in Arabic lookup 2 per glyph data 1" uniFEF3 dx=40 dy=0 dh=40 dv=0 dx=0 dy=0 dh=0 dv=0
PairPos2: "'kern' Horizontal Kerning in Arabic lookup 2 per glyph data 1" uniFB58 dx=40 dy=0 dh=40 dv=0 dx=0 dy=0 dh=0 dv=0
PairPos2: "'kern' Horizontal Kerning in Arabic lookup 2 per glyph data 1" afii57413 dx=40 dy=0 dh=40 dv=0 dx=0 dy=0 dh=0 dv=0
PairPos2: "'kern' Horizontal Kerning in Arabic lookup 2 per glyph data 1" uniFB94 dx=110 dy=0 dh=110 dv=0 dx=0 dy=0 dh=0 dv=0
PairPos2: "'kern' Horizontal Kerning in Arabic lookup 2 per glyph data 1" afii57509 dx=110 dy=0 dh=110 dv=0 dx=0 dy=0 dh=0 dv=0
PairPos2: "'kern' Horizontal Kerning in Arabic lookup 2 per glyph data 1" uniFB90 dx=110 dy=0 dh=110 dv=0 dx=0 dy=0 dh=0 dv=0
PairPos2: "'kern' Horizontal Kerning in Arabic lookup 2 per glyph data 1" uni06A9 dx=110 dy=0 dh=110 dv=0 dx=0 dy=0 dh=0 dv=0
PairPos2: "'kern' Horizontal Kerning in Arabic lookup 2 per glyph data 1" uniFEDB dx=110 dy=0 dh=110 dv=0 dx=0 dy=0 dh=0 dv=0
EndChar

StartChar: Z
Encoding: 60 90 29
Width: 556
GlyphClass: 2
Flags: W
AnchorPoint: "Anchor-8" 0 0 basechar 0
AnchorPoint: "Anchor-7" 0 0 basechar 0
AnchorPoint: "Anchor-6" 278 648 basechar 0
AnchorPoint: "Anchor-5" 0 0 basechar 0
AnchorPoint: "Anchor-4" 278 0 basechar 0
LayerCount: 2
Fore
SplineSet
511 648 m 1,0,-1
 511 603 l 1,1,-1
 158 80 l 1,2,-1
 501 80 l 1,3,-1
 501 0 l 1,4,-1
 35 0 l 1,5,-1
 35 45 l 1,6,-1
 390 568 l 1,7,-1
 56 568 l 1,8,-1
 66 648 l 1,9,-1
 511 648 l 1,0,-1
EndSplineSet
PairPos2: "'kern' Horizontal Kerning in Arabic lookup 2 per glyph data 2" uni0671 dx=60 dy=0 dh=60 dv=0 dx=0 dy=0 dh=0 dv=0
PairPos2: "'kern' Horizontal Kerning in Arabic lookup 2 per glyph data 2" afii57410 dx=60 dy=0 dh=60 dv=0 dx=0 dy=0 dh=0 dv=0
PairPos2: "'kern' Horizontal Kerning in Arabic lookup 2 per glyph data 2" afii57411 dx=60 dy=0 dh=60 dv=0 dx=0 dy=0 dh=0 dv=0
PairPos2: "'kern' Horizontal Kerning in Arabic lookup 2 per glyph data 2" uniFE8E.short dx=60 dy=0 dh=60 dv=0 dx=0 dy=0 dh=0 dv=0
PairPos2: "'kern' Horizontal Kerning in Arabic lookup 2 per glyph data 2" afii57415.short dx=60 dy=0 dh=60 dv=0 dx=0 dy=0 dh=0 dv=0
PairPos2: "'kern' Horizontal Kerning in Arabic lookup 2 per glyph data 2" afii57415 dx=60 dy=0 dh=60 dv=0 dx=0 dy=0 dh=0 dv=0
PairPos2: "'kern' Horizontal Kerning in Arabic lookup 2 per glyph data 1" uniFEF3 dx=40 dy=0 dh=40 dv=0 dx=0 dy=0 dh=0 dv=0
PairPos2: "'kern' Horizontal Kerning in Arabic lookup 2 per glyph data 1" uniFB58 dx=40 dy=0 dh=40 dv=0 dx=0 dy=0 dh=0 dv=0
PairPos2: "'kern' Horizontal Kerning in Arabic lookup 2 per glyph data 1" afii57413 dx=40 dy=0 dh=40 dv=0 dx=0 dy=0 dh=0 dv=0
PairPos2: "'kern' Horizontal Kerning in Arabic lookup 2 per glyph data 1" uniFB94 dx=110 dy=0 dh=110 dv=0 dx=0 dy=0 dh=0 dv=0
PairPos2: "'kern' Horizontal Kerning in Arabic lookup 2 per glyph data 1" afii57509 dx=110 dy=0 dh=110 dv=0 dx=0 dy=0 dh=0 dv=0
PairPos2: "'kern' Horizontal Kerning in Arabic lookup 2 per glyph data 1" uniFB90 dx=110 dy=0 dh=110 dv=0 dx=0 dy=0 dh=0 dv=0
PairPos2: "'kern' Horizontal Kerning in Arabic lookup 2 per glyph data 1" uni06A9 dx=110 dy=0 dh=110 dv=0 dx=0 dy=0 dh=0 dv=0
PairPos2: "'kern' Horizontal Kerning in Arabic lookup 2 per glyph data 1" uniFEDB dx=110 dy=0 dh=110 dv=0 dx=0 dy=0 dh=0 dv=0
EndChar

StartChar: a
Encoding: 67 97 30
Width: 468
GlyphClass: 2
Flags: W
AnchorPoint: "Anchor-8" 0 0 basechar 0
AnchorPoint: "Anchor-7" 0 0 basechar 0
AnchorPoint: "Anchor-6" 229 438 basechar 0
AnchorPoint: "Anchor-5" 433 10 basechar 0
AnchorPoint: "Anchor-4" 235 0 basechar 0
LayerCount: 2
Fore
SplineSet
364.5 415 m 128,-1,1
 403 380 403 380 403 305 c 2,2,-1
 403 0 l 1,3,-1
 325 0 l 1,4,-1
 320 38 l 1,5,6
 251 -12 251 -12 161 -12 c 0,7,8
 123 -12 123 -12 93 2.5 c 128,-1,9
 63 17 63 17 46.5 43.5 c 128,-1,10
 30 70 30 70 30 104 c 0,11,12
 30 159 30 159 69 195.5 c 128,-1,13
 108 232 108 232 173 249 c 128,-1,14
 238 266 238 266 317 268 c 1,15,-1
 317 290 l 2,16,17
 317 335 317 335 299 355.5 c 128,-1,18
 281 376 281 376 238 376 c 0,19,20
 165 376 165 376 86 324 c 1,21,-1
 48 384 l 1,22,23
 144 450 144 450 249 450 c 0,24,0
 326 450 326 450 364.5 415 c 128,-1,1
137.5 74 m 128,-1,26
 153 61 153 61 184 61 c 0,27,28
 252 61 252 61 317 101 c 1,29,-1
 317 205 l 1,30,31
 230 201 230 201 176 178 c 128,-1,32
 122 155 122 155 122 113 c 0,33,25
 122 87 122 87 137.5 74 c 128,-1,26
EndSplineSet
Substitution2: "Single Substitution lookup 23 subtable" ordfeminine
Substitution2: "'aalt' Access All Alternates in Arabic lookup 0 subtable" ordfeminine
PairPos2: "'kern' Horizontal Kerning in Arabic lookup 2 per glyph data 2" uni0671 dx=60 dy=0 dh=60 dv=0 dx=0 dy=0 dh=0 dv=0
PairPos2: "'kern' Horizontal Kerning in Arabic lookup 2 per glyph data 2" afii57410 dx=60 dy=0 dh=60 dv=0 dx=0 dy=0 dh=0 dv=0
PairPos2: "'kern' Horizontal Kerning in Arabic lookup 2 per glyph data 2" afii57411 dx=60 dy=0 dh=60 dv=0 dx=0 dy=0 dh=0 dv=0
PairPos2: "'kern' Horizontal Kerning in Arabic lookup 2 per glyph data 2" uniFE8E.short dx=60 dy=0 dh=60 dv=0 dx=0 dy=0 dh=0 dv=0
PairPos2: "'kern' Horizontal Kerning in Arabic lookup 2 per glyph data 2" afii57415.short dx=60 dy=0 dh=60 dv=0 dx=0 dy=0 dh=0 dv=0
PairPos2: "'kern' Horizontal Kerning in Arabic lookup 2 per glyph data 2" afii57415 dx=60 dy=0 dh=60 dv=0 dx=0 dy=0 dh=0 dv=0
PairPos2: "'kern' Horizontal Kerning in Arabic lookup 2 per glyph data 1" uniFEF3 dx=40 dy=0 dh=40 dv=0 dx=0 dy=0 dh=0 dv=0
PairPos2: "'kern' Horizontal Kerning in Arabic lookup 2 per glyph data 1" uniFB58 dx=40 dy=0 dh=40 dv=0 dx=0 dy=0 dh=0 dv=0
PairPos2: "'kern' Horizontal Kerning in Arabic lookup 2 per glyph data 1" afii57413 dx=40 dy=0 dh=40 dv=0 dx=0 dy=0 dh=0 dv=0
PairPos2: "'kern' Horizontal Kerning in Arabic lookup 2 per glyph data 1" uniFB94 dx=110 dy=0 dh=110 dv=0 dx=0 dy=0 dh=0 dv=0
PairPos2: "'kern' Horizontal Kerning in Arabic lookup 2 per glyph data 1" afii57509 dx=110 dy=0 dh=110 dv=0 dx=0 dy=0 dh=0 dv=0
PairPos2: "'kern' Horizontal Kerning in Arabic lookup 2 per glyph data 1" uniFB90 dx=110 dy=0 dh=110 dv=0 dx=0 dy=0 dh=0 dv=0
PairPos2: "'kern' Horizontal Kerning in Arabic lookup 2 per glyph data 1" uni06A9 dx=110 dy=0 dh=110 dv=0 dx=0 dy=0 dh=0 dv=0
PairPos2: "'kern' Horizontal Kerning in Arabic lookup 2 per glyph data 1" uniFEDB dx=110 dy=0 dh=110 dv=0 dx=0 dy=0 dh=0 dv=0
EndChar

StartChar: b
Encoding: 68 98 31
Width: 512
GlyphClass: 2
Flags: W
AnchorPoint: "Anchor-8" 0 0 basechar 0
AnchorPoint: "Anchor-7" 0 0 basechar 0
AnchorPoint: "Anchor-6" 113 688 basechar 0
AnchorPoint: "Anchor-5" 0 0 basechar 0
AnchorPoint: "Anchor-4" 255 0 basechar 0
LayerCount: 2
Fore
SplineSet
400 421.5 m 128,-1,1
 439 393 439 393 458 343.5 c 128,-1,2
 477 294 477 294 477 232 c 0,3,4
 477 145 477 145 439.5 90.5 c 128,-1,5
 402 36 402 36 345 12 c 128,-1,6
 288 -12 288 -12 227 -12 c 0,7,8
 160 -12 160 -12 70 17 c 1,9,-1
 70 688 l 1,10,-1
 156 698 l 1,11,-1
 156 411 l 1,12,13
 227 450 227 450 303 450 c 0,14,0
 361 450 361 450 400 421.5 c 128,-1,1
340 99.5 m 128,-1,16
 385 140 385 140 385 234 c 0,17,18
 385 302 385 302 359 339 c 128,-1,19
 333 376 333 376 279 376 c 0,20,21
 220 376 220 376 156 347 c 1,22,-1
 156 67 l 1,23,24
 194 59 194 59 224 59 c 0,25,15
 295 59 295 59 340 99.5 c 128,-1,16
EndSplineSet
PairPos2: "'kern' Horizontal Kerning in Arabic lookup 2 per glyph data 2" uni0671 dx=60 dy=0 dh=60 dv=0 dx=0 dy=0 dh=0 dv=0
PairPos2: "'kern' Horizontal Kerning in Arabic lookup 2 per glyph data 2" afii57410 dx=60 dy=0 dh=60 dv=0 dx=0 dy=0 dh=0 dv=0
PairPos2: "'kern' Horizontal Kerning in Arabic lookup 2 per glyph data 2" afii57411 dx=60 dy=0 dh=60 dv=0 dx=0 dy=0 dh=0 dv=0
PairPos2: "'kern' Horizontal Kerning in Arabic lookup 2 per glyph data 2" uniFE8E.short dx=60 dy=0 dh=60 dv=0 dx=0 dy=0 dh=0 dv=0
PairPos2: "'kern' Horizontal Kerning in Arabic lookup 2 per glyph data 2" afii57415.short dx=60 dy=0 dh=60 dv=0 dx=0 dy=0 dh=0 dv=0
PairPos2: "'kern' Horizontal Kerning in Arabic lookup 2 per glyph data 2" afii57415 dx=60 dy=0 dh=60 dv=0 dx=0 dy=0 dh=0 dv=0
PairPos2: "'kern' Horizontal Kerning in Arabic lookup 2 per glyph data 1" uniFEF3 dx=40 dy=0 dh=40 dv=0 dx=0 dy=0 dh=0 dv=0
PairPos2: "'kern' Horizontal Kerning in Arabic lookup 2 per glyph data 1" uniFB58 dx=40 dy=0 dh=40 dv=0 dx=0 dy=0 dh=0 dv=0
PairPos2: "'kern' Horizontal Kerning in Arabic lookup 2 per glyph data 1" afii57413 dx=40 dy=0 dh=40 dv=0 dx=0 dy=0 dh=0 dv=0
PairPos2: "'kern' Horizontal Kerning in Arabic lookup 2 per glyph data 1" uniFB94 dx=110 dy=0 dh=110 dv=0 dx=0 dy=0 dh=0 dv=0
PairPos2: "'kern' Horizontal Kerning in Arabic lookup 2 per glyph data 1" afii57509 dx=110 dy=0 dh=110 dv=0 dx=0 dy=0 dh=0 dv=0
PairPos2: "'kern' Horizontal Kerning in Arabic lookup 2 per glyph data 1" uniFB90 dx=110 dy=0 dh=110 dv=0 dx=0 dy=0 dh=0 dv=0
PairPos2: "'kern' Horizontal Kerning in Arabic lookup 2 per glyph data 1" uni06A9 dx=110 dy=0 dh=110 dv=0 dx=0 dy=0 dh=0 dv=0
PairPos2: "'kern' Horizontal Kerning in Arabic lookup 2 per glyph data 1" uniFEDB dx=110 dy=0 dh=110 dv=0 dx=0 dy=0 dh=0 dv=0
EndChar

StartChar: c
Encoding: 69 99 32
Width: 419
GlyphClass: 2
Flags: W
AnchorPoint: "Anchor-8" 0 0 basechar 0
AnchorPoint: "Anchor-7" 0 0 basechar 0
AnchorPoint: "Anchor-6" 240 438 basechar 0
AnchorPoint: "Anchor-5" 0 0 basechar 0
AnchorPoint: "Anchor-4" 221 0 basechar 0
LayerCount: 2
Fore
SplineSet
91 40.5 m 128,-1,1
 35 93 35 93 35 208 c 0,2,3
 35 291 35 291 67 345.5 c 128,-1,4
 99 400 99 400 149.5 425 c 128,-1,5
 200 450 200 450 257 450 c 0,6,7
 323 450 323 450 395 412 c 1,8,-1
 363 346 l 1,9,10
 328 363 328 363 302.5 370 c 128,-1,11
 277 377 277 377 250 377 c 0,12,13
 191 377 191 377 158 332.5 c 128,-1,14
 125 288 125 288 125 208 c 0,15,16
 125 130 125 130 158.5 96 c 128,-1,17
 192 62 192 62 249 62 c 0,18,19
 283 62 283 62 310.5 72.5 c 128,-1,20
 338 83 338 83 371 102 c 1,21,-1
 405 41 l 1,22,23
 368 17 368 17 328.5 2.5 c 128,-1,24
 289 -12 289 -12 241 -12 c 0,25,0
 147 -12 147 -12 91 40.5 c 128,-1,1
EndSplineSet
PairPos2: "'kern' Horizontal Kerning in Arabic lookup 2 per glyph data 2" uni0671 dx=60 dy=0 dh=60 dv=0 dx=0 dy=0 dh=0 dv=0
PairPos2: "'kern' Horizontal Kerning in Arabic lookup 2 per glyph data 2" afii57410 dx=60 dy=0 dh=60 dv=0 dx=0 dy=0 dh=0 dv=0
PairPos2: "'kern' Horizontal Kerning in Arabic lookup 2 per glyph data 2" afii57411 dx=60 dy=0 dh=60 dv=0 dx=0 dy=0 dh=0 dv=0
PairPos2: "'kern' Horizontal Kerning in Arabic lookup 2 per glyph data 2" uniFE8E.short dx=60 dy=0 dh=60 dv=0 dx=0 dy=0 dh=0 dv=0
PairPos2: "'kern' Horizontal Kerning in Arabic lookup 2 per glyph data 2" afii57415.short dx=60 dy=0 dh=60 dv=0 dx=0 dy=0 dh=0 dv=0
PairPos2: "'kern' Horizontal Kerning in Arabic lookup 2 per glyph data 2" afii57415 dx=60 dy=0 dh=60 dv=0 dx=0 dy=0 dh=0 dv=0
PairPos2: "'kern' Horizontal Kerning in Arabic lookup 2 per glyph data 1" uniFEF3 dx=40 dy=0 dh=40 dv=0 dx=0 dy=0 dh=0 dv=0
PairPos2: "'kern' Horizontal Kerning in Arabic lookup 2 per glyph data 1" uniFB58 dx=40 dy=0 dh=40 dv=0 dx=0 dy=0 dh=0 dv=0
PairPos2: "'kern' Horizontal Kerning in Arabic lookup 2 per glyph data 1" afii57413 dx=40 dy=0 dh=40 dv=0 dx=0 dy=0 dh=0 dv=0
PairPos2: "'kern' Horizontal Kerning in Arabic lookup 2 per glyph data 1" uniFB94 dx=110 dy=0 dh=110 dv=0 dx=0 dy=0 dh=0 dv=0
PairPos2: "'kern' Horizontal Kerning in Arabic lookup 2 per glyph data 1" afii57509 dx=110 dy=0 dh=110 dv=0 dx=0 dy=0 dh=0 dv=0
PairPos2: "'kern' Horizontal Kerning in Arabic lookup 2 per glyph data 1" uniFB90 dx=110 dy=0 dh=110 dv=0 dx=0 dy=0 dh=0 dv=0
PairPos2: "'kern' Horizontal Kerning in Arabic lookup 2 per glyph data 1" uni06A9 dx=110 dy=0 dh=110 dv=0 dx=0 dy=0 dh=0 dv=0
PairPos2: "'kern' Horizontal Kerning in Arabic lookup 2 per glyph data 1" uniFEDB dx=110 dy=0 dh=110 dv=0 dx=0 dy=0 dh=0 dv=0
EndChar

StartChar: d
Encoding: 70 100 33
Width: 512
GlyphClass: 2
Flags: W
AnchorPoint: "Anchor-8" 442 688 basechar 0
AnchorPoint: "Anchor-7" 336 582 basechar 0
AnchorPoint: "Anchor-6" 399 688 basechar 0
AnchorPoint: "Anchor-5" 0 0 basechar 0
AnchorPoint: "Anchor-4" 235 0 basechar 0
LayerCount: 2
Fore
SplineSet
442 698 m 1,0,-1
 442 0 l 1,1,-1
 364 0 l 1,2,-1
 360 32 l 1,3,4
 324 11 324 11 287 -0.5 c 128,-1,5
 250 -12 250 -12 218 -12 c 0,6,7
 160 -12 160 -12 119 14.5 c 128,-1,8
 78 41 78 41 56.5 90.5 c 128,-1,9
 35 140 35 140 35 207 c 0,10,11
 35 283 35 283 64.5 338 c 128,-1,12
 94 393 94 393 145 421.5 c 128,-1,13
 196 450 196 450 261 450 c 0,14,15
 304 450 304 450 356 437 c 1,16,-1
 356 688 l 1,17,-1
 442 698 l 1,0,-1
157 98 m 128,-1,19
 187 62 187 62 242 62 c 0,20,21
 300 62 300 62 356 95 c 1,22,-1
 356 367 l 1,23,24
 311 382 311 382 268 382 c 0,25,26
 227 382 227 382 195.5 363.5 c 128,-1,27
 164 345 164 345 145.5 306 c 128,-1,28
 127 267 127 267 127 209 c 0,29,18
 127 134 127 134 157 98 c 128,-1,19
EndSplineSet
PairPos2: "'kern' Horizontal Kerning in Arabic lookup 2 per glyph data 2" uni0671 dx=60 dy=0 dh=60 dv=0 dx=0 dy=0 dh=0 dv=0
PairPos2: "'kern' Horizontal Kerning in Arabic lookup 2 per glyph data 2" afii57410 dx=60 dy=0 dh=60 dv=0 dx=0 dy=0 dh=0 dv=0
PairPos2: "'kern' Horizontal Kerning in Arabic lookup 2 per glyph data 2" afii57411 dx=60 dy=0 dh=60 dv=0 dx=0 dy=0 dh=0 dv=0
PairPos2: "'kern' Horizontal Kerning in Arabic lookup 2 per glyph data 2" uniFE8E.short dx=60 dy=0 dh=60 dv=0 dx=0 dy=0 dh=0 dv=0
PairPos2: "'kern' Horizontal Kerning in Arabic lookup 2 per glyph data 2" afii57415.short dx=60 dy=0 dh=60 dv=0 dx=0 dy=0 dh=0 dv=0
PairPos2: "'kern' Horizontal Kerning in Arabic lookup 2 per glyph data 2" afii57415 dx=60 dy=0 dh=60 dv=0 dx=0 dy=0 dh=0 dv=0
PairPos2: "'kern' Horizontal Kerning in Arabic lookup 2 per glyph data 1" uniFEF3 dx=40 dy=0 dh=40 dv=0 dx=0 dy=0 dh=0 dv=0
PairPos2: "'kern' Horizontal Kerning in Arabic lookup 2 per glyph data 1" uniFB58 dx=40 dy=0 dh=40 dv=0 dx=0 dy=0 dh=0 dv=0
PairPos2: "'kern' Horizontal Kerning in Arabic lookup 2 per glyph data 1" afii57413 dx=40 dy=0 dh=40 dv=0 dx=0 dy=0 dh=0 dv=0
PairPos2: "'kern' Horizontal Kerning in Arabic lookup 2 per glyph data 1" uniFB94 dx=110 dy=0 dh=110 dv=0 dx=0 dy=0 dh=0 dv=0
PairPos2: "'kern' Horizontal Kerning in Arabic lookup 2 per glyph data 1" afii57509 dx=110 dy=0 dh=110 dv=0 dx=0 dy=0 dh=0 dv=0
PairPos2: "'kern' Horizontal Kerning in Arabic lookup 2 per glyph data 1" uniFB90 dx=110 dy=0 dh=110 dv=0 dx=0 dy=0 dh=0 dv=0
PairPos2: "'kern' Horizontal Kerning in Arabic lookup 2 per glyph data 1" uni06A9 dx=110 dy=0 dh=110 dv=0 dx=0 dy=0 dh=0 dv=0
PairPos2: "'kern' Horizontal Kerning in Arabic lookup 2 per glyph data 1" uniFEDB dx=110 dy=0 dh=110 dv=0 dx=0 dy=0 dh=0 dv=0
EndChar

StartChar: e
Encoding: 71 101 34
Width: 464
GlyphClass: 2
Flags: W
AnchorPoint: "Anchor-8" 0 0 basechar 0
AnchorPoint: "Anchor-7" 0 0 basechar 0
AnchorPoint: "Anchor-6" 247 438 basechar 0
AnchorPoint: "Anchor-5" 387 10 basechar 0
AnchorPoint: "Anchor-4" 237 0 basechar 0
LayerCount: 2
Fore
SplineSet
427 204 m 1,0,-1
 122 204 l 1,1,2
 123 129 123 129 158.5 95 c 128,-1,3
 194 61 194 61 250 61 c 0,4,5
 290 61 290 61 319.5 71 c 128,-1,6
 349 81 349 81 385 102 c 1,7,-1
 418 41 l 1,8,9
 336 -12 336 -12 246 -12 c 0,10,11
 150 -12 150 -12 92.5 41.5 c 128,-1,12
 35 95 35 95 35 211 c 0,13,14
 35 277 35 277 59 331 c 128,-1,15
 83 385 83 385 130.5 417.5 c 128,-1,16
 178 450 178 450 247 450 c 0,17,18
 305 450 305 450 346 426.5 c 128,-1,19
 387 403 387 403 408 362 c 128,-1,20
 429 321 429 321 429 268 c 2,21,-1
 427 204 l 1,0,-1
165.5 352 m 128,-1,23
 136 321 136 321 127 267 c 1,24,-1
 345 267 l 1,25,-1
 345 271 l 2,26,27
 345 327 345 327 319.5 355 c 128,-1,28
 294 383 294 383 247 383 c 0,29,22
 195 383 195 383 165.5 352 c 128,-1,23
EndSplineSet
PairPos2: "'kern' Horizontal Kerning in Arabic lookup 2 per glyph data 2" uni0671 dx=60 dy=0 dh=60 dv=0 dx=0 dy=0 dh=0 dv=0
PairPos2: "'kern' Horizontal Kerning in Arabic lookup 2 per glyph data 2" afii57410 dx=60 dy=0 dh=60 dv=0 dx=0 dy=0 dh=0 dv=0
PairPos2: "'kern' Horizontal Kerning in Arabic lookup 2 per glyph data 2" afii57411 dx=60 dy=0 dh=60 dv=0 dx=0 dy=0 dh=0 dv=0
PairPos2: "'kern' Horizontal Kerning in Arabic lookup 2 per glyph data 2" uniFE8E.short dx=60 dy=0 dh=60 dv=0 dx=0 dy=0 dh=0 dv=0
PairPos2: "'kern' Horizontal Kerning in Arabic lookup 2 per glyph data 2" afii57415.short dx=60 dy=0 dh=60 dv=0 dx=0 dy=0 dh=0 dv=0
PairPos2: "'kern' Horizontal Kerning in Arabic lookup 2 per glyph data 2" afii57415 dx=60 dy=0 dh=60 dv=0 dx=0 dy=0 dh=0 dv=0
PairPos2: "'kern' Horizontal Kerning in Arabic lookup 2 per glyph data 1" uniFEF3 dx=40 dy=0 dh=40 dv=0 dx=0 dy=0 dh=0 dv=0
PairPos2: "'kern' Horizontal Kerning in Arabic lookup 2 per glyph data 1" uniFB58 dx=40 dy=0 dh=40 dv=0 dx=0 dy=0 dh=0 dv=0
PairPos2: "'kern' Horizontal Kerning in Arabic lookup 2 per glyph data 1" afii57413 dx=40 dy=0 dh=40 dv=0 dx=0 dy=0 dh=0 dv=0
PairPos2: "'kern' Horizontal Kerning in Arabic lookup 2 per glyph data 1" uniFB94 dx=110 dy=0 dh=110 dv=0 dx=0 dy=0 dh=0 dv=0
PairPos2: "'kern' Horizontal Kerning in Arabic lookup 2 per glyph data 1" afii57509 dx=110 dy=0 dh=110 dv=0 dx=0 dy=0 dh=0 dv=0
PairPos2: "'kern' Horizontal Kerning in Arabic lookup 2 per glyph data 1" uniFB90 dx=110 dy=0 dh=110 dv=0 dx=0 dy=0 dh=0 dv=0
PairPos2: "'kern' Horizontal Kerning in Arabic lookup 2 per glyph data 1" uni06A9 dx=110 dy=0 dh=110 dv=0 dx=0 dy=0 dh=0 dv=0
PairPos2: "'kern' Horizontal Kerning in Arabic lookup 2 per glyph data 1" uniFEDB dx=110 dy=0 dh=110 dv=0 dx=0 dy=0 dh=0 dv=0
EndChar

StartChar: f
Encoding: 72 102 35
Width: 323
GlyphClass: 2
Flags: W
AnchorPoint: "Anchor-8" 0 0 basechar 0
AnchorPoint: "Anchor-7" 0 0 basechar 0
AnchorPoint: "Anchor-6" 254 688 basechar 0
AnchorPoint: "Anchor-5" 0 0 basechar 0
AnchorPoint: "Anchor-4" 144 0 basechar 0
LayerCount: 2
Fore
SplineSet
204.5 597.5 m 128,-1,1
 186 573 186 573 186 528 c 2,2,-1
 186 438 l 1,3,-1
 322 438 l 1,4,-1
 313 370 l 1,5,-1
 186 370 l 1,6,-1
 186 0 l 1,7,-1
 100 0 l 1,8,-1
 100 370 l 1,9,-1
 20 370 l 1,10,-1
 20 438 l 1,11,-1
 100 438 l 1,12,-1
 100 526 l 2,13,14
 100 576 100 576 119 614 c 128,-1,15
 138 652 138 652 173.5 673 c 128,-1,16
 209 694 209 694 257 694 c 0,17,18
 312 694 312 694 358 677 c 1,19,-1
 336 609 l 1,20,21
 299 622 299 622 261 622 c 256,22,0
 223 622 223 622 204.5 597.5 c 128,-1,1
EndSplineSet
PairPos2: "'kern' Horizontal Kerning in Arabic lookup 2 per glyph data 2" uni0671 dx=60 dy=0 dh=60 dv=0 dx=0 dy=0 dh=0 dv=0
PairPos2: "'kern' Horizontal Kerning in Arabic lookup 2 per glyph data 2" afii57410 dx=60 dy=0 dh=60 dv=0 dx=0 dy=0 dh=0 dv=0
PairPos2: "'kern' Horizontal Kerning in Arabic lookup 2 per glyph data 2" afii57411 dx=60 dy=0 dh=60 dv=0 dx=0 dy=0 dh=0 dv=0
PairPos2: "'kern' Horizontal Kerning in Arabic lookup 2 per glyph data 2" uniFE8E.short dx=60 dy=0 dh=60 dv=0 dx=0 dy=0 dh=0 dv=0
PairPos2: "'kern' Horizontal Kerning in Arabic lookup 2 per glyph data 2" afii57415.short dx=60 dy=0 dh=60 dv=0 dx=0 dy=0 dh=0 dv=0
PairPos2: "'kern' Horizontal Kerning in Arabic lookup 2 per glyph data 2" afii57415 dx=60 dy=0 dh=60 dv=0 dx=0 dy=0 dh=0 dv=0
PairPos2: "'kern' Horizontal Kerning in Arabic lookup 2 per glyph data 1" uniFEF3 dx=40 dy=0 dh=40 dv=0 dx=0 dy=0 dh=0 dv=0
PairPos2: "'kern' Horizontal Kerning in Arabic lookup 2 per glyph data 1" uniFB58 dx=40 dy=0 dh=40 dv=0 dx=0 dy=0 dh=0 dv=0
PairPos2: "'kern' Horizontal Kerning in Arabic lookup 2 per glyph data 1" afii57413 dx=40 dy=0 dh=40 dv=0 dx=0 dy=0 dh=0 dv=0
PairPos2: "'kern' Horizontal Kerning in Arabic lookup 2 per glyph data 1" uniFB94 dx=110 dy=0 dh=110 dv=0 dx=0 dy=0 dh=0 dv=0
PairPos2: "'kern' Horizontal Kerning in Arabic lookup 2 per glyph data 1" afii57509 dx=110 dy=0 dh=110 dv=0 dx=0 dy=0 dh=0 dv=0
PairPos2: "'kern' Horizontal Kerning in Arabic lookup 2 per glyph data 1" uniFB90 dx=110 dy=0 dh=110 dv=0 dx=0 dy=0 dh=0 dv=0
PairPos2: "'kern' Horizontal Kerning in Arabic lookup 2 per glyph data 1" uni06A9 dx=110 dy=0 dh=110 dv=0 dx=0 dy=0 dh=0 dv=0
PairPos2: "'kern' Horizontal Kerning in Arabic lookup 2 per glyph data 1" uniFEDB dx=110 dy=0 dh=110 dv=0 dx=0 dy=0 dh=0 dv=0
EndChar

StartChar: f.short
Encoding: 415 -1 36
Width: 323
GlyphClass: 2
Flags: W
AnchorPoint: "Anchor-8" 0 0 basechar 0
AnchorPoint: "Anchor-7" 0 0 basechar 0
AnchorPoint: "Anchor-6" 254 688 basechar 0
AnchorPoint: "Anchor-5" 0 0 basechar 0
AnchorPoint: "Anchor-4" 144 0 basechar 0
LayerCount: 2
Fore
SplineSet
186 438 m 1,0,-1
 322 438 l 1,1,-1
 313 370 l 1,2,-1
 186 370 l 1,3,-1
 186 0 l 1,4,-1
 100 0 l 1,5,-1
 100 370 l 1,6,-1
 20 370 l 1,7,-1
 20 438 l 1,8,-1
 100 438 l 1,9,-1
 100 529 l 2,10,11
 100 579 100 579 118 616 c 128,-1,12
 136 653 136 653 170.5 673 c 128,-1,13
 205 693 205 693 252 693 c 0,14,15
 300 693 300 693 338 674 c 1,16,-1
 308 611 l 1,17,18
 285 621 285 621 256 621 c 0,19,20
 220 621 220 621 203 598 c 128,-1,21
 186 575 186 575 186 531 c 2,22,-1
 186 438 l 1,0,-1
EndSplineSet
PairPos2: "'kern' Horizontal Kerning in Arabic lookup 2 per glyph data 2" uni0671 dx=60 dy=0 dh=60 dv=0 dx=0 dy=0 dh=0 dv=0
PairPos2: "'kern' Horizontal Kerning in Arabic lookup 2 per glyph data 2" afii57410 dx=60 dy=0 dh=60 dv=0 dx=0 dy=0 dh=0 dv=0
PairPos2: "'kern' Horizontal Kerning in Arabic lookup 2 per glyph data 2" afii57411 dx=60 dy=0 dh=60 dv=0 dx=0 dy=0 dh=0 dv=0
PairPos2: "'kern' Horizontal Kerning in Arabic lookup 2 per glyph data 2" uniFE8E.short dx=60 dy=0 dh=60 dv=0 dx=0 dy=0 dh=0 dv=0
PairPos2: "'kern' Horizontal Kerning in Arabic lookup 2 per glyph data 2" afii57415.short dx=60 dy=0 dh=60 dv=0 dx=0 dy=0 dh=0 dv=0
PairPos2: "'kern' Horizontal Kerning in Arabic lookup 2 per glyph data 2" afii57415 dx=60 dy=0 dh=60 dv=0 dx=0 dy=0 dh=0 dv=0
PairPos2: "'kern' Horizontal Kerning in Arabic lookup 2 per glyph data 1" uniFEF3 dx=40 dy=0 dh=40 dv=0 dx=0 dy=0 dh=0 dv=0
PairPos2: "'kern' Horizontal Kerning in Arabic lookup 2 per glyph data 1" uniFB58 dx=40 dy=0 dh=40 dv=0 dx=0 dy=0 dh=0 dv=0
PairPos2: "'kern' Horizontal Kerning in Arabic lookup 2 per glyph data 1" afii57413 dx=40 dy=0 dh=40 dv=0 dx=0 dy=0 dh=0 dv=0
PairPos2: "'kern' Horizontal Kerning in Arabic lookup 2 per glyph data 1" uniFB94 dx=110 dy=0 dh=110 dv=0 dx=0 dy=0 dh=0 dv=0
PairPos2: "'kern' Horizontal Kerning in Arabic lookup 2 per glyph data 1" afii57509 dx=110 dy=0 dh=110 dv=0 dx=0 dy=0 dh=0 dv=0
PairPos2: "'kern' Horizontal Kerning in Arabic lookup 2 per glyph data 1" uniFB90 dx=110 dy=0 dh=110 dv=0 dx=0 dy=0 dh=0 dv=0
PairPos2: "'kern' Horizontal Kerning in Arabic lookup 2 per glyph data 1" uni06A9 dx=110 dy=0 dh=110 dv=0 dx=0 dy=0 dh=0 dv=0
PairPos2: "'kern' Horizontal Kerning in Arabic lookup 2 per glyph data 1" uniFEDB dx=110 dy=0 dh=110 dv=0 dx=0 dy=0 dh=0 dv=0
EndChar

StartChar: g
Encoding: 73 103 37
Width: 498
GlyphClass: 2
Flags: W
AnchorPoint: "Anchor-8" 0 0 basechar 0
AnchorPoint: "Anchor-7" 0 0 basechar 0
AnchorPoint: "Anchor-6" 247 438 basechar 0
AnchorPoint: "Anchor-5" 0 0 basechar 0
AnchorPoint: "Anchor-4" 244 -186 basechar 0
LayerCount: 2
Fore
SplineSet
412.5 53 m 128,-1,1
 450 40 450 40 469 16 c 128,-1,2
 488 -8 488 -8 488 -46 c 0,3,4
 488 -92 488 -92 458.5 -126.5 c 128,-1,5
 429 -161 429 -161 374 -179.5 c 128,-1,6
 319 -198 319 -198 243 -198 c 0,7,8
 146 -198 146 -198 88 -167 c 128,-1,9
 30 -136 30 -136 30 -74 c 0,10,11
 30 -36 30 -36 48.5 -11 c 128,-1,12
 67 14 67 14 102 36 c 1,13,14
 72 57 72 57 72 90 c 0,15,16
 72 110 72 110 83.5 127 c 128,-1,17
 95 144 95 144 120 162 c 1,18,19
 84 182 84 182 66 215 c 128,-1,20
 48 248 48 248 48 291 c 0,21,22
 48 346 48 346 75.5 382 c 128,-1,23
 103 418 103 418 148 434 c 128,-1,24
 193 450 193 450 248 450 c 0,25,26
 276 450 276 450 306 445 c 1,27,-1
 455 507 l 1,28,-1
 485 437 l 1,29,-1
 383 408 l 1,30,31
 412 386 412 386 426 355.5 c 128,-1,32
 440 325 440 325 440 290 c 0,33,34
 440 209 440 209 383.5 172 c 128,-1,35
 327 135 327 135 240 135 c 0,36,37
 201 135 201 135 173 142 c 1,38,39
 160 128 160 128 160 111 c 0,40,41
 160 100 160 100 168 93.5 c 128,-1,42
 176 87 176 87 194 83.5 c 128,-1,43
 212 80 212 80 245 77 c 2,44,-1
 316 71 l 2,45,0
 375 66 375 66 412.5 53 c 128,-1,1
160.5 360 m 128,-1,47
 134 334 134 334 134 292 c 0,48,49
 134 249 134 249 161 224 c 128,-1,50
 188 199 188 199 246 199 c 0,51,52
 354 199 354 199 354 289 c 0,53,54
 354 334 354 334 325.5 360 c 128,-1,55
 297 386 297 386 244 386 c 0,56,46
 187 386 187 386 160.5 360 c 128,-1,47
353.5 -114 m 128,-1,58
 397 -97 397 -97 397 -58 c 0,59,60
 397 -40 397 -40 385 -28.5 c 128,-1,61
 373 -17 373 -17 348 -10.5 c 128,-1,62
 323 -4 323 -4 282 0 c 2,63,-1
 211 6 l 2,64,65
 179 9 179 9 152 15 c 1,66,67
 133 -2 133 -2 122.5 -21.5 c 128,-1,68
 112 -41 112 -41 112 -61 c 0,69,70
 112 -96 112 -96 144 -113.5 c 128,-1,71
 176 -131 176 -131 245 -131 c 0,72,57
 310 -131 310 -131 353.5 -114 c 128,-1,58
EndSplineSet
PairPos2: "'kern' Horizontal Kerning in Arabic lookup 2 per glyph data 2" uni0671 dx=60 dy=0 dh=60 dv=0 dx=0 dy=0 dh=0 dv=0
PairPos2: "'kern' Horizontal Kerning in Arabic lookup 2 per glyph data 2" afii57410 dx=60 dy=0 dh=60 dv=0 dx=0 dy=0 dh=0 dv=0
PairPos2: "'kern' Horizontal Kerning in Arabic lookup 2 per glyph data 2" afii57411 dx=60 dy=0 dh=60 dv=0 dx=0 dy=0 dh=0 dv=0
PairPos2: "'kern' Horizontal Kerning in Arabic lookup 2 per glyph data 2" uniFE8E.short dx=60 dy=0 dh=60 dv=0 dx=0 dy=0 dh=0 dv=0
PairPos2: "'kern' Horizontal Kerning in Arabic lookup 2 per glyph data 2" afii57415.short dx=60 dy=0 dh=60 dv=0 dx=0 dy=0 dh=0 dv=0
PairPos2: "'kern' Horizontal Kerning in Arabic lookup 2 per glyph data 2" afii57415 dx=60 dy=0 dh=60 dv=0 dx=0 dy=0 dh=0 dv=0
PairPos2: "'kern' Horizontal Kerning in Arabic lookup 2 per glyph data 1" uniFEF3 dx=40 dy=0 dh=40 dv=0 dx=0 dy=0 dh=0 dv=0
PairPos2: "'kern' Horizontal Kerning in Arabic lookup 2 per glyph data 1" uniFB58 dx=40 dy=0 dh=40 dv=0 dx=0 dy=0 dh=0 dv=0
PairPos2: "'kern' Horizontal Kerning in Arabic lookup 2 per glyph data 1" afii57413 dx=40 dy=0 dh=40 dv=0 dx=0 dy=0 dh=0 dv=0
PairPos2: "'kern' Horizontal Kerning in Arabic lookup 2 per glyph data 1" uniFB94 dx=110 dy=0 dh=110 dv=0 dx=0 dy=0 dh=0 dv=0
PairPos2: "'kern' Horizontal Kerning in Arabic lookup 2 per glyph data 1" afii57509 dx=110 dy=0 dh=110 dv=0 dx=0 dy=0 dh=0 dv=0
PairPos2: "'kern' Horizontal Kerning in Arabic lookup 2 per glyph data 1" uniFB90 dx=110 dy=0 dh=110 dv=0 dx=0 dy=0 dh=0 dv=0
PairPos2: "'kern' Horizontal Kerning in Arabic lookup 2 per glyph data 1" uni06A9 dx=110 dy=0 dh=110 dv=0 dx=0 dy=0 dh=0 dv=0
PairPos2: "'kern' Horizontal Kerning in Arabic lookup 2 per glyph data 1" uniFEDB dx=110 dy=0 dh=110 dv=0 dx=0 dy=0 dh=0 dv=0
EndChar

StartChar: h
Encoding: 74 104 38
Width: 513
GlyphClass: 2
Flags: W
AnchorPoint: "Anchor-8" 156 688 basechar 0
AnchorPoint: "Anchor-7" 177 582 basechar 0
AnchorPoint: "Anchor-6" 253 688 basechar 0
AnchorPoint: "Anchor-5" 0 0 basechar 0
AnchorPoint: "Anchor-4" 257 0 basechar 0
LayerCount: 2
Fore
SplineSet
412 418 m 128,-1,1
 448 386 448 386 448 314 c 2,2,-1
 448 0 l 1,3,-1
 362 0 l 1,4,-1
 362 279 l 2,5,6
 362 316 362 316 354.5 336.5 c 128,-1,7
 347 357 347 357 329.5 366 c 128,-1,8
 312 375 312 375 282 375 c 256,9,10
 252 375 252 375 218.5 367 c 128,-1,11
 185 359 185 359 156 345 c 1,12,-1
 156 0 l 1,13,-1
 70 0 l 1,14,-1
 70 688 l 1,15,-1
 156 698 l 1,16,-1
 156 407 l 1,17,18
 238 450 238 450 314 450 c 0,19,0
 376 450 376 450 412 418 c 128,-1,1
EndSplineSet
PairPos2: "'kern' Horizontal Kerning in Arabic lookup 2 per glyph data 2" uni0671 dx=60 dy=0 dh=60 dv=0 dx=0 dy=0 dh=0 dv=0
PairPos2: "'kern' Horizontal Kerning in Arabic lookup 2 per glyph data 2" afii57410 dx=60 dy=0 dh=60 dv=0 dx=0 dy=0 dh=0 dv=0
PairPos2: "'kern' Horizontal Kerning in Arabic lookup 2 per glyph data 2" afii57411 dx=60 dy=0 dh=60 dv=0 dx=0 dy=0 dh=0 dv=0
PairPos2: "'kern' Horizontal Kerning in Arabic lookup 2 per glyph data 2" uniFE8E.short dx=60 dy=0 dh=60 dv=0 dx=0 dy=0 dh=0 dv=0
PairPos2: "'kern' Horizontal Kerning in Arabic lookup 2 per glyph data 2" afii57415.short dx=60 dy=0 dh=60 dv=0 dx=0 dy=0 dh=0 dv=0
PairPos2: "'kern' Horizontal Kerning in Arabic lookup 2 per glyph data 2" afii57415 dx=60 dy=0 dh=60 dv=0 dx=0 dy=0 dh=0 dv=0
PairPos2: "'kern' Horizontal Kerning in Arabic lookup 2 per glyph data 1" uniFEF3 dx=40 dy=0 dh=40 dv=0 dx=0 dy=0 dh=0 dv=0
PairPos2: "'kern' Horizontal Kerning in Arabic lookup 2 per glyph data 1" uniFB58 dx=40 dy=0 dh=40 dv=0 dx=0 dy=0 dh=0 dv=0
PairPos2: "'kern' Horizontal Kerning in Arabic lookup 2 per glyph data 1" afii57413 dx=40 dy=0 dh=40 dv=0 dx=0 dy=0 dh=0 dv=0
PairPos2: "'kern' Horizontal Kerning in Arabic lookup 2 per glyph data 1" uniFB94 dx=110 dy=0 dh=110 dv=0 dx=0 dy=0 dh=0 dv=0
PairPos2: "'kern' Horizontal Kerning in Arabic lookup 2 per glyph data 1" afii57509 dx=110 dy=0 dh=110 dv=0 dx=0 dy=0 dh=0 dv=0
PairPos2: "'kern' Horizontal Kerning in Arabic lookup 2 per glyph data 1" uniFB90 dx=110 dy=0 dh=110 dv=0 dx=0 dy=0 dh=0 dv=0
PairPos2: "'kern' Horizontal Kerning in Arabic lookup 2 per glyph data 1" uni06A9 dx=110 dy=0 dh=110 dv=0 dx=0 dy=0 dh=0 dv=0
PairPos2: "'kern' Horizontal Kerning in Arabic lookup 2 per glyph data 1" uniFEDB dx=110 dy=0 dh=110 dv=0 dx=0 dy=0 dh=0 dv=0
EndChar

StartChar: i
Encoding: 75 105 39
Width: 226
GlyphClass: 2
Flags: W
AnchorPoint: "Anchor-8" 0 0 basechar 0
AnchorPoint: "Anchor-7" 0 0 basechar 0
AnchorPoint: "Anchor-6" 113 650 basechar 0
AnchorPoint: "Anchor-5" 180 10 basechar 0
AnchorPoint: "Anchor-4" 0 0 basechar 0
LayerCount: 2
Fore
SplineSet
82 535.5 m 128,-1,1
 68 544 68 544 59.5 558 c 128,-1,2
 51 572 51 572 51 588 c 0,3,4
 51 605 51 605 59.5 619 c 128,-1,5
 68 633 68 633 82 641.5 c 128,-1,6
 96 650 96 650 112 650 c 0,7,8
 129 650 129 650 143 641.5 c 128,-1,9
 157 633 157 633 165.5 619 c 128,-1,10
 174 605 174 605 174 588 c 0,11,12
 174 572 174 572 165.5 558 c 128,-1,13
 157 544 157 544 143 535.5 c 128,-1,14
 129 527 129 527 112 527 c 0,15,0
 96 527 96 527 82 535.5 c 128,-1,1
70 0 m 1,16,-1
 70 438 l 1,17,-1
 156 448 l 1,18,-1
 156 0 l 1,19,-1
 70 0 l 1,16,-1
EndSplineSet
Substitution2: "'aalt' Access All Alternates in Arabic lookup 0 subtable" dotlessi
PairPos2: "'kern' Horizontal Kerning in Arabic lookup 2 per glyph data 2" uni0671 dx=60 dy=0 dh=60 dv=0 dx=0 dy=0 dh=0 dv=0
PairPos2: "'kern' Horizontal Kerning in Arabic lookup 2 per glyph data 2" afii57410 dx=60 dy=0 dh=60 dv=0 dx=0 dy=0 dh=0 dv=0
PairPos2: "'kern' Horizontal Kerning in Arabic lookup 2 per glyph data 2" afii57411 dx=60 dy=0 dh=60 dv=0 dx=0 dy=0 dh=0 dv=0
PairPos2: "'kern' Horizontal Kerning in Arabic lookup 2 per glyph data 2" uniFE8E.short dx=60 dy=0 dh=60 dv=0 dx=0 dy=0 dh=0 dv=0
PairPos2: "'kern' Horizontal Kerning in Arabic lookup 2 per glyph data 2" afii57415.short dx=60 dy=0 dh=60 dv=0 dx=0 dy=0 dh=0 dv=0
PairPos2: "'kern' Horizontal Kerning in Arabic lookup 2 per glyph data 2" afii57415 dx=60 dy=0 dh=60 dv=0 dx=0 dy=0 dh=0 dv=0
PairPos2: "'kern' Horizontal Kerning in Arabic lookup 2 per glyph data 1" uniFEF3 dx=40 dy=0 dh=40 dv=0 dx=0 dy=0 dh=0 dv=0
PairPos2: "'kern' Horizontal Kerning in Arabic lookup 2 per glyph data 1" uniFB58 dx=40 dy=0 dh=40 dv=0 dx=0 dy=0 dh=0 dv=0
PairPos2: "'kern' Horizontal Kerning in Arabic lookup 2 per glyph data 1" afii57413 dx=40 dy=0 dh=40 dv=0 dx=0 dy=0 dh=0 dv=0
PairPos2: "'kern' Horizontal Kerning in Arabic lookup 2 per glyph data 1" uniFB94 dx=110 dy=0 dh=110 dv=0 dx=0 dy=0 dh=0 dv=0
PairPos2: "'kern' Horizontal Kerning in Arabic lookup 2 per glyph data 1" afii57509 dx=110 dy=0 dh=110 dv=0 dx=0 dy=0 dh=0 dv=0
PairPos2: "'kern' Horizontal Kerning in Arabic lookup 2 per glyph data 1" uniFB90 dx=110 dy=0 dh=110 dv=0 dx=0 dy=0 dh=0 dv=0
PairPos2: "'kern' Horizontal Kerning in Arabic lookup 2 per glyph data 1" uni06A9 dx=110 dy=0 dh=110 dv=0 dx=0 dy=0 dh=0 dv=0
PairPos2: "'kern' Horizontal Kerning in Arabic lookup 2 per glyph data 1" uniFEDB dx=110 dy=0 dh=110 dv=0 dx=0 dy=0 dh=0 dv=0
EndChar

StartChar: j
Encoding: 76 106 40
Width: 226
GlyphClass: 2
Flags: W
AnchorPoint: "Anchor-8" 0 0 basechar 0
AnchorPoint: "Anchor-7" 0 0 basechar 0
AnchorPoint: "Anchor-6" 114 650 basechar 0
AnchorPoint: "Anchor-5" 0 0 basechar 0
AnchorPoint: "Anchor-4" 0 0 basechar 0
LayerCount: 2
Fore
SplineSet
83 535.5 m 128,-1,1
 69 544 69 544 60.5 558 c 128,-1,2
 52 572 52 572 52 588 c 0,3,4
 52 605 52 605 60.5 619 c 128,-1,5
 69 633 69 633 83 641.5 c 128,-1,6
 97 650 97 650 113 650 c 0,7,8
 130 650 130 650 144 641.5 c 128,-1,9
 158 633 158 633 166.5 619 c 128,-1,10
 175 605 175 605 175 588 c 0,11,12
 175 572 175 572 166.5 558 c 128,-1,13
 158 544 158 544 144 535.5 c 128,-1,14
 130 527 130 527 113 527 c 0,15,0
 97 527 97 527 83 535.5 c 128,-1,1
-80 -179 m 1,17,-1
 -56 -111 l 1,18,19
 -38 -118 -38 -118 -24 -121 c 128,-1,20
 -10 -124 -10 -124 5 -124 c 0,21,22
 39 -124 39 -124 54.5 -104.5 c 128,-1,23
 70 -85 70 -85 70 -45 c 2,24,-1
 70 438 l 1,25,-1
 156 448 l 1,26,-1
 156 -43 l 2,27,28
 156 -120 156 -120 119.5 -159 c 128,-1,29
 83 -198 83 -198 15 -198 c 0,30,16
 -35 -198 -35 -198 -80 -179 c 1,17,-1
EndSplineSet
PairPos2: "'kern' Horizontal Kerning in Arabic lookup 2 per glyph data 2" uni0671 dx=60 dy=0 dh=60 dv=0 dx=0 dy=0 dh=0 dv=0
PairPos2: "'kern' Horizontal Kerning in Arabic lookup 2 per glyph data 2" afii57410 dx=60 dy=0 dh=60 dv=0 dx=0 dy=0 dh=0 dv=0
PairPos2: "'kern' Horizontal Kerning in Arabic lookup 2 per glyph data 2" afii57411 dx=60 dy=0 dh=60 dv=0 dx=0 dy=0 dh=0 dv=0
PairPos2: "'kern' Horizontal Kerning in Arabic lookup 2 per glyph data 2" uniFE8E.short dx=60 dy=0 dh=60 dv=0 dx=0 dy=0 dh=0 dv=0
PairPos2: "'kern' Horizontal Kerning in Arabic lookup 2 per glyph data 2" afii57415.short dx=60 dy=0 dh=60 dv=0 dx=0 dy=0 dh=0 dv=0
PairPos2: "'kern' Horizontal Kerning in Arabic lookup 2 per glyph data 2" afii57415 dx=60 dy=0 dh=60 dv=0 dx=0 dy=0 dh=0 dv=0
PairPos2: "'kern' Horizontal Kerning in Arabic lookup 2 per glyph data 1" uniFEF3 dx=40 dy=0 dh=40 dv=0 dx=0 dy=0 dh=0 dv=0
PairPos2: "'kern' Horizontal Kerning in Arabic lookup 2 per glyph data 1" uniFB58 dx=40 dy=0 dh=40 dv=0 dx=0 dy=0 dh=0 dv=0
PairPos2: "'kern' Horizontal Kerning in Arabic lookup 2 per glyph data 1" afii57413 dx=40 dy=0 dh=40 dv=0 dx=0 dy=0 dh=0 dv=0
PairPos2: "'kern' Horizontal Kerning in Arabic lookup 2 per glyph data 1" uniFB94 dx=110 dy=0 dh=110 dv=0 dx=0 dy=0 dh=0 dv=0
PairPos2: "'kern' Horizontal Kerning in Arabic lookup 2 per glyph data 1" afii57509 dx=110 dy=0 dh=110 dv=0 dx=0 dy=0 dh=0 dv=0
PairPos2: "'kern' Horizontal Kerning in Arabic lookup 2 per glyph data 1" uniFB90 dx=110 dy=0 dh=110 dv=0 dx=0 dy=0 dh=0 dv=0
PairPos2: "'kern' Horizontal Kerning in Arabic lookup 2 per glyph data 1" uni06A9 dx=110 dy=0 dh=110 dv=0 dx=0 dy=0 dh=0 dv=0
PairPos2: "'kern' Horizontal Kerning in Arabic lookup 2 per glyph data 1" uniFEDB dx=110 dy=0 dh=110 dv=0 dx=0 dy=0 dh=0 dv=0
EndChar

StartChar: j.short
Encoding: 416 -1 41
Width: 226
GlyphClass: 2
Flags: W
AnchorPoint: "Anchor-8" 0 0 basechar 0
AnchorPoint: "Anchor-7" 0 0 basechar 0
AnchorPoint: "Anchor-6" 114 650 basechar 0
AnchorPoint: "Anchor-5" 0 0 basechar 0
AnchorPoint: "Anchor-4" 36 -186 basechar 0
LayerCount: 2
Fore
SplineSet
83 535.5 m 128,-1,1
 69 544 69 544 60.5 558 c 128,-1,2
 52 572 52 572 52 588 c 0,3,4
 52 605 52 605 60.5 619 c 128,-1,5
 69 633 69 633 83 641.5 c 128,-1,6
 97 650 97 650 113 650 c 0,7,8
 130 650 130 650 144 641.5 c 128,-1,9
 158 633 158 633 166.5 619 c 128,-1,10
 175 605 175 605 175 588 c 0,11,12
 175 572 175 572 166.5 558 c 128,-1,13
 158 544 158 544 144 535.5 c 128,-1,14
 130 527 130 527 113 527 c 0,15,0
 97 527 97 527 83 535.5 c 128,-1,1
-20 -188 m 1,17,-1
 0 -121 l 1,18,19
 9 -124 9 -124 21 -124 c 0,20,21
 45 -124 45 -124 57.5 -106.5 c 128,-1,22
 70 -89 70 -89 70 -59 c 2,23,-1
 70 438 l 1,24,-1
 156 448 l 1,25,-1
 156 -57 l 2,26,27
 156 -101 156 -101 140.5 -133 c 128,-1,28
 125 -165 125 -165 98 -181.5 c 128,-1,29
 71 -198 71 -198 36 -198 c 0,30,16
 3 -198 3 -198 -20 -188 c 1,17,-1
EndSplineSet
PairPos2: "'kern' Horizontal Kerning in Arabic lookup 2 per glyph data 2" uni0671 dx=60 dy=0 dh=60 dv=0 dx=0 dy=0 dh=0 dv=0
PairPos2: "'kern' Horizontal Kerning in Arabic lookup 2 per glyph data 2" afii57410 dx=60 dy=0 dh=60 dv=0 dx=0 dy=0 dh=0 dv=0
PairPos2: "'kern' Horizontal Kerning in Arabic lookup 2 per glyph data 2" afii57411 dx=60 dy=0 dh=60 dv=0 dx=0 dy=0 dh=0 dv=0
PairPos2: "'kern' Horizontal Kerning in Arabic lookup 2 per glyph data 2" uniFE8E.short dx=60 dy=0 dh=60 dv=0 dx=0 dy=0 dh=0 dv=0
PairPos2: "'kern' Horizontal Kerning in Arabic lookup 2 per glyph data 2" afii57415.short dx=60 dy=0 dh=60 dv=0 dx=0 dy=0 dh=0 dv=0
PairPos2: "'kern' Horizontal Kerning in Arabic lookup 2 per glyph data 2" afii57415 dx=60 dy=0 dh=60 dv=0 dx=0 dy=0 dh=0 dv=0
PairPos2: "'kern' Horizontal Kerning in Arabic lookup 2 per glyph data 1" uniFEF3 dx=40 dy=0 dh=40 dv=0 dx=0 dy=0 dh=0 dv=0
PairPos2: "'kern' Horizontal Kerning in Arabic lookup 2 per glyph data 1" uniFB58 dx=40 dy=0 dh=40 dv=0 dx=0 dy=0 dh=0 dv=0
PairPos2: "'kern' Horizontal Kerning in Arabic lookup 2 per glyph data 1" afii57413 dx=40 dy=0 dh=40 dv=0 dx=0 dy=0 dh=0 dv=0
PairPos2: "'kern' Horizontal Kerning in Arabic lookup 2 per glyph data 1" uniFB94 dx=110 dy=0 dh=110 dv=0 dx=0 dy=0 dh=0 dv=0
PairPos2: "'kern' Horizontal Kerning in Arabic lookup 2 per glyph data 1" afii57509 dx=110 dy=0 dh=110 dv=0 dx=0 dy=0 dh=0 dv=0
PairPos2: "'kern' Horizontal Kerning in Arabic lookup 2 per glyph data 1" uniFB90 dx=110 dy=0 dh=110 dv=0 dx=0 dy=0 dh=0 dv=0
PairPos2: "'kern' Horizontal Kerning in Arabic lookup 2 per glyph data 1" uni06A9 dx=110 dy=0 dh=110 dv=0 dx=0 dy=0 dh=0 dv=0
PairPos2: "'kern' Horizontal Kerning in Arabic lookup 2 per glyph data 1" uniFEDB dx=110 dy=0 dh=110 dv=0 dx=0 dy=0 dh=0 dv=0
EndChar

StartChar: k
Encoding: 77 107 42
Width: 461
GlyphClass: 2
Flags: W
AnchorPoint: "Anchor-8" 156 688 basechar 0
AnchorPoint: "Anchor-7" 113 309 basechar 0
AnchorPoint: "Anchor-6" 113 688 basechar 0
AnchorPoint: "Anchor-5" 0 0 basechar 0
AnchorPoint: "Anchor-4" 237 0 basechar 0
LayerCount: 2
Fore
SplineSet
255 234 m 1,0,-1
 446 6 l 1,1,-1
 446 0 l 1,2,-1
 341 0 l 1,3,-1
 156 229 l 1,4,-1
 156 0 l 1,5,-1
 70 0 l 1,6,-1
 70 688 l 1,7,-1
 156 698 l 1,8,-1
 156 236 l 1,9,-1
 342 438 l 1,10,-1
 437 438 l 1,11,-1
 437 432 l 1,12,-1
 255 234 l 1,0,-1
EndSplineSet
PairPos2: "'kern' Horizontal Kerning in Arabic lookup 2 per glyph data 2" uni0671 dx=60 dy=0 dh=60 dv=0 dx=0 dy=0 dh=0 dv=0
PairPos2: "'kern' Horizontal Kerning in Arabic lookup 2 per glyph data 2" afii57410 dx=60 dy=0 dh=60 dv=0 dx=0 dy=0 dh=0 dv=0
PairPos2: "'kern' Horizontal Kerning in Arabic lookup 2 per glyph data 2" afii57411 dx=60 dy=0 dh=60 dv=0 dx=0 dy=0 dh=0 dv=0
PairPos2: "'kern' Horizontal Kerning in Arabic lookup 2 per glyph data 2" uniFE8E.short dx=60 dy=0 dh=60 dv=0 dx=0 dy=0 dh=0 dv=0
PairPos2: "'kern' Horizontal Kerning in Arabic lookup 2 per glyph data 2" afii57415.short dx=60 dy=0 dh=60 dv=0 dx=0 dy=0 dh=0 dv=0
PairPos2: "'kern' Horizontal Kerning in Arabic lookup 2 per glyph data 2" afii57415 dx=60 dy=0 dh=60 dv=0 dx=0 dy=0 dh=0 dv=0
PairPos2: "'kern' Horizontal Kerning in Arabic lookup 2 per glyph data 1" uniFEF3 dx=40 dy=0 dh=40 dv=0 dx=0 dy=0 dh=0 dv=0
PairPos2: "'kern' Horizontal Kerning in Arabic lookup 2 per glyph data 1" uniFB58 dx=40 dy=0 dh=40 dv=0 dx=0 dy=0 dh=0 dv=0
PairPos2: "'kern' Horizontal Kerning in Arabic lookup 2 per glyph data 1" afii57413 dx=40 dy=0 dh=40 dv=0 dx=0 dy=0 dh=0 dv=0
PairPos2: "'kern' Horizontal Kerning in Arabic lookup 2 per glyph data 1" uniFB94 dx=110 dy=0 dh=110 dv=0 dx=0 dy=0 dh=0 dv=0
PairPos2: "'kern' Horizontal Kerning in Arabic lookup 2 per glyph data 1" afii57509 dx=110 dy=0 dh=110 dv=0 dx=0 dy=0 dh=0 dv=0
PairPos2: "'kern' Horizontal Kerning in Arabic lookup 2 per glyph data 1" uniFB90 dx=110 dy=0 dh=110 dv=0 dx=0 dy=0 dh=0 dv=0
PairPos2: "'kern' Horizontal Kerning in Arabic lookup 2 per glyph data 1" uni06A9 dx=110 dy=0 dh=110 dv=0 dx=0 dy=0 dh=0 dv=0
PairPos2: "'kern' Horizontal Kerning in Arabic lookup 2 per glyph data 1" uniFEDB dx=110 dy=0 dh=110 dv=0 dx=0 dy=0 dh=0 dv=0
EndChar

StartChar: l
Encoding: 78 108 43
Width: 226
GlyphClass: 2
Flags: W
AnchorPoint: "Anchor-8" 156 688 basechar 0
AnchorPoint: "Anchor-7" 113 309 basechar 0
AnchorPoint: "Anchor-6" 113 688 basechar 0
AnchorPoint: "Anchor-5" 0 0 basechar 0
AnchorPoint: "Anchor-4" 113 0 basechar 0
LayerCount: 2
Fore
SplineSet
70 0 m 1,0,-1
 70 688 l 1,1,-1
 156 698 l 1,2,-1
 156 0 l 1,3,-1
 70 0 l 1,0,-1
EndSplineSet
PairPos2: "'kern' Horizontal Kerning in Arabic lookup 2 per glyph data 2" uni0671 dx=60 dy=0 dh=60 dv=0 dx=0 dy=0 dh=0 dv=0
PairPos2: "'kern' Horizontal Kerning in Arabic lookup 2 per glyph data 2" afii57410 dx=60 dy=0 dh=60 dv=0 dx=0 dy=0 dh=0 dv=0
PairPos2: "'kern' Horizontal Kerning in Arabic lookup 2 per glyph data 2" afii57411 dx=60 dy=0 dh=60 dv=0 dx=0 dy=0 dh=0 dv=0
PairPos2: "'kern' Horizontal Kerning in Arabic lookup 2 per glyph data 2" uniFE8E.short dx=60 dy=0 dh=60 dv=0 dx=0 dy=0 dh=0 dv=0
PairPos2: "'kern' Horizontal Kerning in Arabic lookup 2 per glyph data 2" afii57415.short dx=60 dy=0 dh=60 dv=0 dx=0 dy=0 dh=0 dv=0
PairPos2: "'kern' Horizontal Kerning in Arabic lookup 2 per glyph data 2" afii57415 dx=60 dy=0 dh=60 dv=0 dx=0 dy=0 dh=0 dv=0
PairPos2: "'kern' Horizontal Kerning in Arabic lookup 2 per glyph data 1" uniFEF3 dx=40 dy=0 dh=40 dv=0 dx=0 dy=0 dh=0 dv=0
PairPos2: "'kern' Horizontal Kerning in Arabic lookup 2 per glyph data 1" uniFB58 dx=40 dy=0 dh=40 dv=0 dx=0 dy=0 dh=0 dv=0
PairPos2: "'kern' Horizontal Kerning in Arabic lookup 2 per glyph data 1" afii57413 dx=40 dy=0 dh=40 dv=0 dx=0 dy=0 dh=0 dv=0
PairPos2: "'kern' Horizontal Kerning in Arabic lookup 2 per glyph data 1" uniFB94 dx=110 dy=0 dh=110 dv=0 dx=0 dy=0 dh=0 dv=0
PairPos2: "'kern' Horizontal Kerning in Arabic lookup 2 per glyph data 1" afii57509 dx=110 dy=0 dh=110 dv=0 dx=0 dy=0 dh=0 dv=0
PairPos2: "'kern' Horizontal Kerning in Arabic lookup 2 per glyph data 1" uniFB90 dx=110 dy=0 dh=110 dv=0 dx=0 dy=0 dh=0 dv=0
PairPos2: "'kern' Horizontal Kerning in Arabic lookup 2 per glyph data 1" uni06A9 dx=110 dy=0 dh=110 dv=0 dx=0 dy=0 dh=0 dv=0
PairPos2: "'kern' Horizontal Kerning in Arabic lookup 2 per glyph data 1" uniFEDB dx=110 dy=0 dh=110 dv=0 dx=0 dy=0 dh=0 dv=0
EndChar

StartChar: m
Encoding: 79 109 44
Width: 771
GlyphClass: 2
Flags: W
AnchorPoint: "Anchor-8" 0 0 basechar 0
AnchorPoint: "Anchor-7" 0 0 basechar 0
AnchorPoint: "Anchor-6" 402 438 basechar 0
AnchorPoint: "Anchor-5" 0 0 basechar 0
AnchorPoint: "Anchor-4" 386 0 basechar 0
LayerCount: 2
Fore
SplineSet
672 418 m 128,-1,1
 706 386 706 386 706 314 c 2,2,-1
 706 0 l 1,3,-1
 620 0 l 1,4,-1
 620 279 l 2,5,6
 620 316 620 316 613 336.5 c 128,-1,7
 606 357 606 357 591 366 c 128,-1,8
 576 375 576 375 549 375 c 0,9,10
 520 375 520 375 488 366.5 c 128,-1,11
 456 358 456 358 428 344 c 1,12,13
 430 324 430 324 430 314 c 2,14,-1
 430 0 l 1,15,-1
 344 0 l 1,16,-1
 344 279 l 2,17,18
 344 316 344 316 337.5 336.5 c 128,-1,19
 331 357 331 357 316 366 c 128,-1,20
 301 375 301 375 274 375 c 0,21,22
 246 375 246 375 215 366.5 c 128,-1,23
 184 358 184 358 156 345 c 1,24,-1
 156 0 l 1,25,-1
 70 0 l 1,26,-1
 70 438 l 1,27,-1
 156 448 l 1,28,-1
 156 406 l 1,29,30
 233 450 233 450 306 450 c 0,31,32
 380 450 380 450 410 401 c 1,33,34
 446 422 446 422 491.5 436 c 128,-1,35
 537 450 537 450 581 450 c 0,36,0
 638 450 638 450 672 418 c 128,-1,1
EndSplineSet
PairPos2: "'kern' Horizontal Kerning in Arabic lookup 2 per glyph data 2" uni0671 dx=60 dy=0 dh=60 dv=0 dx=0 dy=0 dh=0 dv=0
PairPos2: "'kern' Horizontal Kerning in Arabic lookup 2 per glyph data 2" afii57410 dx=60 dy=0 dh=60 dv=0 dx=0 dy=0 dh=0 dv=0
PairPos2: "'kern' Horizontal Kerning in Arabic lookup 2 per glyph data 2" afii57411 dx=60 dy=0 dh=60 dv=0 dx=0 dy=0 dh=0 dv=0
PairPos2: "'kern' Horizontal Kerning in Arabic lookup 2 per glyph data 2" uniFE8E.short dx=60 dy=0 dh=60 dv=0 dx=0 dy=0 dh=0 dv=0
PairPos2: "'kern' Horizontal Kerning in Arabic lookup 2 per glyph data 2" afii57415.short dx=60 dy=0 dh=60 dv=0 dx=0 dy=0 dh=0 dv=0
PairPos2: "'kern' Horizontal Kerning in Arabic lookup 2 per glyph data 2" afii57415 dx=60 dy=0 dh=60 dv=0 dx=0 dy=0 dh=0 dv=0
PairPos2: "'kern' Horizontal Kerning in Arabic lookup 2 per glyph data 1" uniFEF3 dx=40 dy=0 dh=40 dv=0 dx=0 dy=0 dh=0 dv=0
PairPos2: "'kern' Horizontal Kerning in Arabic lookup 2 per glyph data 1" uniFB58 dx=40 dy=0 dh=40 dv=0 dx=0 dy=0 dh=0 dv=0
PairPos2: "'kern' Horizontal Kerning in Arabic lookup 2 per glyph data 1" afii57413 dx=40 dy=0 dh=40 dv=0 dx=0 dy=0 dh=0 dv=0
PairPos2: "'kern' Horizontal Kerning in Arabic lookup 2 per glyph data 1" uniFB94 dx=110 dy=0 dh=110 dv=0 dx=0 dy=0 dh=0 dv=0
PairPos2: "'kern' Horizontal Kerning in Arabic lookup 2 per glyph data 1" afii57509 dx=110 dy=0 dh=110 dv=0 dx=0 dy=0 dh=0 dv=0
PairPos2: "'kern' Horizontal Kerning in Arabic lookup 2 per glyph data 1" uniFB90 dx=110 dy=0 dh=110 dv=0 dx=0 dy=0 dh=0 dv=0
PairPos2: "'kern' Horizontal Kerning in Arabic lookup 2 per glyph data 1" uni06A9 dx=110 dy=0 dh=110 dv=0 dx=0 dy=0 dh=0 dv=0
PairPos2: "'kern' Horizontal Kerning in Arabic lookup 2 per glyph data 1" uniFEDB dx=110 dy=0 dh=110 dv=0 dx=0 dy=0 dh=0 dv=0
EndChar

StartChar: n
Encoding: 80 110 45
Width: 515
GlyphClass: 2
Flags: W
AnchorPoint: "Anchor-8" 0 0 basechar 0
AnchorPoint: "Anchor-7" 0 0 basechar 0
AnchorPoint: "Anchor-6" 268 438 basechar 0
AnchorPoint: "Anchor-5" 0 0 basechar 0
AnchorPoint: "Anchor-4" 258 0 basechar 0
LayerCount: 2
Fore
SplineSet
450 311 m 2,1,-1
 450 0 l 1,2,-1
 364 0 l 1,3,-1
 364 279 l 2,4,5
 364 316 364 316 356.5 336.5 c 128,-1,6
 349 357 349 357 331.5 366 c 128,-1,7
 314 375 314 375 284 375 c 256,8,9
 254 375 254 375 220 366.5 c 128,-1,10
 186 358 186 358 156 344 c 1,11,-1
 156 0 l 1,12,-1
 70 0 l 1,13,-1
 70 438 l 1,14,-1
 156 448 l 1,15,-1
 156 406 l 1,16,17
 240 450 240 450 316 450 c 0,18,0
 450 450 450 450 450 311 c 2,1,-1
EndSplineSet
PairPos2: "'kern' Horizontal Kerning in Arabic lookup 2 per glyph data 2" uni0671 dx=60 dy=0 dh=60 dv=0 dx=0 dy=0 dh=0 dv=0
PairPos2: "'kern' Horizontal Kerning in Arabic lookup 2 per glyph data 2" afii57410 dx=60 dy=0 dh=60 dv=0 dx=0 dy=0 dh=0 dv=0
PairPos2: "'kern' Horizontal Kerning in Arabic lookup 2 per glyph data 2" afii57411 dx=60 dy=0 dh=60 dv=0 dx=0 dy=0 dh=0 dv=0
PairPos2: "'kern' Horizontal Kerning in Arabic lookup 2 per glyph data 2" uniFE8E.short dx=60 dy=0 dh=60 dv=0 dx=0 dy=0 dh=0 dv=0
PairPos2: "'kern' Horizontal Kerning in Arabic lookup 2 per glyph data 2" afii57415.short dx=60 dy=0 dh=60 dv=0 dx=0 dy=0 dh=0 dv=0
PairPos2: "'kern' Horizontal Kerning in Arabic lookup 2 per glyph data 2" afii57415 dx=60 dy=0 dh=60 dv=0 dx=0 dy=0 dh=0 dv=0
PairPos2: "'kern' Horizontal Kerning in Arabic lookup 2 per glyph data 1" uniFEF3 dx=40 dy=0 dh=40 dv=0 dx=0 dy=0 dh=0 dv=0
PairPos2: "'kern' Horizontal Kerning in Arabic lookup 2 per glyph data 1" uniFB58 dx=40 dy=0 dh=40 dv=0 dx=0 dy=0 dh=0 dv=0
PairPos2: "'kern' Horizontal Kerning in Arabic lookup 2 per glyph data 1" afii57413 dx=40 dy=0 dh=40 dv=0 dx=0 dy=0 dh=0 dv=0
PairPos2: "'kern' Horizontal Kerning in Arabic lookup 2 per glyph data 1" uniFB94 dx=110 dy=0 dh=110 dv=0 dx=0 dy=0 dh=0 dv=0
PairPos2: "'kern' Horizontal Kerning in Arabic lookup 2 per glyph data 1" afii57509 dx=110 dy=0 dh=110 dv=0 dx=0 dy=0 dh=0 dv=0
PairPos2: "'kern' Horizontal Kerning in Arabic lookup 2 per glyph data 1" uniFB90 dx=110 dy=0 dh=110 dv=0 dx=0 dy=0 dh=0 dv=0
PairPos2: "'kern' Horizontal Kerning in Arabic lookup 2 per glyph data 1" uni06A9 dx=110 dy=0 dh=110 dv=0 dx=0 dy=0 dh=0 dv=0
PairPos2: "'kern' Horizontal Kerning in Arabic lookup 2 per glyph data 1" uniFEDB dx=110 dy=0 dh=110 dv=0 dx=0 dy=0 dh=0 dv=0
EndChar

StartChar: o
Encoding: 81 111 46
Width: 507
GlyphClass: 2
Flags: W
AnchorPoint: "Anchor-8" 487 438 basechar 0
AnchorPoint: "Anchor-7" 254 219 basechar 0
AnchorPoint: "Anchor-6" 254 438 basechar 0
AnchorPoint: "Anchor-5" 456 10 basechar 0
AnchorPoint: "Anchor-4" 254 0 basechar 0
LayerCount: 2
Fore
SplineSet
128 18.5 m 128,-1,1
 81 49 81 49 58 101.5 c 128,-1,2
 35 154 35 154 35 220 c 0,3,4
 35 300 35 300 65 351.5 c 128,-1,5
 95 403 95 403 146 426.5 c 128,-1,6
 197 450 197 450 262 450 c 0,7,8
 332 450 332 450 379 419.5 c 128,-1,9
 426 389 426 389 449 337 c 128,-1,10
 472 285 472 285 472 219 c 0,11,12
 472 138 472 138 442 86.5 c 128,-1,13
 412 35 412 35 361 11.5 c 128,-1,14
 310 -12 310 -12 245 -12 c 0,15,0
 175 -12 175 -12 128 18.5 c 128,-1,1
382 220 m 0,17,18
 382 293 382 293 350.5 336.5 c 128,-1,19
 319 380 319 380 256 380 c 0,20,21
 186 380 186 380 155.5 337.5 c 128,-1,22
 125 295 125 295 125 220 c 0,23,24
 125 146 125 146 157 102 c 128,-1,25
 189 58 189 58 253 58 c 0,26,16
 382 58 382 58 382 220 c 0,17,18
EndSplineSet
Substitution2: "Single Substitution lookup 23 subtable" ordmasculine
Substitution2: "'aalt' Access All Alternates in Arabic lookup 0 subtable" ordmasculine
PairPos2: "'kern' Horizontal Kerning in Arabic lookup 2 per glyph data 2" uni0671 dx=60 dy=0 dh=60 dv=0 dx=0 dy=0 dh=0 dv=0
PairPos2: "'kern' Horizontal Kerning in Arabic lookup 2 per glyph data 2" afii57410 dx=60 dy=0 dh=60 dv=0 dx=0 dy=0 dh=0 dv=0
PairPos2: "'kern' Horizontal Kerning in Arabic lookup 2 per glyph data 2" afii57411 dx=60 dy=0 dh=60 dv=0 dx=0 dy=0 dh=0 dv=0
PairPos2: "'kern' Horizontal Kerning in Arabic lookup 2 per glyph data 2" uniFE8E.short dx=60 dy=0 dh=60 dv=0 dx=0 dy=0 dh=0 dv=0
PairPos2: "'kern' Horizontal Kerning in Arabic lookup 2 per glyph data 2" afii57415.short dx=60 dy=0 dh=60 dv=0 dx=0 dy=0 dh=0 dv=0
PairPos2: "'kern' Horizontal Kerning in Arabic lookup 2 per glyph data 2" afii57415 dx=60 dy=0 dh=60 dv=0 dx=0 dy=0 dh=0 dv=0
PairPos2: "'kern' Horizontal Kerning in Arabic lookup 2 per glyph data 1" uniFEF3 dx=40 dy=0 dh=40 dv=0 dx=0 dy=0 dh=0 dv=0
PairPos2: "'kern' Horizontal Kerning in Arabic lookup 2 per glyph data 1" uniFB58 dx=40 dy=0 dh=40 dv=0 dx=0 dy=0 dh=0 dv=0
PairPos2: "'kern' Horizontal Kerning in Arabic lookup 2 per glyph data 1" afii57413 dx=40 dy=0 dh=40 dv=0 dx=0 dy=0 dh=0 dv=0
PairPos2: "'kern' Horizontal Kerning in Arabic lookup 2 per glyph data 1" uniFB94 dx=110 dy=0 dh=110 dv=0 dx=0 dy=0 dh=0 dv=0
PairPos2: "'kern' Horizontal Kerning in Arabic lookup 2 per glyph data 1" afii57509 dx=110 dy=0 dh=110 dv=0 dx=0 dy=0 dh=0 dv=0
PairPos2: "'kern' Horizontal Kerning in Arabic lookup 2 per glyph data 1" uniFB90 dx=110 dy=0 dh=110 dv=0 dx=0 dy=0 dh=0 dv=0
PairPos2: "'kern' Horizontal Kerning in Arabic lookup 2 per glyph data 1" uni06A9 dx=110 dy=0 dh=110 dv=0 dx=0 dy=0 dh=0 dv=0
PairPos2: "'kern' Horizontal Kerning in Arabic lookup 2 per glyph data 1" uniFEDB dx=110 dy=0 dh=110 dv=0 dx=0 dy=0 dh=0 dv=0
EndChar

StartChar: p
Encoding: 82 112 47
Width: 512
GlyphClass: 2
Flags: W
AnchorPoint: "Anchor-8" 0 0 basechar 0
AnchorPoint: "Anchor-7" 0 0 basechar 0
AnchorPoint: "Anchor-6" 256 438 basechar 0
AnchorPoint: "Anchor-5" 0 0 basechar 0
AnchorPoint: "Anchor-4" 113 -186 basechar 0
LayerCount: 2
Fore
SplineSet
397 420 m 128,-1,1
 438 390 438 390 457.5 340 c 128,-1,2
 477 290 477 290 477 231 c 0,3,4
 477 155 477 155 447.5 100 c 128,-1,5
 418 45 418 45 367 16.5 c 128,-1,6
 316 -12 316 -12 251 -12 c 0,7,8
 202 -12 202 -12 156 1 c 1,9,-1
 156 -186 l 1,10,-1
 70 -186 l 1,11,-1
 70 438 l 1,12,-1
 156 448 l 1,13,-1
 156 409 l 1,14,15
 192 429 192 429 227.5 439.5 c 128,-1,16
 263 450 263 450 294 450 c 0,17,0
 356 450 356 450 397 420 c 128,-1,1
316.5 74.5 m 128,-1,19
 348 93 348 93 366.5 132 c 128,-1,20
 385 171 385 171 385 229 c 0,21,22
 385 304 385 304 355 340 c 128,-1,23
 325 376 325 376 270 376 c 0,24,25
 212 376 212 376 156 343 c 1,26,-1
 156 71 l 1,27,28
 203 56 203 56 244 56 c 256,29,18
 285 56 285 56 316.5 74.5 c 128,-1,19
EndSplineSet
PairPos2: "'kern' Horizontal Kerning in Arabic lookup 2 per glyph data 2" uni0671 dx=60 dy=0 dh=60 dv=0 dx=0 dy=0 dh=0 dv=0
PairPos2: "'kern' Horizontal Kerning in Arabic lookup 2 per glyph data 2" afii57410 dx=60 dy=0 dh=60 dv=0 dx=0 dy=0 dh=0 dv=0
PairPos2: "'kern' Horizontal Kerning in Arabic lookup 2 per glyph data 2" afii57411 dx=60 dy=0 dh=60 dv=0 dx=0 dy=0 dh=0 dv=0
PairPos2: "'kern' Horizontal Kerning in Arabic lookup 2 per glyph data 2" uniFE8E.short dx=60 dy=0 dh=60 dv=0 dx=0 dy=0 dh=0 dv=0
PairPos2: "'kern' Horizontal Kerning in Arabic lookup 2 per glyph data 2" afii57415.short dx=60 dy=0 dh=60 dv=0 dx=0 dy=0 dh=0 dv=0
PairPos2: "'kern' Horizontal Kerning in Arabic lookup 2 per glyph data 2" afii57415 dx=60 dy=0 dh=60 dv=0 dx=0 dy=0 dh=0 dv=0
PairPos2: "'kern' Horizontal Kerning in Arabic lookup 2 per glyph data 1" uniFEF3 dx=40 dy=0 dh=40 dv=0 dx=0 dy=0 dh=0 dv=0
PairPos2: "'kern' Horizontal Kerning in Arabic lookup 2 per glyph data 1" uniFB58 dx=40 dy=0 dh=40 dv=0 dx=0 dy=0 dh=0 dv=0
PairPos2: "'kern' Horizontal Kerning in Arabic lookup 2 per glyph data 1" afii57413 dx=40 dy=0 dh=40 dv=0 dx=0 dy=0 dh=0 dv=0
PairPos2: "'kern' Horizontal Kerning in Arabic lookup 2 per glyph data 1" uniFB94 dx=110 dy=0 dh=110 dv=0 dx=0 dy=0 dh=0 dv=0
PairPos2: "'kern' Horizontal Kerning in Arabic lookup 2 per glyph data 1" afii57509 dx=110 dy=0 dh=110 dv=0 dx=0 dy=0 dh=0 dv=0
PairPos2: "'kern' Horizontal Kerning in Arabic lookup 2 per glyph data 1" uniFB90 dx=110 dy=0 dh=110 dv=0 dx=0 dy=0 dh=0 dv=0
PairPos2: "'kern' Horizontal Kerning in Arabic lookup 2 per glyph data 1" uni06A9 dx=110 dy=0 dh=110 dv=0 dx=0 dy=0 dh=0 dv=0
PairPos2: "'kern' Horizontal Kerning in Arabic lookup 2 per glyph data 1" uniFEDB dx=110 dy=0 dh=110 dv=0 dx=0 dy=0 dh=0 dv=0
EndChar

StartChar: q
Encoding: 83 113 48
Width: 512
GlyphClass: 2
Flags: W
AnchorPoint: "Anchor-8" 0 0 basechar 0
AnchorPoint: "Anchor-7" 0 0 basechar 0
AnchorPoint: "Anchor-6" 253 438 basechar 0
AnchorPoint: "Anchor-5" 0 0 basechar 0
AnchorPoint: "Anchor-4" 399 -186 basechar 0
LayerCount: 2
Fore
SplineSet
442 421 m 1,1,-1
 442 -186 l 1,2,-1
 356 -186 l 1,3,-1
 356 27 l 1,4,5
 286 -12 286 -12 213 -12 c 0,6,7
 156 -12 156 -12 116 16 c 128,-1,8
 76 44 76 44 55.5 92.5 c 128,-1,9
 35 141 35 141 35 203 c 0,10,11
 35 292 35 292 72.5 347.5 c 128,-1,12
 110 403 110 403 167 426.5 c 128,-1,13
 224 450 224 450 285 450 c 0,14,0
 350 450 350 450 442 421 c 1,1,-1
356 91 m 1,16,-1
 356 371 l 1,17,18
 318 379 318 379 288 379 c 0,19,20
 217 379 217 379 172 337.5 c 128,-1,21
 127 296 127 296 127 201 c 0,22,23
 127 135 127 135 155.5 98.5 c 128,-1,24
 184 62 184 62 237 62 c 0,25,15
 293 62 293 62 356 91 c 1,16,-1
EndSplineSet
PairPos2: "'kern' Horizontal Kerning in Arabic lookup 2 per glyph data 2" uni0671 dx=60 dy=0 dh=60 dv=0 dx=0 dy=0 dh=0 dv=0
PairPos2: "'kern' Horizontal Kerning in Arabic lookup 2 per glyph data 2" afii57410 dx=60 dy=0 dh=60 dv=0 dx=0 dy=0 dh=0 dv=0
PairPos2: "'kern' Horizontal Kerning in Arabic lookup 2 per glyph data 2" afii57411 dx=60 dy=0 dh=60 dv=0 dx=0 dy=0 dh=0 dv=0
PairPos2: "'kern' Horizontal Kerning in Arabic lookup 2 per glyph data 2" uniFE8E.short dx=60 dy=0 dh=60 dv=0 dx=0 dy=0 dh=0 dv=0
PairPos2: "'kern' Horizontal Kerning in Arabic lookup 2 per glyph data 2" afii57415.short dx=60 dy=0 dh=60 dv=0 dx=0 dy=0 dh=0 dv=0
PairPos2: "'kern' Horizontal Kerning in Arabic lookup 2 per glyph data 2" afii57415 dx=60 dy=0 dh=60 dv=0 dx=0 dy=0 dh=0 dv=0
PairPos2: "'kern' Horizontal Kerning in Arabic lookup 2 per glyph data 1" uniFEF3 dx=40 dy=0 dh=40 dv=0 dx=0 dy=0 dh=0 dv=0
PairPos2: "'kern' Horizontal Kerning in Arabic lookup 2 per glyph data 1" uniFB58 dx=40 dy=0 dh=40 dv=0 dx=0 dy=0 dh=0 dv=0
PairPos2: "'kern' Horizontal Kerning in Arabic lookup 2 per glyph data 1" afii57413 dx=40 dy=0 dh=40 dv=0 dx=0 dy=0 dh=0 dv=0
PairPos2: "'kern' Horizontal Kerning in Arabic lookup 2 per glyph data 1" uniFB94 dx=110 dy=0 dh=110 dv=0 dx=0 dy=0 dh=0 dv=0
PairPos2: "'kern' Horizontal Kerning in Arabic lookup 2 per glyph data 1" afii57509 dx=110 dy=0 dh=110 dv=0 dx=0 dy=0 dh=0 dv=0
PairPos2: "'kern' Horizontal Kerning in Arabic lookup 2 per glyph data 1" uniFB90 dx=110 dy=0 dh=110 dv=0 dx=0 dy=0 dh=0 dv=0
PairPos2: "'kern' Horizontal Kerning in Arabic lookup 2 per glyph data 1" uni06A9 dx=110 dy=0 dh=110 dv=0 dx=0 dy=0 dh=0 dv=0
PairPos2: "'kern' Horizontal Kerning in Arabic lookup 2 per glyph data 1" uniFEDB dx=110 dy=0 dh=110 dv=0 dx=0 dy=0 dh=0 dv=0
EndChar

StartChar: r
Encoding: 84 114 49
Width: 360
GlyphClass: 2
Flags: W
AnchorPoint: "Anchor-8" 0 0 basechar 0
AnchorPoint: "Anchor-7" 0 0 basechar 0
AnchorPoint: "Anchor-6" 193 438 basechar 0
AnchorPoint: "Anchor-5" 0 0 basechar 0
AnchorPoint: "Anchor-4" 114 0 basechar 0
LayerCount: 2
Fore
SplineSet
315 448 m 128,-1,1
 329 446 329 446 345 442 c 1,2,-1
 329 353 l 1,3,4
 295 365 295 365 267 365 c 0,5,6
 235 365 235 365 208 351 c 128,-1,7
 181 337 181 337 156 298 c 1,8,-1
 156 0 l 1,9,-1
 70 0 l 1,10,-1
 70 439 l 1,11,-1
 156 448 l 1,12,-1
 156 385 l 1,13,14
 181 417 181 417 214 433.5 c 128,-1,15
 247 450 247 450 284 450 c 0,16,0
 301 450 301 450 315 448 c 128,-1,1
EndSplineSet
PairPos2: "'kern' Horizontal Kerning in Arabic lookup 2 per glyph data 2" uni0671 dx=60 dy=0 dh=60 dv=0 dx=0 dy=0 dh=0 dv=0
PairPos2: "'kern' Horizontal Kerning in Arabic lookup 2 per glyph data 2" afii57410 dx=60 dy=0 dh=60 dv=0 dx=0 dy=0 dh=0 dv=0
PairPos2: "'kern' Horizontal Kerning in Arabic lookup 2 per glyph data 2" afii57411 dx=60 dy=0 dh=60 dv=0 dx=0 dy=0 dh=0 dv=0
PairPos2: "'kern' Horizontal Kerning in Arabic lookup 2 per glyph data 2" uniFE8E.short dx=60 dy=0 dh=60 dv=0 dx=0 dy=0 dh=0 dv=0
PairPos2: "'kern' Horizontal Kerning in Arabic lookup 2 per glyph data 2" afii57415.short dx=60 dy=0 dh=60 dv=0 dx=0 dy=0 dh=0 dv=0
PairPos2: "'kern' Horizontal Kerning in Arabic lookup 2 per glyph data 2" afii57415 dx=60 dy=0 dh=60 dv=0 dx=0 dy=0 dh=0 dv=0
PairPos2: "'kern' Horizontal Kerning in Arabic lookup 2 per glyph data 1" uniFEF3 dx=40 dy=0 dh=40 dv=0 dx=0 dy=0 dh=0 dv=0
PairPos2: "'kern' Horizontal Kerning in Arabic lookup 2 per glyph data 1" uniFB58 dx=40 dy=0 dh=40 dv=0 dx=0 dy=0 dh=0 dv=0
PairPos2: "'kern' Horizontal Kerning in Arabic lookup 2 per glyph data 1" afii57413 dx=40 dy=0 dh=40 dv=0 dx=0 dy=0 dh=0 dv=0
PairPos2: "'kern' Horizontal Kerning in Arabic lookup 2 per glyph data 1" uniFB94 dx=110 dy=0 dh=110 dv=0 dx=0 dy=0 dh=0 dv=0
PairPos2: "'kern' Horizontal Kerning in Arabic lookup 2 per glyph data 1" afii57509 dx=110 dy=0 dh=110 dv=0 dx=0 dy=0 dh=0 dv=0
PairPos2: "'kern' Horizontal Kerning in Arabic lookup 2 per glyph data 1" uniFB90 dx=110 dy=0 dh=110 dv=0 dx=0 dy=0 dh=0 dv=0
PairPos2: "'kern' Horizontal Kerning in Arabic lookup 2 per glyph data 1" uni06A9 dx=110 dy=0 dh=110 dv=0 dx=0 dy=0 dh=0 dv=0
PairPos2: "'kern' Horizontal Kerning in Arabic lookup 2 per glyph data 1" uniFEDB dx=110 dy=0 dh=110 dv=0 dx=0 dy=0 dh=0 dv=0
EndChar

StartChar: s
Encoding: 85 115 50
Width: 421
GlyphClass: 2
Flags: W
AnchorPoint: "Anchor-8" 0 0 basechar 0
AnchorPoint: "Anchor-7" 0 0 basechar 0
AnchorPoint: "Anchor-6" 206 438 basechar 0
AnchorPoint: "Anchor-5" 0 0 basechar 0
AnchorPoint: "Anchor-4" 204 0 basechar 0
LayerCount: 2
Fore
SplineSet
107 2.5 m 128,-1,1
 60 17 60 17 20 47 c 1,2,-1
 58 108 l 1,3,4
 131 56 131 56 210 56 c 0,5,6
 255 56 255 56 279 71.5 c 128,-1,7
 303 87 303 87 303 117 c 0,8,9
 303 141 303 141 281.5 158.5 c 128,-1,10
 260 176 260 176 206 190 c 2,11,-1
 175 198 l 2,12,13
 105 216 105 216 72.5 245.5 c 128,-1,14
 40 275 40 275 40 324 c 0,15,16
 40 361 40 361 61 389.5 c 128,-1,17
 82 418 82 418 119.5 434 c 128,-1,18
 157 450 157 450 204 450 c 0,19,20
 249 450 249 450 290.5 439.5 c 128,-1,21
 332 429 332 429 375 404 c 1,22,-1
 340 343 l 1,23,24
 299 365 299 365 269 373.5 c 128,-1,25
 239 382 239 382 205 382 c 0,26,27
 169 382 169 382 148.5 367.5 c 128,-1,28
 128 353 128 353 128 329 c 0,29,30
 128 308 128 308 144.5 296.5 c 128,-1,31
 161 285 161 285 202 274 c 2,32,-1
 233 266 l 2,33,34
 290 251 290 251 324.5 232 c 128,-1,35
 359 213 359 213 375 186.5 c 128,-1,36
 391 160 391 160 391 123 c 0,37,38
 391 83 391 83 370.5 52.5 c 128,-1,39
 350 22 350 22 310 5 c 128,-1,40
 270 -12 270 -12 213 -12 c 0,41,0
 154 -12 154 -12 107 2.5 c 128,-1,1
EndSplineSet
PairPos2: "'kern' Horizontal Kerning in Arabic lookup 2 per glyph data 2" uni0671 dx=60 dy=0 dh=60 dv=0 dx=0 dy=0 dh=0 dv=0
PairPos2: "'kern' Horizontal Kerning in Arabic lookup 2 per glyph data 2" afii57410 dx=60 dy=0 dh=60 dv=0 dx=0 dy=0 dh=0 dv=0
PairPos2: "'kern' Horizontal Kerning in Arabic lookup 2 per glyph data 2" afii57411 dx=60 dy=0 dh=60 dv=0 dx=0 dy=0 dh=0 dv=0
PairPos2: "'kern' Horizontal Kerning in Arabic lookup 2 per glyph data 2" uniFE8E.short dx=60 dy=0 dh=60 dv=0 dx=0 dy=0 dh=0 dv=0
PairPos2: "'kern' Horizontal Kerning in Arabic lookup 2 per glyph data 2" afii57415.short dx=60 dy=0 dh=60 dv=0 dx=0 dy=0 dh=0 dv=0
PairPos2: "'kern' Horizontal Kerning in Arabic lookup 2 per glyph data 2" afii57415 dx=60 dy=0 dh=60 dv=0 dx=0 dy=0 dh=0 dv=0
PairPos2: "'kern' Horizontal Kerning in Arabic lookup 2 per glyph data 1" uniFEF3 dx=40 dy=0 dh=40 dv=0 dx=0 dy=0 dh=0 dv=0
PairPos2: "'kern' Horizontal Kerning in Arabic lookup 2 per glyph data 1" uniFB58 dx=40 dy=0 dh=40 dv=0 dx=0 dy=0 dh=0 dv=0
PairPos2: "'kern' Horizontal Kerning in Arabic lookup 2 per glyph data 1" afii57413 dx=40 dy=0 dh=40 dv=0 dx=0 dy=0 dh=0 dv=0
PairPos2: "'kern' Horizontal Kerning in Arabic lookup 2 per glyph data 1" uniFB94 dx=110 dy=0 dh=110 dv=0 dx=0 dy=0 dh=0 dv=0
PairPos2: "'kern' Horizontal Kerning in Arabic lookup 2 per glyph data 1" afii57509 dx=110 dy=0 dh=110 dv=0 dx=0 dy=0 dh=0 dv=0
PairPos2: "'kern' Horizontal Kerning in Arabic lookup 2 per glyph data 1" uniFB90 dx=110 dy=0 dh=110 dv=0 dx=0 dy=0 dh=0 dv=0
PairPos2: "'kern' Horizontal Kerning in Arabic lookup 2 per glyph data 1" uni06A9 dx=110 dy=0 dh=110 dv=0 dx=0 dy=0 dh=0 dv=0
PairPos2: "'kern' Horizontal Kerning in Arabic lookup 2 per glyph data 1" uniFEDB dx=110 dy=0 dh=110 dv=0 dx=0 dy=0 dh=0 dv=0
EndChar

StartChar: t
Encoding: 86 116 51
Width: 362
GlyphClass: 2
Flags: W
AnchorPoint: "Anchor-8" 189 648 basechar 0
AnchorPoint: "Anchor-7" 156 265 basechar 0
AnchorPoint: "Anchor-6" 146 545 basechar 0
AnchorPoint: "Anchor-5" 0 0 basechar 0
AnchorPoint: "Anchor-4" 229 0 basechar 0
LayerCount: 2
Fore
SplineSet
347 16 m 1,0,1
 295 -12 295 -12 237 -12 c 0,2,3
 175 -12 175 -12 139 23.5 c 128,-1,4
 103 59 103 59 103 130 c 2,5,-1
 103 370 l 1,6,-1
 15 370 l 1,7,-1
 15 438 l 1,8,-1
 103 438 l 1,9,-1
 103 537 l 1,10,-1
 189 551 l 1,11,-1
 189 438 l 1,12,-1
 337 438 l 1,13,-1
 328 370 l 1,14,-1
 189 370 l 1,15,-1
 189 144 l 2,16,17
 189 60 189 60 251 60 c 0,18,19
 269 60 269 60 286 64 c 128,-1,20
 303 68 303 68 323 77 c 1,21,-1
 347 16 l 1,0,1
EndSplineSet
PairPos2: "'kern' Horizontal Kerning in Arabic lookup 2 per glyph data 2" uni0671 dx=60 dy=0 dh=60 dv=0 dx=0 dy=0 dh=0 dv=0
PairPos2: "'kern' Horizontal Kerning in Arabic lookup 2 per glyph data 2" afii57410 dx=60 dy=0 dh=60 dv=0 dx=0 dy=0 dh=0 dv=0
PairPos2: "'kern' Horizontal Kerning in Arabic lookup 2 per glyph data 2" afii57411 dx=60 dy=0 dh=60 dv=0 dx=0 dy=0 dh=0 dv=0
PairPos2: "'kern' Horizontal Kerning in Arabic lookup 2 per glyph data 2" uniFE8E.short dx=60 dy=0 dh=60 dv=0 dx=0 dy=0 dh=0 dv=0
PairPos2: "'kern' Horizontal Kerning in Arabic lookup 2 per glyph data 2" afii57415.short dx=60 dy=0 dh=60 dv=0 dx=0 dy=0 dh=0 dv=0
PairPos2: "'kern' Horizontal Kerning in Arabic lookup 2 per glyph data 2" afii57415 dx=60 dy=0 dh=60 dv=0 dx=0 dy=0 dh=0 dv=0
PairPos2: "'kern' Horizontal Kerning in Arabic lookup 2 per glyph data 1" uniFEF3 dx=40 dy=0 dh=40 dv=0 dx=0 dy=0 dh=0 dv=0
PairPos2: "'kern' Horizontal Kerning in Arabic lookup 2 per glyph data 1" uniFB58 dx=40 dy=0 dh=40 dv=0 dx=0 dy=0 dh=0 dv=0
PairPos2: "'kern' Horizontal Kerning in Arabic lookup 2 per glyph data 1" afii57413 dx=40 dy=0 dh=40 dv=0 dx=0 dy=0 dh=0 dv=0
PairPos2: "'kern' Horizontal Kerning in Arabic lookup 2 per glyph data 1" uniFB94 dx=110 dy=0 dh=110 dv=0 dx=0 dy=0 dh=0 dv=0
PairPos2: "'kern' Horizontal Kerning in Arabic lookup 2 per glyph data 1" afii57509 dx=110 dy=0 dh=110 dv=0 dx=0 dy=0 dh=0 dv=0
PairPos2: "'kern' Horizontal Kerning in Arabic lookup 2 per glyph data 1" uniFB90 dx=110 dy=0 dh=110 dv=0 dx=0 dy=0 dh=0 dv=0
PairPos2: "'kern' Horizontal Kerning in Arabic lookup 2 per glyph data 1" uni06A9 dx=110 dy=0 dh=110 dv=0 dx=0 dy=0 dh=0 dv=0
PairPos2: "'kern' Horizontal Kerning in Arabic lookup 2 per glyph data 1" uniFEDB dx=110 dy=0 dh=110 dv=0 dx=0 dy=0 dh=0 dv=0
EndChar

StartChar: u
Encoding: 87 117 52
Width: 511
GlyphClass: 2
Flags: W
AnchorPoint: "Anchor-8" 491 438 basechar 0
AnchorPoint: "Anchor-7" 0 0 basechar 0
AnchorPoint: "Anchor-6" 256 438 basechar 0
AnchorPoint: "Anchor-5" 471 10 basechar 0
AnchorPoint: "Anchor-4" 256 0 basechar 0
LayerCount: 2
Fore
SplineSet
441 448 m 1,0,-1
 441 0 l 1,1,-1
 364 0 l 1,2,-1
 359 33 l 1,3,4
 282 -12 282 -12 203 -12 c 0,5,6
 142 -12 142 -12 103.5 22.5 c 128,-1,7
 65 57 65 57 65 127 c 2,8,-1
 65 438 l 1,9,-1
 151 448 l 1,10,-1
 151 152 l 2,11,12
 151 119 151 119 159 99.5 c 128,-1,13
 167 80 167 80 185 71.5 c 128,-1,14
 203 63 203 63 235 63 c 0,15,16
 283 63 283 63 355 100 c 1,17,-1
 355 438 l 1,18,-1
 441 448 l 1,0,-1
EndSplineSet
PairPos2: "'kern' Horizontal Kerning in Arabic lookup 2 per glyph data 2" uni0671 dx=60 dy=0 dh=60 dv=0 dx=0 dy=0 dh=0 dv=0
PairPos2: "'kern' Horizontal Kerning in Arabic lookup 2 per glyph data 2" afii57410 dx=60 dy=0 dh=60 dv=0 dx=0 dy=0 dh=0 dv=0
PairPos2: "'kern' Horizontal Kerning in Arabic lookup 2 per glyph data 2" afii57411 dx=60 dy=0 dh=60 dv=0 dx=0 dy=0 dh=0 dv=0
PairPos2: "'kern' Horizontal Kerning in Arabic lookup 2 per glyph data 2" uniFE8E.short dx=60 dy=0 dh=60 dv=0 dx=0 dy=0 dh=0 dv=0
PairPos2: "'kern' Horizontal Kerning in Arabic lookup 2 per glyph data 2" afii57415.short dx=60 dy=0 dh=60 dv=0 dx=0 dy=0 dh=0 dv=0
PairPos2: "'kern' Horizontal Kerning in Arabic lookup 2 per glyph data 2" afii57415 dx=60 dy=0 dh=60 dv=0 dx=0 dy=0 dh=0 dv=0
PairPos2: "'kern' Horizontal Kerning in Arabic lookup 2 per glyph data 1" uniFEF3 dx=40 dy=0 dh=40 dv=0 dx=0 dy=0 dh=0 dv=0
PairPos2: "'kern' Horizontal Kerning in Arabic lookup 2 per glyph data 1" uniFB58 dx=40 dy=0 dh=40 dv=0 dx=0 dy=0 dh=0 dv=0
PairPos2: "'kern' Horizontal Kerning in Arabic lookup 2 per glyph data 1" afii57413 dx=40 dy=0 dh=40 dv=0 dx=0 dy=0 dh=0 dv=0
PairPos2: "'kern' Horizontal Kerning in Arabic lookup 2 per glyph data 1" uniFB94 dx=110 dy=0 dh=110 dv=0 dx=0 dy=0 dh=0 dv=0
PairPos2: "'kern' Horizontal Kerning in Arabic lookup 2 per glyph data 1" afii57509 dx=110 dy=0 dh=110 dv=0 dx=0 dy=0 dh=0 dv=0
PairPos2: "'kern' Horizontal Kerning in Arabic lookup 2 per glyph data 1" uniFB90 dx=110 dy=0 dh=110 dv=0 dx=0 dy=0 dh=0 dv=0
PairPos2: "'kern' Horizontal Kerning in Arabic lookup 2 per glyph data 1" uni06A9 dx=110 dy=0 dh=110 dv=0 dx=0 dy=0 dh=0 dv=0
PairPos2: "'kern' Horizontal Kerning in Arabic lookup 2 per glyph data 1" uniFEDB dx=110 dy=0 dh=110 dv=0 dx=0 dy=0 dh=0 dv=0
EndChar

StartChar: v
Encoding: 88 118 53
Width: 451
GlyphClass: 2
Flags: W
AnchorPoint: "Anchor-8" 0 0 basechar 0
AnchorPoint: "Anchor-7" 0 0 basechar 0
AnchorPoint: "Anchor-6" 226 438 basechar 0
AnchorPoint: "Anchor-5" 0 0 basechar 0
AnchorPoint: "Anchor-4" 226 0 basechar 0
LayerCount: 2
Fore
SplineSet
442 438 m 1,0,-1
 442 432 l 1,1,-1
 267 0 l 1,2,-1
 188 0 l 1,3,-1
 9 432 l 1,4,-1
 9 438 l 1,5,-1
 103 438 l 1,6,-1
 209 156 l 2,7,8
 213 146 213 146 225 110 c 2,9,-1
 231 91 l 1,10,11
 241 125 241 125 252 156 c 2,12,-1
 352 438 l 1,13,-1
 442 438 l 1,0,-1
EndSplineSet
PairPos2: "'kern' Horizontal Kerning in Arabic lookup 2 per glyph data 2" uni0671 dx=60 dy=0 dh=60 dv=0 dx=0 dy=0 dh=0 dv=0
PairPos2: "'kern' Horizontal Kerning in Arabic lookup 2 per glyph data 2" afii57410 dx=60 dy=0 dh=60 dv=0 dx=0 dy=0 dh=0 dv=0
PairPos2: "'kern' Horizontal Kerning in Arabic lookup 2 per glyph data 2" afii57411 dx=60 dy=0 dh=60 dv=0 dx=0 dy=0 dh=0 dv=0
PairPos2: "'kern' Horizontal Kerning in Arabic lookup 2 per glyph data 2" uniFE8E.short dx=60 dy=0 dh=60 dv=0 dx=0 dy=0 dh=0 dv=0
PairPos2: "'kern' Horizontal Kerning in Arabic lookup 2 per glyph data 2" afii57415.short dx=60 dy=0 dh=60 dv=0 dx=0 dy=0 dh=0 dv=0
PairPos2: "'kern' Horizontal Kerning in Arabic lookup 2 per glyph data 2" afii57415 dx=60 dy=0 dh=60 dv=0 dx=0 dy=0 dh=0 dv=0
PairPos2: "'kern' Horizontal Kerning in Arabic lookup 2 per glyph data 1" uniFEF3 dx=40 dy=0 dh=40 dv=0 dx=0 dy=0 dh=0 dv=0
PairPos2: "'kern' Horizontal Kerning in Arabic lookup 2 per glyph data 1" uniFB58 dx=40 dy=0 dh=40 dv=0 dx=0 dy=0 dh=0 dv=0
PairPos2: "'kern' Horizontal Kerning in Arabic lookup 2 per glyph data 1" afii57413 dx=40 dy=0 dh=40 dv=0 dx=0 dy=0 dh=0 dv=0
PairPos2: "'kern' Horizontal Kerning in Arabic lookup 2 per glyph data 1" uniFB94 dx=110 dy=0 dh=110 dv=0 dx=0 dy=0 dh=0 dv=0
PairPos2: "'kern' Horizontal Kerning in Arabic lookup 2 per glyph data 1" afii57509 dx=110 dy=0 dh=110 dv=0 dx=0 dy=0 dh=0 dv=0
PairPos2: "'kern' Horizontal Kerning in Arabic lookup 2 per glyph data 1" uniFB90 dx=110 dy=0 dh=110 dv=0 dx=0 dy=0 dh=0 dv=0
PairPos2: "'kern' Horizontal Kerning in Arabic lookup 2 per glyph data 1" uni06A9 dx=110 dy=0 dh=110 dv=0 dx=0 dy=0 dh=0 dv=0
PairPos2: "'kern' Horizontal Kerning in Arabic lookup 2 per glyph data 1" uniFEDB dx=110 dy=0 dh=110 dv=0 dx=0 dy=0 dh=0 dv=0
EndChar

StartChar: w
Encoding: 89 119 54
Width: 668
GlyphClass: 2
Flags: W
AnchorPoint: "Anchor-8" 0 0 basechar 0
AnchorPoint: "Anchor-7" 0 0 basechar 0
AnchorPoint: "Anchor-6" 341 438 basechar 0
AnchorPoint: "Anchor-5" 0 0 basechar 0
AnchorPoint: "Anchor-4" 334 0 basechar 0
LayerCount: 2
Fore
SplineSet
656 438 m 1,0,-1
 656 432 l 1,1,-1
 524 0 l 1,2,-1
 438 0 l 1,3,-1
 358 268 l 2,4,5
 342 324 342 324 337 347 c 1,6,7
 333 325 333 325 317 268 c 2,8,-1
 237 0 l 1,9,-1
 156 0 l 1,10,-1
 12 432 l 1,11,-1
 12 438 l 1,12,-1
 106 438 l 1,13,-1
 185 163 l 2,14,15
 190 146 190 146 200 102 c 1,16,17
 206 137 206 137 214 163 c 2,18,-1
 294 438 l 1,19,-1
 388 438 l 1,20,-1
 468 163 l 2,21,22
 476 135 476 135 485 92 c 1,23,24
 492 134 492 134 499 163 c 2,25,-1
 572 438 l 1,26,-1
 656 438 l 1,0,-1
EndSplineSet
PairPos2: "'kern' Horizontal Kerning in Arabic lookup 2 per glyph data 2" uni0671 dx=60 dy=0 dh=60 dv=0 dx=0 dy=0 dh=0 dv=0
PairPos2: "'kern' Horizontal Kerning in Arabic lookup 2 per glyph data 2" afii57410 dx=60 dy=0 dh=60 dv=0 dx=0 dy=0 dh=0 dv=0
PairPos2: "'kern' Horizontal Kerning in Arabic lookup 2 per glyph data 2" afii57411 dx=60 dy=0 dh=60 dv=0 dx=0 dy=0 dh=0 dv=0
PairPos2: "'kern' Horizontal Kerning in Arabic lookup 2 per glyph data 2" uniFE8E.short dx=60 dy=0 dh=60 dv=0 dx=0 dy=0 dh=0 dv=0
PairPos2: "'kern' Horizontal Kerning in Arabic lookup 2 per glyph data 2" afii57415.short dx=60 dy=0 dh=60 dv=0 dx=0 dy=0 dh=0 dv=0
PairPos2: "'kern' Horizontal Kerning in Arabic lookup 2 per glyph data 2" afii57415 dx=60 dy=0 dh=60 dv=0 dx=0 dy=0 dh=0 dv=0
PairPos2: "'kern' Horizontal Kerning in Arabic lookup 2 per glyph data 1" uniFEF3 dx=40 dy=0 dh=40 dv=0 dx=0 dy=0 dh=0 dv=0
PairPos2: "'kern' Horizontal Kerning in Arabic lookup 2 per glyph data 1" uniFB58 dx=40 dy=0 dh=40 dv=0 dx=0 dy=0 dh=0 dv=0
PairPos2: "'kern' Horizontal Kerning in Arabic lookup 2 per glyph data 1" afii57413 dx=40 dy=0 dh=40 dv=0 dx=0 dy=0 dh=0 dv=0
PairPos2: "'kern' Horizontal Kerning in Arabic lookup 2 per glyph data 1" uniFB94 dx=110 dy=0 dh=110 dv=0 dx=0 dy=0 dh=0 dv=0
PairPos2: "'kern' Horizontal Kerning in Arabic lookup 2 per glyph data 1" afii57509 dx=110 dy=0 dh=110 dv=0 dx=0 dy=0 dh=0 dv=0
PairPos2: "'kern' Horizontal Kerning in Arabic lookup 2 per glyph data 1" uniFB90 dx=110 dy=0 dh=110 dv=0 dx=0 dy=0 dh=0 dv=0
PairPos2: "'kern' Horizontal Kerning in Arabic lookup 2 per glyph data 1" uni06A9 dx=110 dy=0 dh=110 dv=0 dx=0 dy=0 dh=0 dv=0
PairPos2: "'kern' Horizontal Kerning in Arabic lookup 2 per glyph data 1" uniFEDB dx=110 dy=0 dh=110 dv=0 dx=0 dy=0 dh=0 dv=0
EndChar

StartChar: x
Encoding: 90 120 55
Width: 445
GlyphClass: 2
Flags: W
AnchorPoint: "Anchor-8" 0 0 basechar 0
AnchorPoint: "Anchor-7" 0 0 basechar 0
AnchorPoint: "Anchor-6" 223 438 basechar 0
AnchorPoint: "Anchor-5" 0 0 basechar 0
AnchorPoint: "Anchor-4" 223 0 basechar 0
LayerCount: 2
Fore
SplineSet
276 226 m 1,0,-1
 432 6 l 1,1,-1
 432 0 l 1,2,-1
 333 0 l 1,3,-1
 222 169 l 1,4,-1
 103 0 l 1,5,-1
 13 0 l 1,6,-1
 13 6 l 1,7,-1
 170 225 l 1,8,-1
 20 432 l 1,9,-1
 20 438 l 1,10,-1
 118 438 l 1,11,-1
 225 282 l 1,12,-1
 333 438 l 1,13,-1
 422 438 l 1,14,-1
 422 432 l 1,15,-1
 276 226 l 1,0,-1
EndSplineSet
PairPos2: "'kern' Horizontal Kerning in Arabic lookup 2 per glyph data 2" uni0671 dx=60 dy=0 dh=60 dv=0 dx=0 dy=0 dh=0 dv=0
PairPos2: "'kern' Horizontal Kerning in Arabic lookup 2 per glyph data 2" afii57410 dx=60 dy=0 dh=60 dv=0 dx=0 dy=0 dh=0 dv=0
PairPos2: "'kern' Horizontal Kerning in Arabic lookup 2 per glyph data 2" afii57411 dx=60 dy=0 dh=60 dv=0 dx=0 dy=0 dh=0 dv=0
PairPos2: "'kern' Horizontal Kerning in Arabic lookup 2 per glyph data 2" uniFE8E.short dx=60 dy=0 dh=60 dv=0 dx=0 dy=0 dh=0 dv=0
PairPos2: "'kern' Horizontal Kerning in Arabic lookup 2 per glyph data 2" afii57415.short dx=60 dy=0 dh=60 dv=0 dx=0 dy=0 dh=0 dv=0
PairPos2: "'kern' Horizontal Kerning in Arabic lookup 2 per glyph data 2" afii57415 dx=60 dy=0 dh=60 dv=0 dx=0 dy=0 dh=0 dv=0
PairPos2: "'kern' Horizontal Kerning in Arabic lookup 2 per glyph data 1" uniFEF3 dx=40 dy=0 dh=40 dv=0 dx=0 dy=0 dh=0 dv=0
PairPos2: "'kern' Horizontal Kerning in Arabic lookup 2 per glyph data 1" uniFB58 dx=40 dy=0 dh=40 dv=0 dx=0 dy=0 dh=0 dv=0
PairPos2: "'kern' Horizontal Kerning in Arabic lookup 2 per glyph data 1" afii57413 dx=40 dy=0 dh=40 dv=0 dx=0 dy=0 dh=0 dv=0
PairPos2: "'kern' Horizontal Kerning in Arabic lookup 2 per glyph data 1" uniFB94 dx=110 dy=0 dh=110 dv=0 dx=0 dy=0 dh=0 dv=0
PairPos2: "'kern' Horizontal Kerning in Arabic lookup 2 per glyph data 1" afii57509 dx=110 dy=0 dh=110 dv=0 dx=0 dy=0 dh=0 dv=0
PairPos2: "'kern' Horizontal Kerning in Arabic lookup 2 per glyph data 1" uniFB90 dx=110 dy=0 dh=110 dv=0 dx=0 dy=0 dh=0 dv=0
PairPos2: "'kern' Horizontal Kerning in Arabic lookup 2 per glyph data 1" uni06A9 dx=110 dy=0 dh=110 dv=0 dx=0 dy=0 dh=0 dv=0
PairPos2: "'kern' Horizontal Kerning in Arabic lookup 2 per glyph data 1" uniFEDB dx=110 dy=0 dh=110 dv=0 dx=0 dy=0 dh=0 dv=0
EndChar

StartChar: y
Encoding: 91 121 56
Width: 448
GlyphClass: 2
Flags: W
AnchorPoint: "Anchor-8" 0 0 basechar 0
AnchorPoint: "Anchor-7" 0 0 basechar 0
AnchorPoint: "Anchor-6" 227 438 basechar 0
AnchorPoint: "Anchor-5" 0 0 basechar 0
AnchorPoint: "Anchor-4" 93 -186 basechar 0
LayerCount: 2
Fore
SplineSet
439 438 m 1,0,-1
 439 432 l 1,1,-1
 272 -31 l 2,2,3
 250 -92 250 -92 225 -128.5 c 128,-1,4
 200 -165 200 -165 168.5 -181.5 c 128,-1,5
 137 -198 137 -198 94 -198 c 0,6,7
 50 -198 50 -198 7 -183 c 1,8,-1
 30 -117 l 1,9,10
 59 -126 59 -126 87 -126 c 0,11,12
 110 -126 110 -126 126 -119 c 128,-1,13
 142 -112 142 -112 157.5 -92 c 128,-1,14
 173 -72 173 -72 188 -32 c 2,15,-1
 200 0 l 1,16,-1
 177 0 l 1,17,-1
 9 432 l 1,18,-1
 9 438 l 1,19,-1
 100 438 l 1,20,-1
 203 158 l 1,21,-1
 214 128 l 1,22,-1
 230 81 l 1,23,-1
 255 158 l 1,24,-1
 351 438 l 1,25,-1
 439 438 l 1,0,-1
EndSplineSet
PairPos2: "'kern' Horizontal Kerning in Arabic lookup 2 per glyph data 2" uni0671 dx=60 dy=0 dh=60 dv=0 dx=0 dy=0 dh=0 dv=0
PairPos2: "'kern' Horizontal Kerning in Arabic lookup 2 per glyph data 2" afii57410 dx=60 dy=0 dh=60 dv=0 dx=0 dy=0 dh=0 dv=0
PairPos2: "'kern' Horizontal Kerning in Arabic lookup 2 per glyph data 2" afii57411 dx=60 dy=0 dh=60 dv=0 dx=0 dy=0 dh=0 dv=0
PairPos2: "'kern' Horizontal Kerning in Arabic lookup 2 per glyph data 2" uniFE8E.short dx=60 dy=0 dh=60 dv=0 dx=0 dy=0 dh=0 dv=0
PairPos2: "'kern' Horizontal Kerning in Arabic lookup 2 per glyph data 2" afii57415.short dx=60 dy=0 dh=60 dv=0 dx=0 dy=0 dh=0 dv=0
PairPos2: "'kern' Horizontal Kerning in Arabic lookup 2 per glyph data 2" afii57415 dx=60 dy=0 dh=60 dv=0 dx=0 dy=0 dh=0 dv=0
PairPos2: "'kern' Horizontal Kerning in Arabic lookup 2 per glyph data 1" uniFEF3 dx=40 dy=0 dh=40 dv=0 dx=0 dy=0 dh=0 dv=0
PairPos2: "'kern' Horizontal Kerning in Arabic lookup 2 per glyph data 1" uniFB58 dx=40 dy=0 dh=40 dv=0 dx=0 dy=0 dh=0 dv=0
PairPos2: "'kern' Horizontal Kerning in Arabic lookup 2 per glyph data 1" afii57413 dx=40 dy=0 dh=40 dv=0 dx=0 dy=0 dh=0 dv=0
PairPos2: "'kern' Horizontal Kerning in Arabic lookup 2 per glyph data 1" uniFB94 dx=110 dy=0 dh=110 dv=0 dx=0 dy=0 dh=0 dv=0
PairPos2: "'kern' Horizontal Kerning in Arabic lookup 2 per glyph data 1" afii57509 dx=110 dy=0 dh=110 dv=0 dx=0 dy=0 dh=0 dv=0
PairPos2: "'kern' Horizontal Kerning in Arabic lookup 2 per glyph data 1" uniFB90 dx=110 dy=0 dh=110 dv=0 dx=0 dy=0 dh=0 dv=0
PairPos2: "'kern' Horizontal Kerning in Arabic lookup 2 per glyph data 1" uni06A9 dx=110 dy=0 dh=110 dv=0 dx=0 dy=0 dh=0 dv=0
PairPos2: "'kern' Horizontal Kerning in Arabic lookup 2 per glyph data 1" uniFEDB dx=110 dy=0 dh=110 dv=0 dx=0 dy=0 dh=0 dv=0
EndChar

StartChar: z
Encoding: 92 122 57
Width: 421
GlyphClass: 2
Flags: W
AnchorPoint: "Anchor-8" 0 0 basechar 0
AnchorPoint: "Anchor-7" 0 0 basechar 0
AnchorPoint: "Anchor-6" 211 438 basechar 0
AnchorPoint: "Anchor-5" 0 0 basechar 0
AnchorPoint: "Anchor-4" 211 0 basechar 0
LayerCount: 2
Fore
SplineSet
148 74 m 1,0,-1
 391 74 l 1,1,-1
 391 0 l 1,2,-1
 25 0 l 1,3,-1
 25 39 l 1,4,-1
 269 364 l 1,5,-1
 42 364 l 1,6,-1
 52 438 l 1,7,-1
 390 438 l 1,8,-1
 390 400 l 1,9,-1
 148 74 l 1,0,-1
EndSplineSet
PairPos2: "'kern' Horizontal Kerning in Arabic lookup 2 per glyph data 2" uni0671 dx=60 dy=0 dh=60 dv=0 dx=0 dy=0 dh=0 dv=0
PairPos2: "'kern' Horizontal Kerning in Arabic lookup 2 per glyph data 2" afii57410 dx=60 dy=0 dh=60 dv=0 dx=0 dy=0 dh=0 dv=0
PairPos2: "'kern' Horizontal Kerning in Arabic lookup 2 per glyph data 2" afii57411 dx=60 dy=0 dh=60 dv=0 dx=0 dy=0 dh=0 dv=0
PairPos2: "'kern' Horizontal Kerning in Arabic lookup 2 per glyph data 2" uniFE8E.short dx=60 dy=0 dh=60 dv=0 dx=0 dy=0 dh=0 dv=0
PairPos2: "'kern' Horizontal Kerning in Arabic lookup 2 per glyph data 2" afii57415.short dx=60 dy=0 dh=60 dv=0 dx=0 dy=0 dh=0 dv=0
PairPos2: "'kern' Horizontal Kerning in Arabic lookup 2 per glyph data 2" afii57415 dx=60 dy=0 dh=60 dv=0 dx=0 dy=0 dh=0 dv=0
PairPos2: "'kern' Horizontal Kerning in Arabic lookup 2 per glyph data 1" uniFEF3 dx=40 dy=0 dh=40 dv=0 dx=0 dy=0 dh=0 dv=0
PairPos2: "'kern' Horizontal Kerning in Arabic lookup 2 per glyph data 1" uniFB58 dx=40 dy=0 dh=40 dv=0 dx=0 dy=0 dh=0 dv=0
PairPos2: "'kern' Horizontal Kerning in Arabic lookup 2 per glyph data 1" afii57413 dx=40 dy=0 dh=40 dv=0 dx=0 dy=0 dh=0 dv=0
PairPos2: "'kern' Horizontal Kerning in Arabic lookup 2 per glyph data 1" uniFB94 dx=110 dy=0 dh=110 dv=0 dx=0 dy=0 dh=0 dv=0
PairPos2: "'kern' Horizontal Kerning in Arabic lookup 2 per glyph data 1" afii57509 dx=110 dy=0 dh=110 dv=0 dx=0 dy=0 dh=0 dv=0
PairPos2: "'kern' Horizontal Kerning in Arabic lookup 2 per glyph data 1" uniFB90 dx=110 dy=0 dh=110 dv=0 dx=0 dy=0 dh=0 dv=0
PairPos2: "'kern' Horizontal Kerning in Arabic lookup 2 per glyph data 1" uni06A9 dx=110 dy=0 dh=110 dv=0 dx=0 dy=0 dh=0 dv=0
PairPos2: "'kern' Horizontal Kerning in Arabic lookup 2 per glyph data 1" uniFEDB dx=110 dy=0 dh=110 dv=0 dx=0 dy=0 dh=0 dv=0
EndChar

StartChar: ordfeminine
Encoding: 107 170 58
Width: 402
GlyphClass: 1
Flags: W
LayerCount: 2
Fore
SplineSet
318.5 631.5 m 128,-1,1
 353 602 353 602 353 539 c 2,2,-1
 353 282 l 1,3,-1
 280 282 l 1,4,-1
 274 312 l 1,5,6
 216 271 216 271 141 271 c 0,7,8
 108 271 108 271 82 283.5 c 128,-1,9
 56 296 56 296 42 319 c 128,-1,10
 28 342 28 342 28 372 c 0,11,12
 28 417 28 417 60.5 447.5 c 128,-1,13
 93 478 93 478 147.5 493 c 128,-1,14
 202 508 202 508 269 510 c 1,15,-1
 269 528 l 2,16,17
 269 562 269 562 255 578 c 128,-1,18
 241 594 241 594 206 594 c 0,19,20
 148 594 148 594 79 550 c 1,21,-1
 43 605 l 1,22,23
 84 632 84 632 126.5 646.5 c 128,-1,24
 169 661 169 661 216 661 c 0,25,0
 284 661 284 661 318.5 631.5 c 128,-1,1
167 340 m 0,27,28
 193 340 193 340 218 347 c 128,-1,29
 243 354 243 354 269 369 c 1,30,-1
 269 452 l 1,31,32
 198 448 198 448 157 430 c 128,-1,33
 116 412 116 412 116 380 c 0,34,26
 116 340 116 340 167 340 c 0,27,28
EndSplineSet
PairPos2: "'kern' Horizontal Kerning in Arabic lookup 2 per glyph data 2" uni0671 dx=60 dy=0 dh=60 dv=0 dx=0 dy=0 dh=0 dv=0
PairPos2: "'kern' Horizontal Kerning in Arabic lookup 2 per glyph data 2" afii57410 dx=60 dy=0 dh=60 dv=0 dx=0 dy=0 dh=0 dv=0
PairPos2: "'kern' Horizontal Kerning in Arabic lookup 2 per glyph data 2" afii57411 dx=60 dy=0 dh=60 dv=0 dx=0 dy=0 dh=0 dv=0
PairPos2: "'kern' Horizontal Kerning in Arabic lookup 2 per glyph data 2" uniFE8E.short dx=60 dy=0 dh=60 dv=0 dx=0 dy=0 dh=0 dv=0
PairPos2: "'kern' Horizontal Kerning in Arabic lookup 2 per glyph data 2" afii57415.short dx=60 dy=0 dh=60 dv=0 dx=0 dy=0 dh=0 dv=0
PairPos2: "'kern' Horizontal Kerning in Arabic lookup 2 per glyph data 2" afii57415 dx=60 dy=0 dh=60 dv=0 dx=0 dy=0 dh=0 dv=0
PairPos2: "'kern' Horizontal Kerning in Arabic lookup 2 per glyph data 1" uniFEF3 dx=40 dy=0 dh=40 dv=0 dx=0 dy=0 dh=0 dv=0
PairPos2: "'kern' Horizontal Kerning in Arabic lookup 2 per glyph data 1" uniFB58 dx=40 dy=0 dh=40 dv=0 dx=0 dy=0 dh=0 dv=0
PairPos2: "'kern' Horizontal Kerning in Arabic lookup 2 per glyph data 1" afii57413 dx=40 dy=0 dh=40 dv=0 dx=0 dy=0 dh=0 dv=0
PairPos2: "'kern' Horizontal Kerning in Arabic lookup 2 per glyph data 1" uniFB94 dx=110 dy=0 dh=110 dv=0 dx=0 dy=0 dh=0 dv=0
PairPos2: "'kern' Horizontal Kerning in Arabic lookup 2 per glyph data 1" afii57509 dx=110 dy=0 dh=110 dv=0 dx=0 dy=0 dh=0 dv=0
PairPos2: "'kern' Horizontal Kerning in Arabic lookup 2 per glyph data 1" uniFB90 dx=110 dy=0 dh=110 dv=0 dx=0 dy=0 dh=0 dv=0
PairPos2: "'kern' Horizontal Kerning in Arabic lookup 2 per glyph data 1" uni06A9 dx=110 dy=0 dh=110 dv=0 dx=0 dy=0 dh=0 dv=0
PairPos2: "'kern' Horizontal Kerning in Arabic lookup 2 per glyph data 1" uniFEDB dx=110 dy=0 dh=110 dv=0 dx=0 dy=0 dh=0 dv=0
EndChar

StartChar: ordmasculine
Encoding: 123 186 59
Width: 436
GlyphClass: 1
Flags: W
LayerCount: 2
Fore
SplineSet
109.5 297 m 128,-1,1
 68 323 68 323 47.5 367.5 c 128,-1,2
 27 412 27 412 27 467 c 0,3,4
 27 534 27 534 53.5 577.5 c 128,-1,5
 80 621 80 621 125 641 c 128,-1,6
 170 661 170 661 225 661 c 0,7,8
 285 661 285 661 327 635 c 128,-1,9
 369 609 369 609 389.5 565 c 128,-1,10
 410 521 410 521 410 466 c 0,11,12
 410 399 410 399 383 355.5 c 128,-1,13
 356 312 356 312 311 291.5 c 128,-1,14
 266 271 266 271 211 271 c 0,15,0
 151 271 151 271 109.5 297 c 128,-1,1
317 467 m 0,17,18
 317 524 317 524 293 558.5 c 128,-1,19
 269 593 269 593 220 593 c 0,20,21
 120 593 120 593 120 467 c 0,22,23
 120 409 120 409 144.5 374 c 128,-1,24
 169 339 169 339 218 339 c 0,25,16
 317 339 317 339 317 467 c 0,17,18
EndSplineSet
PairPos2: "'kern' Horizontal Kerning in Arabic lookup 2 per glyph data 2" uni0671 dx=60 dy=0 dh=60 dv=0 dx=0 dy=0 dh=0 dv=0
PairPos2: "'kern' Horizontal Kerning in Arabic lookup 2 per glyph data 2" afii57410 dx=60 dy=0 dh=60 dv=0 dx=0 dy=0 dh=0 dv=0
PairPos2: "'kern' Horizontal Kerning in Arabic lookup 2 per glyph data 2" afii57411 dx=60 dy=0 dh=60 dv=0 dx=0 dy=0 dh=0 dv=0
PairPos2: "'kern' Horizontal Kerning in Arabic lookup 2 per glyph data 2" uniFE8E.short dx=60 dy=0 dh=60 dv=0 dx=0 dy=0 dh=0 dv=0
PairPos2: "'kern' Horizontal Kerning in Arabic lookup 2 per glyph data 2" afii57415.short dx=60 dy=0 dh=60 dv=0 dx=0 dy=0 dh=0 dv=0
PairPos2: "'kern' Horizontal Kerning in Arabic lookup 2 per glyph data 2" afii57415 dx=60 dy=0 dh=60 dv=0 dx=0 dy=0 dh=0 dv=0
PairPos2: "'kern' Horizontal Kerning in Arabic lookup 2 per glyph data 1" uniFEF3 dx=40 dy=0 dh=40 dv=0 dx=0 dy=0 dh=0 dv=0
PairPos2: "'kern' Horizontal Kerning in Arabic lookup 2 per glyph data 1" uniFB58 dx=40 dy=0 dh=40 dv=0 dx=0 dy=0 dh=0 dv=0
PairPos2: "'kern' Horizontal Kerning in Arabic lookup 2 per glyph data 1" afii57413 dx=40 dy=0 dh=40 dv=0 dx=0 dy=0 dh=0 dv=0
PairPos2: "'kern' Horizontal Kerning in Arabic lookup 2 per glyph data 1" uniFB94 dx=110 dy=0 dh=110 dv=0 dx=0 dy=0 dh=0 dv=0
PairPos2: "'kern' Horizontal Kerning in Arabic lookup 2 per glyph data 1" afii57509 dx=110 dy=0 dh=110 dv=0 dx=0 dy=0 dh=0 dv=0
PairPos2: "'kern' Horizontal Kerning in Arabic lookup 2 per glyph data 1" uniFB90 dx=110 dy=0 dh=110 dv=0 dx=0 dy=0 dh=0 dv=0
PairPos2: "'kern' Horizontal Kerning in Arabic lookup 2 per glyph data 1" uni06A9 dx=110 dy=0 dh=110 dv=0 dx=0 dy=0 dh=0 dv=0
PairPos2: "'kern' Horizontal Kerning in Arabic lookup 2 per glyph data 1" uniFEDB dx=110 dy=0 dh=110 dv=0 dx=0 dy=0 dh=0 dv=0
EndChar

StartChar: uni0394
Encoding: 144 916 60
Width: 633
GlyphClass: 1
Flags: W
LayerCount: 2
Fore
SplineSet
372 648 m 1,0,-1
 616 6 l 1,1,-1
 616 0 l 1,2,-1
 17 0 l 1,3,-1
 17 6 l 1,4,-1
 260 648 l 1,5,-1
 372 648 l 1,0,-1
137 76 m 1,6,-1
 492 76 l 1,7,-1
 314 561 l 1,8,-1
 137 76 l 1,6,-1
EndSplineSet
PairPos2: "'kern' Horizontal Kerning in Arabic lookup 2 per glyph data 2" uni0671 dx=60 dy=0 dh=60 dv=0 dx=0 dy=0 dh=0 dv=0
PairPos2: "'kern' Horizontal Kerning in Arabic lookup 2 per glyph data 2" afii57410 dx=60 dy=0 dh=60 dv=0 dx=0 dy=0 dh=0 dv=0
PairPos2: "'kern' Horizontal Kerning in Arabic lookup 2 per glyph data 2" afii57411 dx=60 dy=0 dh=60 dv=0 dx=0 dy=0 dh=0 dv=0
PairPos2: "'kern' Horizontal Kerning in Arabic lookup 2 per glyph data 2" uniFE8E.short dx=60 dy=0 dh=60 dv=0 dx=0 dy=0 dh=0 dv=0
PairPos2: "'kern' Horizontal Kerning in Arabic lookup 2 per glyph data 2" afii57415.short dx=60 dy=0 dh=60 dv=0 dx=0 dy=0 dh=0 dv=0
PairPos2: "'kern' Horizontal Kerning in Arabic lookup 2 per glyph data 2" afii57415 dx=60 dy=0 dh=60 dv=0 dx=0 dy=0 dh=0 dv=0
PairPos2: "'kern' Horizontal Kerning in Arabic lookup 2 per glyph data 1" uniFEF3 dx=40 dy=0 dh=40 dv=0 dx=0 dy=0 dh=0 dv=0
PairPos2: "'kern' Horizontal Kerning in Arabic lookup 2 per glyph data 1" uniFB58 dx=40 dy=0 dh=40 dv=0 dx=0 dy=0 dh=0 dv=0
PairPos2: "'kern' Horizontal Kerning in Arabic lookup 2 per glyph data 1" afii57413 dx=40 dy=0 dh=40 dv=0 dx=0 dy=0 dh=0 dv=0
PairPos2: "'kern' Horizontal Kerning in Arabic lookup 2 per glyph data 1" uniFB94 dx=110 dy=0 dh=110 dv=0 dx=0 dy=0 dh=0 dv=0
PairPos2: "'kern' Horizontal Kerning in Arabic lookup 2 per glyph data 1" afii57509 dx=110 dy=0 dh=110 dv=0 dx=0 dy=0 dh=0 dv=0
PairPos2: "'kern' Horizontal Kerning in Arabic lookup 2 per glyph data 1" uniFB90 dx=110 dy=0 dh=110 dv=0 dx=0 dy=0 dh=0 dv=0
PairPos2: "'kern' Horizontal Kerning in Arabic lookup 2 per glyph data 1" uni06A9 dx=110 dy=0 dh=110 dv=0 dx=0 dy=0 dh=0 dv=0
PairPos2: "'kern' Horizontal Kerning in Arabic lookup 2 per glyph data 1" uniFEDB dx=110 dy=0 dh=110 dv=0 dx=0 dy=0 dh=0 dv=0
EndChar

StartChar: uni03A9
Encoding: 145 937 61
Width: 719
GlyphClass: 2
Flags: W
AnchorPoint: "Anchor-2" 0 0 basechar 0
AnchorPoint: "Anchor-1" 360 0 basechar 0
LayerCount: 2
Fore
SplineSet
631.5 167 m 128,-1,1
 598 106 598 106 531 75 c 1,2,3
 598 80 598 80 657 80 c 1,4,-1
 657 0 l 1,5,-1
 443 0 l 1,6,-1
 443 70 l 1,7,8
 513 108 513 108 541 176 c 128,-1,9
 569 244 569 244 569 326 c 0,10,11
 569 400 569 400 546.5 457.5 c 128,-1,12
 524 515 524 515 476.5 548.5 c 128,-1,13
 429 582 429 582 357 582 c 0,14,15
 286 582 286 582 240 549 c 128,-1,16
 194 516 194 516 172 460 c 128,-1,17
 150 404 150 404 150 332 c 0,18,19
 150 248 150 248 177.5 180 c 128,-1,20
 205 112 205 112 277 70 c 1,21,-1
 277 0 l 1,22,-1
 63 0 l 1,23,-1
 63 80 l 1,24,25
 119 80 119 80 184 75 c 1,26,27
 54 140 54 140 54 331 c 0,28,29
 54 443 54 443 97 516.5 c 128,-1,30
 140 590 140 590 211 625 c 128,-1,31
 282 660 282 660 366 660 c 0,32,33
 466 660 466 660 533 615.5 c 128,-1,34
 600 571 600 571 632.5 495.5 c 128,-1,35
 665 420 665 420 665 327 c 0,36,0
 665 228 665 228 631.5 167 c 128,-1,1
EndSplineSet
PairPos2: "'kern' Horizontal Kerning in Arabic lookup 2 per glyph data 2" uni0671 dx=60 dy=0 dh=60 dv=0 dx=0 dy=0 dh=0 dv=0
PairPos2: "'kern' Horizontal Kerning in Arabic lookup 2 per glyph data 2" afii57410 dx=60 dy=0 dh=60 dv=0 dx=0 dy=0 dh=0 dv=0
PairPos2: "'kern' Horizontal Kerning in Arabic lookup 2 per glyph data 2" afii57411 dx=60 dy=0 dh=60 dv=0 dx=0 dy=0 dh=0 dv=0
PairPos2: "'kern' Horizontal Kerning in Arabic lookup 2 per glyph data 2" uniFE8E.short dx=60 dy=0 dh=60 dv=0 dx=0 dy=0 dh=0 dv=0
PairPos2: "'kern' Horizontal Kerning in Arabic lookup 2 per glyph data 2" afii57415.short dx=60 dy=0 dh=60 dv=0 dx=0 dy=0 dh=0 dv=0
PairPos2: "'kern' Horizontal Kerning in Arabic lookup 2 per glyph data 2" afii57415 dx=60 dy=0 dh=60 dv=0 dx=0 dy=0 dh=0 dv=0
PairPos2: "'kern' Horizontal Kerning in Arabic lookup 2 per glyph data 1" uniFEF3 dx=40 dy=0 dh=40 dv=0 dx=0 dy=0 dh=0 dv=0
PairPos2: "'kern' Horizontal Kerning in Arabic lookup 2 per glyph data 1" uniFB58 dx=40 dy=0 dh=40 dv=0 dx=0 dy=0 dh=0 dv=0
PairPos2: "'kern' Horizontal Kerning in Arabic lookup 2 per glyph data 1" afii57413 dx=40 dy=0 dh=40 dv=0 dx=0 dy=0 dh=0 dv=0
PairPos2: "'kern' Horizontal Kerning in Arabic lookup 2 per glyph data 1" uniFB94 dx=110 dy=0 dh=110 dv=0 dx=0 dy=0 dh=0 dv=0
PairPos2: "'kern' Horizontal Kerning in Arabic lookup 2 per glyph data 1" afii57509 dx=110 dy=0 dh=110 dv=0 dx=0 dy=0 dh=0 dv=0
PairPos2: "'kern' Horizontal Kerning in Arabic lookup 2 per glyph data 1" uniFB90 dx=110 dy=0 dh=110 dv=0 dx=0 dy=0 dh=0 dv=0
PairPos2: "'kern' Horizontal Kerning in Arabic lookup 2 per glyph data 1" uni06A9 dx=110 dy=0 dh=110 dv=0 dx=0 dy=0 dh=0 dv=0
PairPos2: "'kern' Horizontal Kerning in Arabic lookup 2 per glyph data 1" uniFEDB dx=110 dy=0 dh=110 dv=0 dx=0 dy=0 dh=0 dv=0
EndChar

StartChar: uni03BC
Encoding: 146 956 62
Width: 516
GlyphClass: 1
Flags: W
LayerCount: 2
Fore
SplineSet
446 448 m 1,0,-1
 446 0 l 1,1,-1
 369 0 l 1,2,-1
 364 34 l 1,3,4
 332 15 332 15 296 3.5 c 128,-1,5
 260 -8 260 -8 226 -8 c 0,6,7
 180 -8 180 -8 148 15 c 1,8,9
 156 -30 156 -30 156 -67 c 2,10,-1
 156 -186 l 1,11,-1
 70 -186 l 1,12,-1
 70 438 l 1,13,-1
 156 448 l 1,14,-1
 156 152 l 2,15,16
 156 119 156 119 164 99.5 c 128,-1,17
 172 80 172 80 190 71.5 c 128,-1,18
 208 63 208 63 240 63 c 0,19,20
 288 63 288 63 360 100 c 1,21,-1
 360 438 l 1,22,-1
 446 448 l 1,0,-1
EndSplineSet
PairPos2: "'kern' Horizontal Kerning in Arabic lookup 2 per glyph data 2" uni0671 dx=60 dy=0 dh=60 dv=0 dx=0 dy=0 dh=0 dv=0
PairPos2: "'kern' Horizontal Kerning in Arabic lookup 2 per glyph data 2" afii57410 dx=60 dy=0 dh=60 dv=0 dx=0 dy=0 dh=0 dv=0
PairPos2: "'kern' Horizontal Kerning in Arabic lookup 2 per glyph data 2" afii57411 dx=60 dy=0 dh=60 dv=0 dx=0 dy=0 dh=0 dv=0
PairPos2: "'kern' Horizontal Kerning in Arabic lookup 2 per glyph data 2" uniFE8E.short dx=60 dy=0 dh=60 dv=0 dx=0 dy=0 dh=0 dv=0
PairPos2: "'kern' Horizontal Kerning in Arabic lookup 2 per glyph data 2" afii57415.short dx=60 dy=0 dh=60 dv=0 dx=0 dy=0 dh=0 dv=0
PairPos2: "'kern' Horizontal Kerning in Arabic lookup 2 per glyph data 2" afii57415 dx=60 dy=0 dh=60 dv=0 dx=0 dy=0 dh=0 dv=0
PairPos2: "'kern' Horizontal Kerning in Arabic lookup 2 per glyph data 1" uniFEF3 dx=40 dy=0 dh=40 dv=0 dx=0 dy=0 dh=0 dv=0
PairPos2: "'kern' Horizontal Kerning in Arabic lookup 2 per glyph data 1" uniFB58 dx=40 dy=0 dh=40 dv=0 dx=0 dy=0 dh=0 dv=0
PairPos2: "'kern' Horizontal Kerning in Arabic lookup 2 per glyph data 1" afii57413 dx=40 dy=0 dh=40 dv=0 dx=0 dy=0 dh=0 dv=0
PairPos2: "'kern' Horizontal Kerning in Arabic lookup 2 per glyph data 1" uniFB94 dx=110 dy=0 dh=110 dv=0 dx=0 dy=0 dh=0 dv=0
PairPos2: "'kern' Horizontal Kerning in Arabic lookup 2 per glyph data 1" afii57509 dx=110 dy=0 dh=110 dv=0 dx=0 dy=0 dh=0 dv=0
PairPos2: "'kern' Horizontal Kerning in Arabic lookup 2 per glyph data 1" uniFB90 dx=110 dy=0 dh=110 dv=0 dx=0 dy=0 dh=0 dv=0
PairPos2: "'kern' Horizontal Kerning in Arabic lookup 2 per glyph data 1" uni06A9 dx=110 dy=0 dh=110 dv=0 dx=0 dy=0 dh=0 dv=0
PairPos2: "'kern' Horizontal Kerning in Arabic lookup 2 per glyph data 1" uniFEDB dx=110 dy=0 dh=110 dv=0 dx=0 dy=0 dh=0 dv=0
EndChar

StartChar: pi
Encoding: 147 960 63
Width: 535
GlyphClass: 1
Flags: W
LayerCount: 2
Fore
SplineSet
525 438 m 1,0,-1
 516 370 l 1,1,-1
 455 370 l 1,2,-1
 455 0 l 1,3,-1
 369 0 l 1,4,-1
 369 370 l 1,5,-1
 183 370 l 1,6,-1
 183 0 l 1,7,-1
 97 0 l 1,8,-1
 97 370 l 1,9,-1
 30 370 l 1,10,-1
 30 438 l 1,11,-1
 525 438 l 1,0,-1
EndSplineSet
PairPos2: "'kern' Horizontal Kerning in Arabic lookup 2 per glyph data 2" uni0671 dx=60 dy=0 dh=60 dv=0 dx=0 dy=0 dh=0 dv=0
PairPos2: "'kern' Horizontal Kerning in Arabic lookup 2 per glyph data 2" afii57410 dx=60 dy=0 dh=60 dv=0 dx=0 dy=0 dh=0 dv=0
PairPos2: "'kern' Horizontal Kerning in Arabic lookup 2 per glyph data 2" afii57411 dx=60 dy=0 dh=60 dv=0 dx=0 dy=0 dh=0 dv=0
PairPos2: "'kern' Horizontal Kerning in Arabic lookup 2 per glyph data 2" uniFE8E.short dx=60 dy=0 dh=60 dv=0 dx=0 dy=0 dh=0 dv=0
PairPos2: "'kern' Horizontal Kerning in Arabic lookup 2 per glyph data 2" afii57415.short dx=60 dy=0 dh=60 dv=0 dx=0 dy=0 dh=0 dv=0
PairPos2: "'kern' Horizontal Kerning in Arabic lookup 2 per glyph data 2" afii57415 dx=60 dy=0 dh=60 dv=0 dx=0 dy=0 dh=0 dv=0
PairPos2: "'kern' Horizontal Kerning in Arabic lookup 2 per glyph data 1" uniFEF3 dx=40 dy=0 dh=40 dv=0 dx=0 dy=0 dh=0 dv=0
PairPos2: "'kern' Horizontal Kerning in Arabic lookup 2 per glyph data 1" uniFB58 dx=40 dy=0 dh=40 dv=0 dx=0 dy=0 dh=0 dv=0
PairPos2: "'kern' Horizontal Kerning in Arabic lookup 2 per glyph data 1" afii57413 dx=40 dy=0 dh=40 dv=0 dx=0 dy=0 dh=0 dv=0
PairPos2: "'kern' Horizontal Kerning in Arabic lookup 2 per glyph data 1" uniFB94 dx=110 dy=0 dh=110 dv=0 dx=0 dy=0 dh=0 dv=0
PairPos2: "'kern' Horizontal Kerning in Arabic lookup 2 per glyph data 1" afii57509 dx=110 dy=0 dh=110 dv=0 dx=0 dy=0 dh=0 dv=0
PairPos2: "'kern' Horizontal Kerning in Arabic lookup 2 per glyph data 1" uniFB90 dx=110 dy=0 dh=110 dv=0 dx=0 dy=0 dh=0 dv=0
PairPos2: "'kern' Horizontal Kerning in Arabic lookup 2 per glyph data 1" uni06A9 dx=110 dy=0 dh=110 dv=0 dx=0 dy=0 dh=0 dv=0
PairPos2: "'kern' Horizontal Kerning in Arabic lookup 2 per glyph data 1" uniFEDB dx=110 dy=0 dh=110 dv=0 dx=0 dy=0 dh=0 dv=0
EndChar

StartChar: hamzah
Encoding: 152 1569 64
Width: 395
GlyphClass: 2
Flags: W
AnchorPoint: "Anchor-11" 0 0 basechar 0
AnchorPoint: "Anchor-10" 212 297 basechar 0
AnchorPoint: "Anchor-9" 198 0 basechar 0
LayerCount: 2
Fore
SplineSet
346 18 m 1,0,1
 266 10 266 10 191.5 5 c 128,-1,2
 117 0 117 0 28 -5 c 1,3,-1
 24 67 l 1,4,5
 80 69 80 69 107 71 c 1,6,7
 92 92 92 92 84 116.5 c 128,-1,8
 76 141 76 141 76 165 c 0,9,10
 76 202 76 202 94 232.5 c 128,-1,11
 112 263 112 263 143 280 c 128,-1,12
 174 297 174 297 212 297 c 0,13,14
 239 297 239 297 266 291 c 128,-1,15
 293 285 293 285 315 274 c 1,16,-1
 294 204 l 1,17,18
 275 212 275 212 254 217 c 128,-1,19
 233 222 233 222 216 222 c 0,20,21
 186 222 186 222 168.5 204 c 128,-1,22
 151 186 151 186 151 156 c 0,23,24
 151 135 151 135 161.5 113 c 128,-1,25
 172 91 172 91 189 75 c 1,26,27
 292 82 292 82 338 88 c 1,28,-1
 346 18 l 1,0,1
EndSplineSet
PairPos2: "Naik Hamzah-1" uni08A8.init.yeh dx=-20 dy=280 dh=-23 dv=0 dx=0 dy=0 dh=0 dv=0
PairPos2: "Naik Hamzah-1" uni08A8.init dx=0 dy=280 dh=2 dv=0 dx=0 dy=0 dh=0 dv=0
PairPos2: "Naik Hamzah-1" uni08A8 dx=0 dy=280 dh=43 dv=0 dx=0 dy=0 dh=0 dv=0
PairPos2: "Naik Hamzah-1" uniFEE7.yeh dx=-80 dy=280 dh=-80 dv=0 dx=0 dy=0 dh=0 dv=0
PairPos2: "Naik Hamzah-1" uni06C6 dx=-60 dy=280 dh=-60 dv=0 dx=0 dy=0 dh=0 dv=0
PairPos2: "Naik Hamzah-1" afii57450 dx=0 dy=280 dh=43 dv=0 dx=0 dy=0 dh=0 dv=0
PairPos2: "Naik Hamzah-1" afii57446 dx=-66 dy=280 dh=-66 dv=0 dx=0 dy=0 dh=0 dv=0
PairPos2: "Naik Hamzah-1" afii57448 dx=-60 dy=280 dh=-60 dv=0 dx=0 dy=0 dh=0 dv=0
PairPos2: "Naik Hamzah-1" uni06D0 dx=0 dy=280 dh=43 dv=0 dx=0 dy=0 dh=0 dv=0
PairPos2: "Naik Hamzah-1" uni06D0.init dx=-45 dy=280 dh=-45 dv=0 dx=0 dy=0 dh=0 dv=0
PairPos2: "Naik Hamzah-1" uniFEF3 dx=-45 dy=280 dh=2 dv=0 dx=0 dy=0 dh=0 dv=0
PairPos2: "Naik Hamzah-1" uniFEF3.yeh dx=-80 dy=280 dh=-23 dv=0 dx=0 dy=0 dh=0 dv=0
PairPos2: "Naik Hamzah-1" uniFEE7 dx=-45 dy=280 dh=2 dv=0 dx=0 dy=0 dh=0 dv=0
PairPos2: "Naik Hamzah-1" uni06CE dx=71 dy=280 dh=71 dv=0 dx=0 dy=0 dh=0 dv=0
PairPos2: "Naik Hamzah-1" uni06CE.init dx=-10 dy=280 dh=-10 dv=0 dx=0 dy=0 dh=0 dv=0
PairPos2: "Naik Hamzah-1" uni06CE.init.yeh dx=-50 dy=280 dh=-50 dv=0 dx=0 dy=0 dh=0 dv=0
PairPos2: "'kern' Horizontal Kerning in Arabic lookup 2 per glyph data 1" uniFEDB dx=110 dy=0 dh=110 dv=0 dx=0 dy=0 dh=0 dv=0
PairPos2: "'kern' Horizontal Kerning in Arabic lookup 2 per glyph data 1" uni06A9 dx=110 dy=0 dh=110 dv=0 dx=0 dy=0 dh=0 dv=0
PairPos2: "'kern' Horizontal Kerning in Arabic lookup 2 per glyph data 1" uniFB90 dx=110 dy=0 dh=110 dv=0 dx=0 dy=0 dh=0 dv=0
PairPos2: "'kern' Horizontal Kerning in Arabic lookup 2 per glyph data 1" afii57509 dx=110 dy=0 dh=110 dv=0 dx=0 dy=0 dh=0 dv=0
PairPos2: "'kern' Horizontal Kerning in Arabic lookup 2 per glyph data 1" uniFB94 dx=110 dy=0 dh=110 dv=0 dx=0 dy=0 dh=0 dv=0
PairPos2: "'kern' Horizontal Kerning in Arabic lookup 2 per glyph data 1" afii57413 dx=40 dy=0 dh=40 dv=0 dx=0 dy=0 dh=0 dv=0
PairPos2: "'kern' Horizontal Kerning in Arabic lookup 2 per glyph data 1" uniFB58 dx=40 dy=0 dh=40 dv=0 dx=0 dy=0 dh=0 dv=0
PairPos2: "'kern' Horizontal Kerning in Arabic lookup 2 per glyph data 1" uniFEF3 dx=40 dy=0 dh=40 dv=0 dx=0 dy=0 dh=0 dv=0
PairPos2: "'kern' Horizontal Kerning in Arabic lookup 2 per glyph data 2" afii57415 dx=60 dy=0 dh=60 dv=0 dx=0 dy=0 dh=0 dv=0
PairPos2: "'kern' Horizontal Kerning in Arabic lookup 2 per glyph data 2" afii57415.short dx=60 dy=0 dh=60 dv=0 dx=0 dy=0 dh=0 dv=0
PairPos2: "'kern' Horizontal Kerning in Arabic lookup 2 per glyph data 2" uniFE8E.short dx=60 dy=0 dh=60 dv=0 dx=0 dy=0 dh=0 dv=0
PairPos2: "'kern' Horizontal Kerning in Arabic lookup 2 per glyph data 2" afii57411 dx=60 dy=0 dh=60 dv=0 dx=0 dy=0 dh=0 dv=0
PairPos2: "'kern' Horizontal Kerning in Arabic lookup 2 per glyph data 2" afii57410 dx=60 dy=0 dh=60 dv=0 dx=0 dy=0 dh=0 dv=0
PairPos2: "'kern' Horizontal Kerning in Arabic lookup 2 per glyph data 2" uni0671 dx=60 dy=0 dh=60 dv=0 dx=0 dy=0 dh=0 dv=0
EndChar

StartChar: afii57415
Encoding: 158 1575 65
Width: 208
GlyphClass: 2
Flags: W
AnchorPoint: "Anchor-11" 0 0 basechar 0
AnchorPoint: "Anchor-10" 104 579 basechar 0
AnchorPoint: "Anchor-9" 104 0 basechar 0
LayerCount: 2
Fore
SplineSet
71 -5 m 1,0,-1
 65 -2 l 1,1,-1
 65 664 l 1,2,-1
 138 683 l 1,3,-1
 143 679 l 1,4,-1
 142 10 l 1,5,-1
 71 -5 l 1,0,-1
EndSplineSet
PairPos2: "Rapat Hamzah-2" hamzah dx=-30 dy=0 dh=-30 dv=0 dx=0 dy=0 dh=0 dv=0
Substitution2: "'fina' Terminal Forms in Arabic lookup 18 subtable" uniFE8E
Substitution2: "'aalt' Access All Alternates in Arabic lookup 0 subtable" uniFE8E
PairPos2: "'kern' Horizontal Kerning in Arabic lookup 2 per glyph data 2" uni0671 dx=60 dy=0 dh=60 dv=0 dx=0 dy=0 dh=0 dv=0
PairPos2: "'kern' Horizontal Kerning in Arabic lookup 2 per glyph data 2" afii57410 dx=60 dy=0 dh=60 dv=0 dx=0 dy=0 dh=0 dv=0
PairPos2: "'kern' Horizontal Kerning in Arabic lookup 2 per glyph data 2" afii57411 dx=60 dy=0 dh=60 dv=0 dx=0 dy=0 dh=0 dv=0
PairPos2: "'kern' Horizontal Kerning in Arabic lookup 2 per glyph data 2" uniFE8E.short dx=60 dy=0 dh=60 dv=0 dx=0 dy=0 dh=0 dv=0
PairPos2: "'kern' Horizontal Kerning in Arabic lookup 2 per glyph data 2" afii57415.short dx=60 dy=0 dh=60 dv=0 dx=0 dy=0 dh=0 dv=0
PairPos2: "'kern' Horizontal Kerning in Arabic lookup 2 per glyph data 2" afii57415 dx=60 dy=0 dh=60 dv=0 dx=0 dy=0 dh=0 dv=0
PairPos2: "'kern' Horizontal Kerning in Arabic lookup 2 per glyph data 1" uniFEF3 dx=40 dy=0 dh=40 dv=0 dx=0 dy=0 dh=0 dv=0
PairPos2: "'kern' Horizontal Kerning in Arabic lookup 2 per glyph data 1" uniFB58 dx=40 dy=0 dh=40 dv=0 dx=0 dy=0 dh=0 dv=0
PairPos2: "'kern' Horizontal Kerning in Arabic lookup 2 per glyph data 1" afii57413 dx=40 dy=0 dh=40 dv=0 dx=0 dy=0 dh=0 dv=0
PairPos2: "'kern' Horizontal Kerning in Arabic lookup 2 per glyph data 1" uniFB94 dx=110 dy=0 dh=110 dv=0 dx=0 dy=0 dh=0 dv=0
PairPos2: "'kern' Horizontal Kerning in Arabic lookup 2 per glyph data 1" afii57509 dx=110 dy=0 dh=110 dv=0 dx=0 dy=0 dh=0 dv=0
PairPos2: "'kern' Horizontal Kerning in Arabic lookup 2 per glyph data 1" uniFB90 dx=110 dy=0 dh=110 dv=0 dx=0 dy=0 dh=0 dv=0
PairPos2: "'kern' Horizontal Kerning in Arabic lookup 2 per glyph data 1" uni06A9 dx=110 dy=0 dh=110 dv=0 dx=0 dy=0 dh=0 dv=0
PairPos2: "'kern' Horizontal Kerning in Arabic lookup 2 per glyph data 1" uniFEDB dx=110 dy=0 dh=110 dv=0 dx=0 dy=0 dh=0 dv=0
PairPos2: "'kern' Horizontal Kerning in Arabic lookup 2 per glyph data 0" uniFB94 dx=80 dy=0 dh=80 dv=0 dx=0 dy=0 dh=0 dv=0
PairPos2: "'kern' Horizontal Kerning in Arabic lookup 2 per glyph data 0" uni0671 dx=40 dy=0 dh=40 dv=0 dx=0 dy=0 dh=0 dv=0
PairPos2: "'kern' Horizontal Kerning in Arabic lookup 2 per glyph data 0" afii57410 dx=90 dy=0 dh=90 dv=0 dx=0 dy=0 dh=0 dv=0
PairPos2: "'kern' Horizontal Kerning in Arabic lookup 2 per glyph data 0" afii57411 dx=32 dy=0 dh=32 dv=0 dx=0 dy=0 dh=0 dv=0
EndChar

StartChar: uniFE8E
Encoding: 331 65166 66
Width: 240
GlyphClass: 2
Flags: W
AnchorPoint: "Anchor-11" 0 0 basechar 0
AnchorPoint: "Anchor-10" 104 579 basechar 0
AnchorPoint: "Anchor-9" 107 0 basechar 0
LayerCount: 2
Fore
SplineSet
111 37 m 128,-1,1
 65 74 65 74 65 165 c 2,2,-1
 65 664 l 1,3,-1
 137 682 l 1,4,-1
 143 679 l 1,5,-1
 143 174 l 2,6,7
 143 135 143 135 154.5 114.5 c 128,-1,8
 166 94 166 94 190.5 86 c 128,-1,9
 215 78 215 78 259 78 c 0,10,11
 282 78 282 78 291 71 c 128,-1,12
 300 64 300 64 300 51 c 0,13,14
 300 32 300 32 286.5 16 c 128,-1,15
 273 0 273 0 239 0 c 0,16,0
 157 0 157 0 111 37 c 128,-1,1
EndSplineSet
PairPos2: "Rapat Hamzah-2" hamzah dx=-30 dy=0 dh=-30 dv=0 dx=0 dy=0 dh=0 dv=0
PairPos2: "'kern' Horizontal Kerning in Arabic lookup 2 per glyph data 2" uni0671 dx=60 dy=0 dh=60 dv=0 dx=0 dy=0 dh=0 dv=0
PairPos2: "'kern' Horizontal Kerning in Arabic lookup 2 per glyph data 2" afii57410 dx=60 dy=0 dh=60 dv=0 dx=0 dy=0 dh=0 dv=0
PairPos2: "'kern' Horizontal Kerning in Arabic lookup 2 per glyph data 2" afii57411 dx=60 dy=0 dh=60 dv=0 dx=0 dy=0 dh=0 dv=0
PairPos2: "'kern' Horizontal Kerning in Arabic lookup 2 per glyph data 2" uniFE8E.short dx=60 dy=0 dh=60 dv=0 dx=0 dy=0 dh=0 dv=0
PairPos2: "'kern' Horizontal Kerning in Arabic lookup 2 per glyph data 2" afii57415.short dx=60 dy=0 dh=60 dv=0 dx=0 dy=0 dh=0 dv=0
PairPos2: "'kern' Horizontal Kerning in Arabic lookup 2 per glyph data 2" afii57415 dx=60 dy=0 dh=60 dv=0 dx=0 dy=0 dh=0 dv=0
PairPos2: "'kern' Horizontal Kerning in Arabic lookup 2 per glyph data 1" uniFEF3 dx=40 dy=0 dh=40 dv=0 dx=0 dy=0 dh=0 dv=0
PairPos2: "'kern' Horizontal Kerning in Arabic lookup 2 per glyph data 1" uniFB58 dx=40 dy=0 dh=40 dv=0 dx=0 dy=0 dh=0 dv=0
PairPos2: "'kern' Horizontal Kerning in Arabic lookup 2 per glyph data 1" afii57413 dx=40 dy=0 dh=40 dv=0 dx=0 dy=0 dh=0 dv=0
PairPos2: "'kern' Horizontal Kerning in Arabic lookup 2 per glyph data 1" uniFB94 dx=110 dy=0 dh=110 dv=0 dx=0 dy=0 dh=0 dv=0
PairPos2: "'kern' Horizontal Kerning in Arabic lookup 2 per glyph data 1" afii57509 dx=110 dy=0 dh=110 dv=0 dx=0 dy=0 dh=0 dv=0
PairPos2: "'kern' Horizontal Kerning in Arabic lookup 2 per glyph data 1" uniFB90 dx=110 dy=0 dh=110 dv=0 dx=0 dy=0 dh=0 dv=0
PairPos2: "'kern' Horizontal Kerning in Arabic lookup 2 per glyph data 1" uni06A9 dx=110 dy=0 dh=110 dv=0 dx=0 dy=0 dh=0 dv=0
PairPos2: "'kern' Horizontal Kerning in Arabic lookup 2 per glyph data 1" uniFEDB dx=110 dy=0 dh=110 dv=0 dx=0 dy=0 dh=0 dv=0
EndChar

StartChar: afii57415.short
Encoding: 417 -1 67
Width: 208
GlyphClass: 2
Flags: W
AnchorPoint: "Anchor-11" 0 0 basechar 0
AnchorPoint: "Anchor-10" 104 579 basechar 0
AnchorPoint: "Anchor-9" 104 0 basechar 0
LayerCount: 2
Fore
SplineSet
71 -5 m 1,0,-1
 65 -2 l 1,1,-1
 65 664 l 1,2,-1
 138 683 l 1,3,-1
 143 679 l 1,4,-1
 142 10 l 1,5,-1
 71 -5 l 1,0,-1
EndSplineSet
PairPos2: "Rapat Hamzah-2" hamzah dx=-30 dy=0 dh=-30 dv=0 dx=0 dy=0 dh=0 dv=0
PairPos2: "'kern' Horizontal Kerning in Arabic lookup 2 per glyph data 2" uni0671 dx=60 dy=0 dh=60 dv=0 dx=0 dy=0 dh=0 dv=0
PairPos2: "'kern' Horizontal Kerning in Arabic lookup 2 per glyph data 2" afii57410 dx=60 dy=0 dh=60 dv=0 dx=0 dy=0 dh=0 dv=0
PairPos2: "'kern' Horizontal Kerning in Arabic lookup 2 per glyph data 2" afii57411 dx=60 dy=0 dh=60 dv=0 dx=0 dy=0 dh=0 dv=0
PairPos2: "'kern' Horizontal Kerning in Arabic lookup 2 per glyph data 2" uniFE8E.short dx=60 dy=0 dh=60 dv=0 dx=0 dy=0 dh=0 dv=0
PairPos2: "'kern' Horizontal Kerning in Arabic lookup 2 per glyph data 2" afii57415.short dx=60 dy=0 dh=60 dv=0 dx=0 dy=0 dh=0 dv=0
PairPos2: "'kern' Horizontal Kerning in Arabic lookup 2 per glyph data 2" afii57415 dx=60 dy=0 dh=60 dv=0 dx=0 dy=0 dh=0 dv=0
PairPos2: "'kern' Horizontal Kerning in Arabic lookup 2 per glyph data 1" uniFEF3 dx=40 dy=0 dh=40 dv=0 dx=0 dy=0 dh=0 dv=0
PairPos2: "'kern' Horizontal Kerning in Arabic lookup 2 per glyph data 1" uniFB58 dx=40 dy=0 dh=40 dv=0 dx=0 dy=0 dh=0 dv=0
PairPos2: "'kern' Horizontal Kerning in Arabic lookup 2 per glyph data 1" afii57413 dx=40 dy=0 dh=40 dv=0 dx=0 dy=0 dh=0 dv=0
PairPos2: "'kern' Horizontal Kerning in Arabic lookup 2 per glyph data 1" uniFB94 dx=110 dy=0 dh=110 dv=0 dx=0 dy=0 dh=0 dv=0
PairPos2: "'kern' Horizontal Kerning in Arabic lookup 2 per glyph data 1" afii57509 dx=110 dy=0 dh=110 dv=0 dx=0 dy=0 dh=0 dv=0
PairPos2: "'kern' Horizontal Kerning in Arabic lookup 2 per glyph data 1" uniFB90 dx=110 dy=0 dh=110 dv=0 dx=0 dy=0 dh=0 dv=0
PairPos2: "'kern' Horizontal Kerning in Arabic lookup 2 per glyph data 1" uni06A9 dx=110 dy=0 dh=110 dv=0 dx=0 dy=0 dh=0 dv=0
PairPos2: "'kern' Horizontal Kerning in Arabic lookup 2 per glyph data 1" uniFEDB dx=110 dy=0 dh=110 dv=0 dx=0 dy=0 dh=0 dv=0
PairPos2: "'kern' Horizontal Kerning in Arabic lookup 2 per glyph data 0" uniFB94 dx=80 dy=0 dh=80 dv=0 dx=0 dy=0 dh=0 dv=0
PairPos2: "'kern' Horizontal Kerning in Arabic lookup 2 per glyph data 0" uni0671 dx=40 dy=0 dh=40 dv=0 dx=0 dy=0 dh=0 dv=0
PairPos2: "'kern' Horizontal Kerning in Arabic lookup 2 per glyph data 0" afii57410 dx=90 dy=0 dh=90 dv=0 dx=0 dy=0 dh=0 dv=0
PairPos2: "'kern' Horizontal Kerning in Arabic lookup 2 per glyph data 0" afii57411 dx=32 dy=0 dh=32 dv=0 dx=0 dy=0 dh=0 dv=0
EndChar

StartChar: uni066E
Encoding: 216 1646 77
Width: 844
GlyphClass: 2
Flags: W
AnchorPoint: "Anchor-11" 0 0 basechar 0
AnchorPoint: "Anchor-10" 433 265 basechar 0
AnchorPoint: "Anchor-9" 411 -11 basechar 0
LayerCount: 2
Fore
SplineSet
772 239 m 128,-1,1
 784 193 784 193 784 162 c 0,2,3
 784 121 784 121 769 87.5 c 128,-1,4
 754 54 754 54 722 35 c 0,5,6
 648 -11 648 -11 451 -11 c 2,7,-1
 383 -11 l 2,8,9
 270 -11 270 -11 196 7 c 128,-1,10
 122 25 122 25 83.5 65.5 c 128,-1,11
 45 106 45 106 45 173 c 0,12,13
 45 204 45 204 49.5 234.5 c 128,-1,14
 54 265 54 265 61 285 c 1,15,-1
 120 307 l 1,16,-1
 128 303 l 1,17,18
 118 253 118 253 118 212 c 0,19,20
 118 154 118 154 150 122.5 c 128,-1,21
 182 91 182 91 243.5 79 c 128,-1,22
 305 67 305 67 404 67 c 2,23,-1
 474 67 l 2,24,25
 549 67 549 67 614.5 75.5 c 128,-1,26
 680 84 680 84 710 98 c 1,27,28
 712 114 712 114 712 121 c 0,29,30
 712 152 712 152 700.5 186.5 c 128,-1,31
 689 221 689 221 660 285 c 1,32,-1
 729 336 l 1,33,-1
 738 336 l 1,34,0
 760 285 760 285 772 239 c 128,-1,1
EndSplineSet
Substitution2: "'fina' Terminal Forms in Arabic lookup 18 subtable" uni066E.fina
Substitution2: "'medi' Medial Forms in Arabic lookup 17 subtable" uni066E.medi
Substitution2: "'init' Initial Forms in Arabic lookup 16 subtable" uni066E.init
AlternateSubs2: "'aalt' Access All Alternates in Arabic lookup 1 subtable" uni066E.fina uni066E.medi uni066E.init
PairPos2: "'kern' Horizontal Kerning in Arabic lookup 2 per glyph data 2" uni0671 dx=60 dy=0 dh=60 dv=0 dx=0 dy=0 dh=0 dv=0
PairPos2: "'kern' Horizontal Kerning in Arabic lookup 2 per glyph data 2" afii57410 dx=60 dy=0 dh=60 dv=0 dx=0 dy=0 dh=0 dv=0
PairPos2: "'kern' Horizontal Kerning in Arabic lookup 2 per glyph data 2" afii57411 dx=60 dy=0 dh=60 dv=0 dx=0 dy=0 dh=0 dv=0
PairPos2: "'kern' Horizontal Kerning in Arabic lookup 2 per glyph data 2" uniFE8E.short dx=60 dy=0 dh=60 dv=0 dx=0 dy=0 dh=0 dv=0
PairPos2: "'kern' Horizontal Kerning in Arabic lookup 2 per glyph data 2" afii57415.short dx=60 dy=0 dh=60 dv=0 dx=0 dy=0 dh=0 dv=0
PairPos2: "'kern' Horizontal Kerning in Arabic lookup 2 per glyph data 2" afii57415 dx=60 dy=0 dh=60 dv=0 dx=0 dy=0 dh=0 dv=0
PairPos2: "'kern' Horizontal Kerning in Arabic lookup 2 per glyph data 1" uniFEF3 dx=40 dy=0 dh=40 dv=0 dx=0 dy=0 dh=0 dv=0
PairPos2: "'kern' Horizontal Kerning in Arabic lookup 2 per glyph data 1" uniFB58 dx=40 dy=0 dh=40 dv=0 dx=0 dy=0 dh=0 dv=0
PairPos2: "'kern' Horizontal Kerning in Arabic lookup 2 per glyph data 1" afii57413 dx=40 dy=0 dh=40 dv=0 dx=0 dy=0 dh=0 dv=0
PairPos2: "'kern' Horizontal Kerning in Arabic lookup 2 per glyph data 1" uniFB94 dx=110 dy=0 dh=110 dv=0 dx=0 dy=0 dh=0 dv=0
PairPos2: "'kern' Horizontal Kerning in Arabic lookup 2 per glyph data 1" afii57509 dx=110 dy=0 dh=110 dv=0 dx=0 dy=0 dh=0 dv=0
PairPos2: "'kern' Horizontal Kerning in Arabic lookup 2 per glyph data 1" uniFB90 dx=110 dy=0 dh=110 dv=0 dx=0 dy=0 dh=0 dv=0
PairPos2: "'kern' Horizontal Kerning in Arabic lookup 2 per glyph data 1" uni06A9 dx=110 dy=0 dh=110 dv=0 dx=0 dy=0 dh=0 dv=0
PairPos2: "'kern' Horizontal Kerning in Arabic lookup 2 per glyph data 1" uniFEDB dx=110 dy=0 dh=110 dv=0 dx=0 dy=0 dh=0 dv=0
EndChar

StartChar: uni066E.fina
Encoding: 419 -1 78
Width: 870
GlyphClass: 2
Flags: W
AnchorPoint: "Anchor-11" 0 0 basechar 0
AnchorPoint: "Anchor-10" 453 265 basechar 0
AnchorPoint: "Anchor-9" 411 -11 basechar 0
LayerCount: 2
Fore
SplineSet
921.5 71 m 128,-1,1
 930 64 930 64 930 51 c 0,2,3
 930 32 930 32 917 16 c 128,-1,4
 904 0 904 0 870 0 c 0,5,6
 832 0 832 0 792.5 11.5 c 128,-1,7
 753 23 753 23 724 50 c 1,8,9
 712 40 712 40 706 36 c 0,10,11
 674 16 674 16 596.5 2.5 c 128,-1,12
 519 -11 519 -11 451 -11 c 2,13,-1
 383 -11 l 2,14,15
 270 -11 270 -11 196 7 c 128,-1,16
 122 25 122 25 83.5 65.5 c 128,-1,17
 45 106 45 106 45 173 c 0,18,19
 45 204 45 204 49.5 234.5 c 128,-1,20
 54 265 54 265 61 285 c 1,21,-1
 120 307 l 1,22,-1
 128 303 l 1,23,24
 118 253 118 253 118 212 c 0,25,26
 118 154 118 154 150 122.5 c 128,-1,27
 182 91 182 91 243.5 79 c 128,-1,28
 305 67 305 67 404 67 c 2,29,-1
 474 67 l 2,30,31
 526 67 526 67 590 75 c 128,-1,32
 654 83 654 83 680 96 c 1,33,34
 691 118 691 118 705 162.5 c 128,-1,35
 719 207 719 207 729 249 c 1,36,-1
 806 268 l 1,37,-1
 816 262 l 1,38,39
 793 166 793 166 766 110 c 1,40,41
 787 96 787 96 816 87 c 128,-1,42
 845 78 845 78 890 78 c 0,43,0
 913 78 913 78 921.5 71 c 128,-1,1
EndSplineSet
PairPos2: "'kern' Horizontal Kerning in Arabic lookup 2 per glyph data 2" uni0671 dx=60 dy=0 dh=60 dv=0 dx=0 dy=0 dh=0 dv=0
PairPos2: "'kern' Horizontal Kerning in Arabic lookup 2 per glyph data 2" afii57410 dx=60 dy=0 dh=60 dv=0 dx=0 dy=0 dh=0 dv=0
PairPos2: "'kern' Horizontal Kerning in Arabic lookup 2 per glyph data 2" afii57411 dx=60 dy=0 dh=60 dv=0 dx=0 dy=0 dh=0 dv=0
PairPos2: "'kern' Horizontal Kerning in Arabic lookup 2 per glyph data 2" uniFE8E.short dx=60 dy=0 dh=60 dv=0 dx=0 dy=0 dh=0 dv=0
PairPos2: "'kern' Horizontal Kerning in Arabic lookup 2 per glyph data 2" afii57415.short dx=60 dy=0 dh=60 dv=0 dx=0 dy=0 dh=0 dv=0
PairPos2: "'kern' Horizontal Kerning in Arabic lookup 2 per glyph data 2" afii57415 dx=60 dy=0 dh=60 dv=0 dx=0 dy=0 dh=0 dv=0
PairPos2: "'kern' Horizontal Kerning in Arabic lookup 2 per glyph data 1" uniFEF3 dx=40 dy=0 dh=40 dv=0 dx=0 dy=0 dh=0 dv=0
PairPos2: "'kern' Horizontal Kerning in Arabic lookup 2 per glyph data 1" uniFB58 dx=40 dy=0 dh=40 dv=0 dx=0 dy=0 dh=0 dv=0
PairPos2: "'kern' Horizontal Kerning in Arabic lookup 2 per glyph data 1" afii57413 dx=40 dy=0 dh=40 dv=0 dx=0 dy=0 dh=0 dv=0
PairPos2: "'kern' Horizontal Kerning in Arabic lookup 2 per glyph data 1" uniFB94 dx=110 dy=0 dh=110 dv=0 dx=0 dy=0 dh=0 dv=0
PairPos2: "'kern' Horizontal Kerning in Arabic lookup 2 per glyph data 1" afii57509 dx=110 dy=0 dh=110 dv=0 dx=0 dy=0 dh=0 dv=0
PairPos2: "'kern' Horizontal Kerning in Arabic lookup 2 per glyph data 1" uniFB90 dx=110 dy=0 dh=110 dv=0 dx=0 dy=0 dh=0 dv=0
PairPos2: "'kern' Horizontal Kerning in Arabic lookup 2 per glyph data 1" uni06A9 dx=110 dy=0 dh=110 dv=0 dx=0 dy=0 dh=0 dv=0
PairPos2: "'kern' Horizontal Kerning in Arabic lookup 2 per glyph data 1" uniFEDB dx=110 dy=0 dh=110 dv=0 dx=0 dy=0 dh=0 dv=0
EndChar

StartChar: uni066E.medi
Encoding: 420 -1 79
Width: 316
GlyphClass: 2
Flags: W
AnchorPoint: "Anchor-11" 0 0 basechar 0
AnchorPoint: "Anchor-10" 211 266 basechar 0
AnchorPoint: "Anchor-9" 175 0 basechar 0
LayerCount: 2
Fore
SplineSet
367.5 71 m 128,-1,1
 376 64 376 64 376 51 c 0,2,3
 376 32 376 32 363 16 c 128,-1,4
 350 0 350 0 316 0 c 0,5,6
 278 0 278 0 239.5 11.5 c 128,-1,7
 201 23 201 23 171 49 c 1,8,9
 146 24 146 24 109.5 12 c 128,-1,10
 73 0 73 0 21 0 c 2,11,-1
 0 0 l 1,12,-1
 20 78 l 1,13,-1
 42 78 l 2,14,15
 101 78 101 78 126 97 c 1,16,17
 137 113 137 113 147.5 147.5 c 128,-1,18
 158 182 158 182 174 249 c 1,19,-1
 251 268 l 1,20,-1
 261 262 l 1,21,22
 239 162 239 162 213 109 c 1,23,24
 234 95 234 95 263 86.5 c 128,-1,25
 292 78 292 78 336 78 c 0,26,0
 359 78 359 78 367.5 71 c 128,-1,1
EndSplineSet
PairPos2: "'kern' Horizontal Kerning in Arabic lookup 2 per glyph data 2" uni0671 dx=60 dy=0 dh=60 dv=0 dx=0 dy=0 dh=0 dv=0
PairPos2: "'kern' Horizontal Kerning in Arabic lookup 2 per glyph data 2" afii57410 dx=60 dy=0 dh=60 dv=0 dx=0 dy=0 dh=0 dv=0
PairPos2: "'kern' Horizontal Kerning in Arabic lookup 2 per glyph data 2" afii57411 dx=60 dy=0 dh=60 dv=0 dx=0 dy=0 dh=0 dv=0
PairPos2: "'kern' Horizontal Kerning in Arabic lookup 2 per glyph data 2" uniFE8E.short dx=60 dy=0 dh=60 dv=0 dx=0 dy=0 dh=0 dv=0
PairPos2: "'kern' Horizontal Kerning in Arabic lookup 2 per glyph data 2" afii57415.short dx=60 dy=0 dh=60 dv=0 dx=0 dy=0 dh=0 dv=0
PairPos2: "'kern' Horizontal Kerning in Arabic lookup 2 per glyph data 2" afii57415 dx=60 dy=0 dh=60 dv=0 dx=0 dy=0 dh=0 dv=0
PairPos2: "'kern' Horizontal Kerning in Arabic lookup 2 per glyph data 1" uniFEF3 dx=40 dy=0 dh=40 dv=0 dx=0 dy=0 dh=0 dv=0
PairPos2: "'kern' Horizontal Kerning in Arabic lookup 2 per glyph data 1" uniFB58 dx=40 dy=0 dh=40 dv=0 dx=0 dy=0 dh=0 dv=0
PairPos2: "'kern' Horizontal Kerning in Arabic lookup 2 per glyph data 1" afii57413 dx=40 dy=0 dh=40 dv=0 dx=0 dy=0 dh=0 dv=0
PairPos2: "'kern' Horizontal Kerning in Arabic lookup 2 per glyph data 1" uniFB94 dx=110 dy=0 dh=110 dv=0 dx=0 dy=0 dh=0 dv=0
PairPos2: "'kern' Horizontal Kerning in Arabic lookup 2 per glyph data 1" afii57509 dx=110 dy=0 dh=110 dv=0 dx=0 dy=0 dh=0 dv=0
PairPos2: "'kern' Horizontal Kerning in Arabic lookup 2 per glyph data 1" uniFB90 dx=110 dy=0 dh=110 dv=0 dx=0 dy=0 dh=0 dv=0
PairPos2: "'kern' Horizontal Kerning in Arabic lookup 2 per glyph data 1" uni06A9 dx=110 dy=0 dh=110 dv=0 dx=0 dy=0 dh=0 dv=0
PairPos2: "'kern' Horizontal Kerning in Arabic lookup 2 per glyph data 1" uniFEDB dx=110 dy=0 dh=110 dv=0 dx=0 dy=0 dh=0 dv=0
EndChar

StartChar: uni066E.medi.wide
Encoding: 421 -1 80
Width: 337
GlyphClass: 2
Flags: W
AnchorPoint: "Anchor-11" 0 0 basechar 0
AnchorPoint: "Anchor-10" 220 268 basechar 0
AnchorPoint: "Anchor-9" 178 0 basechar 0
LayerCount: 2
Fore
SplineSet
388.5 71 m 128,-1,1
 397 64 397 64 397 51 c 0,2,3
 397 32 397 32 384 16 c 128,-1,4
 371 0 371 0 337 0 c 0,5,6
 229 0 229 0 173 48 c 1,7,8
 149 23 149 23 115 11.5 c 128,-1,9
 81 0 81 0 34 0 c 2,10,-1
 0 0 l 1,11,-1
 20 78 l 1,12,-1
 50 78 l 2,13,14
 74 78 74 78 94 83 c 128,-1,15
 114 88 114 88 126 97 c 1,16,17
 136 113 136 113 147.5 149 c 128,-1,18
 159 185 159 185 174 249 c 1,19,-1
 251 268 l 1,20,-1
 261 262 l 1,21,22
 250 211 250 211 238.5 174 c 128,-1,23
 227 137 227 137 214 109 c 1,24,25
 236 95 236 95 269 86.5 c 128,-1,26
 302 78 302 78 357 78 c 0,27,0
 380 78 380 78 388.5 71 c 128,-1,1
EndSplineSet
PairPos2: "'kern' Horizontal Kerning in Arabic lookup 2 per glyph data 2" uni0671 dx=60 dy=0 dh=60 dv=0 dx=0 dy=0 dh=0 dv=0
PairPos2: "'kern' Horizontal Kerning in Arabic lookup 2 per glyph data 2" afii57410 dx=60 dy=0 dh=60 dv=0 dx=0 dy=0 dh=0 dv=0
PairPos2: "'kern' Horizontal Kerning in Arabic lookup 2 per glyph data 2" afii57411 dx=60 dy=0 dh=60 dv=0 dx=0 dy=0 dh=0 dv=0
PairPos2: "'kern' Horizontal Kerning in Arabic lookup 2 per glyph data 2" uniFE8E.short dx=60 dy=0 dh=60 dv=0 dx=0 dy=0 dh=0 dv=0
PairPos2: "'kern' Horizontal Kerning in Arabic lookup 2 per glyph data 2" afii57415.short dx=60 dy=0 dh=60 dv=0 dx=0 dy=0 dh=0 dv=0
PairPos2: "'kern' Horizontal Kerning in Arabic lookup 2 per glyph data 2" afii57415 dx=60 dy=0 dh=60 dv=0 dx=0 dy=0 dh=0 dv=0
PairPos2: "'kern' Horizontal Kerning in Arabic lookup 2 per glyph data 1" uniFEF3 dx=40 dy=0 dh=40 dv=0 dx=0 dy=0 dh=0 dv=0
PairPos2: "'kern' Horizontal Kerning in Arabic lookup 2 per glyph data 1" uniFB58 dx=40 dy=0 dh=40 dv=0 dx=0 dy=0 dh=0 dv=0
PairPos2: "'kern' Horizontal Kerning in Arabic lookup 2 per glyph data 1" afii57413 dx=40 dy=0 dh=40 dv=0 dx=0 dy=0 dh=0 dv=0
PairPos2: "'kern' Horizontal Kerning in Arabic lookup 2 per glyph data 1" uniFB94 dx=110 dy=0 dh=110 dv=0 dx=0 dy=0 dh=0 dv=0
PairPos2: "'kern' Horizontal Kerning in Arabic lookup 2 per glyph data 1" afii57509 dx=110 dy=0 dh=110 dv=0 dx=0 dy=0 dh=0 dv=0
PairPos2: "'kern' Horizontal Kerning in Arabic lookup 2 per glyph data 1" uniFB90 dx=110 dy=0 dh=110 dv=0 dx=0 dy=0 dh=0 dv=0
PairPos2: "'kern' Horizontal Kerning in Arabic lookup 2 per glyph data 1" uni06A9 dx=110 dy=0 dh=110 dv=0 dx=0 dy=0 dh=0 dv=0
PairPos2: "'kern' Horizontal Kerning in Arabic lookup 2 per glyph data 1" uniFEDB dx=110 dy=0 dh=110 dv=0 dx=0 dy=0 dh=0 dv=0
EndChar

StartChar: uni066E.init
Encoding: 422 -1 81
Width: 277
GlyphClass: 2
Flags: W
AnchorPoint: "Anchor-11" 0 0 basechar 0
AnchorPoint: "Anchor-10" 134 335 basechar 0
AnchorPoint: "Anchor-9" 130 0 basechar 0
LayerCount: 2
Fore
SplineSet
20 78 m 1,0,-1
 29 78 l 2,1,2
 109 78 109 78 134 90 c 1,3,4
 141 105 141 105 141 126 c 0,5,6
 141 157 141 157 128 192 c 128,-1,7
 115 227 115 227 88 285 c 1,8,-1
 156 336 l 1,9,-1
 165 336 l 1,10,11
 190 284 190 284 203.5 236 c 128,-1,12
 217 188 217 188 217 156 c 0,13,14
 217 123 217 123 203.5 89.5 c 128,-1,15
 190 56 190 56 168 34 c 0,16,17
 148 15 148 15 114 7.5 c 128,-1,18
 80 0 80 0 10 0 c 2,19,-1
 0 0 l 1,20,-1
 20 78 l 1,0,-1
EndSplineSet
PairPos2: "'kern' Horizontal Kerning in Arabic lookup 2 per glyph data 2" uni0671 dx=60 dy=0 dh=60 dv=0 dx=0 dy=0 dh=0 dv=0
PairPos2: "'kern' Horizontal Kerning in Arabic lookup 2 per glyph data 2" afii57410 dx=60 dy=0 dh=60 dv=0 dx=0 dy=0 dh=0 dv=0
PairPos2: "'kern' Horizontal Kerning in Arabic lookup 2 per glyph data 2" afii57411 dx=60 dy=0 dh=60 dv=0 dx=0 dy=0 dh=0 dv=0
PairPos2: "'kern' Horizontal Kerning in Arabic lookup 2 per glyph data 2" uniFE8E.short dx=60 dy=0 dh=60 dv=0 dx=0 dy=0 dh=0 dv=0
PairPos2: "'kern' Horizontal Kerning in Arabic lookup 2 per glyph data 2" afii57415.short dx=60 dy=0 dh=60 dv=0 dx=0 dy=0 dh=0 dv=0
PairPos2: "'kern' Horizontal Kerning in Arabic lookup 2 per glyph data 2" afii57415 dx=60 dy=0 dh=60 dv=0 dx=0 dy=0 dh=0 dv=0
PairPos2: "'kern' Horizontal Kerning in Arabic lookup 2 per glyph data 1" uniFEF3 dx=40 dy=0 dh=40 dv=0 dx=0 dy=0 dh=0 dv=0
PairPos2: "'kern' Horizontal Kerning in Arabic lookup 2 per glyph data 1" uniFB58 dx=40 dy=0 dh=40 dv=0 dx=0 dy=0 dh=0 dv=0
PairPos2: "'kern' Horizontal Kerning in Arabic lookup 2 per glyph data 1" afii57413 dx=40 dy=0 dh=40 dv=0 dx=0 dy=0 dh=0 dv=0
PairPos2: "'kern' Horizontal Kerning in Arabic lookup 2 per glyph data 1" uniFB94 dx=110 dy=0 dh=110 dv=0 dx=0 dy=0 dh=0 dv=0
PairPos2: "'kern' Horizontal Kerning in Arabic lookup 2 per glyph data 1" afii57509 dx=110 dy=0 dh=110 dv=0 dx=0 dy=0 dh=0 dv=0
PairPos2: "'kern' Horizontal Kerning in Arabic lookup 2 per glyph data 1" uniFB90 dx=110 dy=0 dh=110 dv=0 dx=0 dy=0 dh=0 dv=0
PairPos2: "'kern' Horizontal Kerning in Arabic lookup 2 per glyph data 1" uni06A9 dx=110 dy=0 dh=110 dv=0 dx=0 dy=0 dh=0 dv=0
PairPos2: "'kern' Horizontal Kerning in Arabic lookup 2 per glyph data 1" uniFEDB dx=110 dy=0 dh=110 dv=0 dx=0 dy=0 dh=0 dv=0
EndChar

StartChar: uni066E.init.wide
Encoding: 423 -1 82
Width: 297
GlyphClass: 2
Flags: W
AnchorPoint: "Anchor-11" 0 0 basechar 0
AnchorPoint: "Anchor-10" 160 334 basechar 0
AnchorPoint: "Anchor-9" 150 0 basechar 0
LayerCount: 2
Fore
SplineSet
20 78 m 1,0,-1
 49 78 l 2,1,2
 129 78 129 78 154 90 c 1,3,4
 161 107 161 107 161 130 c 0,5,6
 161 161 161 161 148.5 198 c 128,-1,7
 136 235 136 235 113 285 c 1,8,-1
 176 336 l 1,9,-1
 185 336 l 1,10,11
 209 281 209 281 223 233.5 c 128,-1,12
 237 186 237 186 237 156 c 0,13,14
 237 123 237 123 224 89 c 128,-1,15
 211 55 211 55 188 34 c 0,16,17
 168 15 168 15 134 7.5 c 128,-1,18
 100 0 100 0 30 0 c 2,19,-1
 0 0 l 1,20,-1
 20 78 l 1,0,-1
EndSplineSet
PairPos2: "'kern' Horizontal Kerning in Arabic lookup 2 per glyph data 2" uni0671 dx=60 dy=0 dh=60 dv=0 dx=0 dy=0 dh=0 dv=0
PairPos2: "'kern' Horizontal Kerning in Arabic lookup 2 per glyph data 2" afii57410 dx=60 dy=0 dh=60 dv=0 dx=0 dy=0 dh=0 dv=0
PairPos2: "'kern' Horizontal Kerning in Arabic lookup 2 per glyph data 2" afii57411 dx=60 dy=0 dh=60 dv=0 dx=0 dy=0 dh=0 dv=0
PairPos2: "'kern' Horizontal Kerning in Arabic lookup 2 per glyph data 2" uniFE8E.short dx=60 dy=0 dh=60 dv=0 dx=0 dy=0 dh=0 dv=0
PairPos2: "'kern' Horizontal Kerning in Arabic lookup 2 per glyph data 2" afii57415.short dx=60 dy=0 dh=60 dv=0 dx=0 dy=0 dh=0 dv=0
PairPos2: "'kern' Horizontal Kerning in Arabic lookup 2 per glyph data 2" afii57415 dx=60 dy=0 dh=60 dv=0 dx=0 dy=0 dh=0 dv=0
PairPos2: "'kern' Horizontal Kerning in Arabic lookup 2 per glyph data 1" uniFEF3 dx=40 dy=0 dh=40 dv=0 dx=0 dy=0 dh=0 dv=0
PairPos2: "'kern' Horizontal Kerning in Arabic lookup 2 per glyph data 1" uniFB58 dx=40 dy=0 dh=40 dv=0 dx=0 dy=0 dh=0 dv=0
PairPos2: "'kern' Horizontal Kerning in Arabic lookup 2 per glyph data 1" afii57413 dx=40 dy=0 dh=40 dv=0 dx=0 dy=0 dh=0 dv=0
PairPos2: "'kern' Horizontal Kerning in Arabic lookup 2 per glyph data 1" uniFB94 dx=110 dy=0 dh=110 dv=0 dx=0 dy=0 dh=0 dv=0
PairPos2: "'kern' Horizontal Kerning in Arabic lookup 2 per glyph data 1" afii57509 dx=110 dy=0 dh=110 dv=0 dx=0 dy=0 dh=0 dv=0
PairPos2: "'kern' Horizontal Kerning in Arabic lookup 2 per glyph data 1" uniFB90 dx=110 dy=0 dh=110 dv=0 dx=0 dy=0 dh=0 dv=0
PairPos2: "'kern' Horizontal Kerning in Arabic lookup 2 per glyph data 1" uni06A9 dx=110 dy=0 dh=110 dv=0 dx=0 dy=0 dh=0 dv=0
PairPos2: "'kern' Horizontal Kerning in Arabic lookup 2 per glyph data 1" uniFEDB dx=110 dy=0 dh=110 dv=0 dx=0 dy=0 dh=0 dv=0
EndChar

StartChar: uniFBE8.yeh
Encoding: 425 -1 92
Width: 260
GlyphClass: 2
Flags: W
AnchorPoint: "Anchor-11" 0 0 basechar 0
AnchorPoint: "Anchor-10" 80 259 basechar 0
AnchorPoint: "Anchor-9" 145 -242 basechar 0
AnchorPoint: "Cursive-0" 0 23 exit 0
LayerCount: 2
Fore
SplineSet
0 23 m 1,0,1
 65 49 65 49 96 76 c 1,2,3
 95 107 95 107 82.5 144 c 128,-1,4
 70 181 70 181 47 232 c 1,5,-1
 111 283 l 1,6,-1
 120 283 l 1,7,8
 171 162 171 162 171 104 c 0,9,10
 171 43 171 43 83 -9 c 1,11,-1
 32 -17 l 1,12,-1
 0 23 l 1,0,1
EndSplineSet
PairPos2: "'kern' Horizontal Kerning in Arabic lookup 2 per glyph data 2" uni0671 dx=60 dy=0 dh=60 dv=0 dx=0 dy=0 dh=0 dv=0
PairPos2: "'kern' Horizontal Kerning in Arabic lookup 2 per glyph data 2" afii57410 dx=60 dy=0 dh=60 dv=0 dx=0 dy=0 dh=0 dv=0
PairPos2: "'kern' Horizontal Kerning in Arabic lookup 2 per glyph data 2" afii57411 dx=60 dy=0 dh=60 dv=0 dx=0 dy=0 dh=0 dv=0
PairPos2: "'kern' Horizontal Kerning in Arabic lookup 2 per glyph data 2" uniFE8E.short dx=60 dy=0 dh=60 dv=0 dx=0 dy=0 dh=0 dv=0
PairPos2: "'kern' Horizontal Kerning in Arabic lookup 2 per glyph data 2" afii57415.short dx=60 dy=0 dh=60 dv=0 dx=0 dy=0 dh=0 dv=0
PairPos2: "'kern' Horizontal Kerning in Arabic lookup 2 per glyph data 2" afii57415 dx=60 dy=0 dh=60 dv=0 dx=0 dy=0 dh=0 dv=0
PairPos2: "'kern' Horizontal Kerning in Arabic lookup 2 per glyph data 1" uniFEF3 dx=40 dy=0 dh=40 dv=0 dx=0 dy=0 dh=0 dv=0
PairPos2: "'kern' Horizontal Kerning in Arabic lookup 2 per glyph data 1" uniFB58 dx=40 dy=0 dh=40 dv=0 dx=0 dy=0 dh=0 dv=0
PairPos2: "'kern' Horizontal Kerning in Arabic lookup 2 per glyph data 1" afii57413 dx=40 dy=0 dh=40 dv=0 dx=0 dy=0 dh=0 dv=0
PairPos2: "'kern' Horizontal Kerning in Arabic lookup 2 per glyph data 1" uniFB94 dx=110 dy=0 dh=110 dv=0 dx=0 dy=0 dh=0 dv=0
PairPos2: "'kern' Horizontal Kerning in Arabic lookup 2 per glyph data 1" afii57509 dx=110 dy=0 dh=110 dv=0 dx=0 dy=0 dh=0 dv=0
PairPos2: "'kern' Horizontal Kerning in Arabic lookup 2 per glyph data 1" uniFB90 dx=110 dy=0 dh=110 dv=0 dx=0 dy=0 dh=0 dv=0
PairPos2: "'kern' Horizontal Kerning in Arabic lookup 2 per glyph data 1" uni06A9 dx=110 dy=0 dh=110 dv=0 dx=0 dy=0 dh=0 dv=0
PairPos2: "'kern' Horizontal Kerning in Arabic lookup 2 per glyph data 1" uniFEDB dx=110 dy=0 dh=110 dv=0 dx=0 dy=0 dh=0 dv=0
EndChar

StartChar: afii57421
Encoding: 164 1581 115
Width: 635
GlyphClass: 2
Flags: W
AnchorPoint: "Anchor-11" 347 -115 basechar 0
AnchorPoint: "Anchor-10" 316 335 basechar 0
AnchorPoint: "Anchor-9" 385 -416 basechar 0
LayerCount: 2
Fore
SplineSet
610 -313 m 1,0,-1
 588 -376 l 1,1,2
 558 -394 558 -394 500.5 -405 c 128,-1,3
 443 -416 443 -416 385 -416 c 0,4,5
 286 -416 286 -416 209 -384.5 c 128,-1,6
 132 -353 132 -353 88.5 -294.5 c 128,-1,7
 45 -236 45 -236 45 -159 c 0,8,9
 45 -77 45 -77 87 -3.5 c 128,-1,10
 129 70 129 70 198.5 128.5 c 128,-1,11
 268 187 268 187 352 226 c 1,12,13
 338 229 338 229 318 235 c 0,14,15
 268 249 268 249 237.5 254 c 128,-1,16
 207 259 207 259 177 259 c 0,17,18
 121 259 121 259 53 239 c 1,19,-1
 50 243 l 1,20,-1
 80 316 l 1,21,22
 99 325 99 325 127.5 330.5 c 128,-1,23
 156 336 156 336 183 336 c 256,24,25
 210 336 210 336 238 331 c 128,-1,26
 266 326 266 326 311 313 c 0,27,28
 389 291 389 291 454.5 282 c 128,-1,29
 520 273 520 273 597 273 c 1,30,-1
 577 193 l 1,31,32
 444 192 444 192 339.5 144.5 c 128,-1,33
 235 97 235 97 176.5 22 c 128,-1,34
 118 -53 118 -53 118 -136 c 0,35,36
 118 -199 118 -199 153.5 -244.5 c 128,-1,37
 189 -290 189 -290 253.5 -314 c 128,-1,38
 318 -338 318 -338 404 -338 c 0,39,40
 452 -338 452 -338 503.5 -330 c 128,-1,41
 555 -322 555 -322 604 -306 c 1,42,-1
 610 -313 l 1,0,-1
EndSplineSet
Substitution2: "'fina' Terminal Forms in Arabic lookup 18 subtable" uniFEA2
Substitution2: "'medi' Medial Forms in Arabic lookup 17 subtable" uniFEA4
Substitution2: "'init' Initial Forms in Arabic lookup 16 subtable" uniFEA3
AlternateSubs2: "'aalt' Access All Alternates in Arabic lookup 1 subtable" uniFEA2 uniFEA4 uniFEA3
PairPos2: "'kern' Horizontal Kerning in Arabic lookup 2 per glyph data 2" uni0671 dx=60 dy=0 dh=60 dv=0 dx=0 dy=0 dh=0 dv=0
PairPos2: "'kern' Horizontal Kerning in Arabic lookup 2 per glyph data 2" afii57410 dx=60 dy=0 dh=60 dv=0 dx=0 dy=0 dh=0 dv=0
PairPos2: "'kern' Horizontal Kerning in Arabic lookup 2 per glyph data 2" afii57411 dx=60 dy=0 dh=60 dv=0 dx=0 dy=0 dh=0 dv=0
PairPos2: "'kern' Horizontal Kerning in Arabic lookup 2 per glyph data 2" uniFE8E.short dx=60 dy=0 dh=60 dv=0 dx=0 dy=0 dh=0 dv=0
PairPos2: "'kern' Horizontal Kerning in Arabic lookup 2 per glyph data 2" afii57415.short dx=60 dy=0 dh=60 dv=0 dx=0 dy=0 dh=0 dv=0
PairPos2: "'kern' Horizontal Kerning in Arabic lookup 2 per glyph data 2" afii57415 dx=60 dy=0 dh=60 dv=0 dx=0 dy=0 dh=0 dv=0
PairPos2: "'kern' Horizontal Kerning in Arabic lookup 2 per glyph data 1" uniFEF3 dx=40 dy=0 dh=40 dv=0 dx=0 dy=0 dh=0 dv=0
PairPos2: "'kern' Horizontal Kerning in Arabic lookup 2 per glyph data 1" uniFB58 dx=40 dy=0 dh=40 dv=0 dx=0 dy=0 dh=0 dv=0
PairPos2: "'kern' Horizontal Kerning in Arabic lookup 2 per glyph data 1" afii57413 dx=40 dy=0 dh=40 dv=0 dx=0 dy=0 dh=0 dv=0
PairPos2: "'kern' Horizontal Kerning in Arabic lookup 2 per glyph data 1" uniFB94 dx=110 dy=0 dh=110 dv=0 dx=0 dy=0 dh=0 dv=0
PairPos2: "'kern' Horizontal Kerning in Arabic lookup 2 per glyph data 1" afii57509 dx=110 dy=0 dh=110 dv=0 dx=0 dy=0 dh=0 dv=0
PairPos2: "'kern' Horizontal Kerning in Arabic lookup 2 per glyph data 1" uniFB90 dx=110 dy=0 dh=110 dv=0 dx=0 dy=0 dh=0 dv=0
PairPos2: "'kern' Horizontal Kerning in Arabic lookup 2 per glyph data 1" uni06A9 dx=110 dy=0 dh=110 dv=0 dx=0 dy=0 dh=0 dv=0
PairPos2: "'kern' Horizontal Kerning in Arabic lookup 2 per glyph data 1" uniFEDB dx=110 dy=0 dh=110 dv=0 dx=0 dy=0 dh=0 dv=0
EndChar

StartChar: uniFEA2
Encoding: 345 65186 116
Width: 689
GlyphClass: 2
Flags: W
AnchorPoint: "Anchor-11" 347 -115 basechar 0
AnchorPoint: "Anchor-10" 316 335 basechar 0
AnchorPoint: "Anchor-9" 385 -416 basechar 0
LayerCount: 2
Fore
SplineSet
740.5 71 m 128,-1,1
 749 64 749 64 749 51 c 0,2,3
 749 32 749 32 736 16 c 128,-1,4
 723 0 723 0 689 0 c 0,5,6
 628 0 628 0 583 16.5 c 128,-1,7
 538 33 538 33 504.5 72.5 c 128,-1,8
 471 112 471 112 449 179 c 1,9,10
 350 158 350 158 275 110 c 128,-1,11
 200 62 200 62 159 -2.5 c 128,-1,12
 118 -67 118 -67 118 -136 c 0,13,14
 118 -199 118 -199 153.5 -244.5 c 128,-1,15
 189 -290 189 -290 253.5 -314 c 128,-1,16
 318 -338 318 -338 404 -338 c 0,17,18
 452 -338 452 -338 503.5 -330 c 128,-1,19
 555 -322 555 -322 604 -306 c 1,20,-1
 610 -313 l 1,21,-1
 588 -376 l 1,22,23
 558 -394 558 -394 500.5 -405 c 128,-1,24
 443 -416 443 -416 385 -416 c 0,25,26
 286 -416 286 -416 209 -384.5 c 128,-1,27
 132 -353 132 -353 88.5 -294.5 c 128,-1,28
 45 -236 45 -236 45 -159 c 0,29,30
 45 -77 45 -77 87 -3.5 c 128,-1,31
 129 70 129 70 198.5 128.5 c 128,-1,32
 268 187 268 187 352 226 c 1,33,34
 338 229 338 229 318 235 c 0,35,36
 268 249 268 249 237.5 254 c 128,-1,37
 207 259 207 259 177 259 c 0,38,39
 121 259 121 259 53 239 c 1,40,-1
 50 243 l 1,41,-1
 80 316 l 1,42,43
 99 325 99 325 127.5 330.5 c 128,-1,44
 156 336 156 336 183 336 c 256,45,46
 210 336 210 336 238 331 c 128,-1,47
 266 326 266 326 311 313 c 0,48,49
 389 291 389 291 454.5 282 c 128,-1,50
 520 273 520 273 597 273 c 1,51,-1
 577 193 l 1,52,53
 546 193 546 193 518 190 c 1,54,55
 543 130 543 130 588 104 c 128,-1,56
 633 78 633 78 709 78 c 0,57,0
 732 78 732 78 740.5 71 c 128,-1,1
EndSplineSet
PairPos2: "'kern' Horizontal Kerning in Arabic lookup 2 per glyph data 2" uni0671 dx=60 dy=0 dh=60 dv=0 dx=0 dy=0 dh=0 dv=0
PairPos2: "'kern' Horizontal Kerning in Arabic lookup 2 per glyph data 2" afii57410 dx=60 dy=0 dh=60 dv=0 dx=0 dy=0 dh=0 dv=0
PairPos2: "'kern' Horizontal Kerning in Arabic lookup 2 per glyph data 2" afii57411 dx=60 dy=0 dh=60 dv=0 dx=0 dy=0 dh=0 dv=0
PairPos2: "'kern' Horizontal Kerning in Arabic lookup 2 per glyph data 2" uniFE8E.short dx=60 dy=0 dh=60 dv=0 dx=0 dy=0 dh=0 dv=0
PairPos2: "'kern' Horizontal Kerning in Arabic lookup 2 per glyph data 2" afii57415.short dx=60 dy=0 dh=60 dv=0 dx=0 dy=0 dh=0 dv=0
PairPos2: "'kern' Horizontal Kerning in Arabic lookup 2 per glyph data 2" afii57415 dx=60 dy=0 dh=60 dv=0 dx=0 dy=0 dh=0 dv=0
PairPos2: "'kern' Horizontal Kerning in Arabic lookup 2 per glyph data 1" uniFEF3 dx=40 dy=0 dh=40 dv=0 dx=0 dy=0 dh=0 dv=0
PairPos2: "'kern' Horizontal Kerning in Arabic lookup 2 per glyph data 1" uniFB58 dx=40 dy=0 dh=40 dv=0 dx=0 dy=0 dh=0 dv=0
PairPos2: "'kern' Horizontal Kerning in Arabic lookup 2 per glyph data 1" afii57413 dx=40 dy=0 dh=40 dv=0 dx=0 dy=0 dh=0 dv=0
PairPos2: "'kern' Horizontal Kerning in Arabic lookup 2 per glyph data 1" uniFB94 dx=110 dy=0 dh=110 dv=0 dx=0 dy=0 dh=0 dv=0
PairPos2: "'kern' Horizontal Kerning in Arabic lookup 2 per glyph data 1" afii57509 dx=110 dy=0 dh=110 dv=0 dx=0 dy=0 dh=0 dv=0
PairPos2: "'kern' Horizontal Kerning in Arabic lookup 2 per glyph data 1" uniFB90 dx=110 dy=0 dh=110 dv=0 dx=0 dy=0 dh=0 dv=0
PairPos2: "'kern' Horizontal Kerning in Arabic lookup 2 per glyph data 1" uni06A9 dx=110 dy=0 dh=110 dv=0 dx=0 dy=0 dh=0 dv=0
PairPos2: "'kern' Horizontal Kerning in Arabic lookup 2 per glyph data 1" uniFEDB dx=110 dy=0 dh=110 dv=0 dx=0 dy=0 dh=0 dv=0
EndChar

